%FSLAX25Y25*%
%MOIN*%
G70*
G01*
G75*
%ADD10R,0.03937X0.03937*%
%ADD11R,0.03937X0.03937*%
%ADD12R,0.01969X0.05906*%
%ADD13R,0.05906X0.01969*%
%ADD14R,0.09843X0.09055*%
%ADD15R,0.32795X0.31496*%
%ADD16R,0.04213X0.08504*%
%ADD17C,0.01000*%
%ADD18C,0.03937*%
%ADD19C,0.02362*%
%ADD20C,0.00787*%
%ADD21R,0.27559X0.27559*%
%ADD22R,0.03543X0.06693*%
%ADD23R,0.19685X0.79528*%
%ADD24R,0.25984X0.40158*%
%ADD25R,0.40158X0.25984*%
%ADD26R,0.06693X0.03543*%
%ADD27R,0.07087X0.03937*%
%ADD28R,0.03937X0.07087*%
%ADD29R,0.39370X0.39370*%
%ADD30R,0.17716X0.15748*%
%ADD31R,0.40000X0.34016*%
%ADD32C,0.07874*%
%ADD33C,0.05906*%
%ADD34C,0.07284*%
%ADD35R,0.07284X0.07284*%
%ADD36R,0.05906X0.05906*%
%ADD37C,0.05000*%
%ADD38C,0.15748*%
%ADD39C,0.00984*%
%ADD40C,0.00492*%
%ADD41C,0.00591*%
G54D17*
X564894Y259842D02*
X564932Y258849D01*
X565044Y257860D01*
X565232Y256883D01*
X565492Y255923D01*
X565824Y254985D01*
X566227Y254076D01*
X566697Y253199D01*
X567232Y252360D01*
X567828Y251564D01*
X568484Y250816D01*
X569194Y250119D01*
X569954Y249478D01*
X570761Y248897D01*
X571610Y248378D01*
X572496Y247924D01*
X573413Y247539D01*
X574357Y247225D01*
X575321Y246983D01*
X576302Y246814D01*
X577292Y246720D01*
X578287Y246701D01*
X579280Y246758D01*
X580266Y246889D01*
X581239Y247094D01*
X582194Y247373D01*
X583125Y247723D01*
X584027Y248143D01*
X584895Y248629D01*
X585723Y249180D01*
X586508Y249792D01*
X587244Y250461D01*
X587927Y251184D01*
X588553Y251957D01*
X589119Y252775D01*
X589622Y253633D01*
X590059Y254527D01*
X590426Y255451D01*
X590723Y256401D01*
X590947Y257370D01*
X591097Y258353D01*
X591172Y259345D01*
Y260340D01*
X591097Y261332D01*
X590947Y262315D01*
X590723Y263284D01*
X590426Y264234D01*
X590059Y265158D01*
X589622Y266052D01*
X589119Y266911D01*
X588553Y267728D01*
X587927Y268501D01*
X587244Y269224D01*
X586508Y269893D01*
X585723Y270505D01*
X584895Y271056D01*
X584027Y271542D01*
X583125Y271962D01*
X582194Y272312D01*
X581239Y272590D01*
X580266Y272796D01*
X579280Y272927D01*
X578287Y272984D01*
X577292Y272965D01*
X576302Y272871D01*
X575321Y272703D01*
X574357Y272460D01*
X573413Y272146D01*
X572496Y271761D01*
X571610Y271307D01*
X570761Y270789D01*
X569954Y270207D01*
X569194Y269566D01*
X568484Y268869D01*
X567829Y268121D01*
X567232Y267325D01*
X566697Y266486D01*
X566227Y265609D01*
X565824Y264700D01*
X565492Y263762D01*
X565232Y262802D01*
X565044Y261825D01*
X564932Y260837D01*
X564894Y259843D01*
X497965Y259842D02*
X498003Y258849D01*
X498115Y257860D01*
X498302Y256883D01*
X498563Y255923D01*
X498895Y254985D01*
X499298Y254076D01*
X499767Y253199D01*
X500303Y252360D01*
X500899Y251564D01*
X501555Y250816D01*
X502265Y250119D01*
X503025Y249478D01*
X503832Y248897D01*
X504681Y248378D01*
X505566Y247924D01*
X506484Y247539D01*
X507427Y247225D01*
X508392Y246983D01*
X509373Y246814D01*
X510363Y246720D01*
X511357Y246701D01*
X512351Y246758D01*
X513337Y246889D01*
X514310Y247094D01*
X515265Y247373D01*
X516196Y247723D01*
X517098Y248143D01*
X517966Y248629D01*
X518794Y249180D01*
X519579Y249792D01*
X520314Y250461D01*
X520998Y251184D01*
X521624Y251957D01*
X522190Y252775D01*
X522693Y253633D01*
X523130Y254527D01*
X523497Y255451D01*
X523794Y256401D01*
X524018Y257370D01*
X524168Y258353D01*
X524243Y259345D01*
Y260340D01*
X524168Y261332D01*
X524018Y262315D01*
X523794Y263284D01*
X523497Y264234D01*
X523130Y265158D01*
X522693Y266052D01*
X522190Y266911D01*
X521624Y267728D01*
X520998Y268501D01*
X520314Y269224D01*
X519579Y269893D01*
X518794Y270505D01*
X517966Y271056D01*
X517098Y271542D01*
X516196Y271962D01*
X515265Y272312D01*
X514310Y272590D01*
X513337Y272796D01*
X512351Y272927D01*
X511357Y272984D01*
X510363Y272965D01*
X509373Y272871D01*
X508392Y272703D01*
X507427Y272460D01*
X506484Y272146D01*
X505567Y271761D01*
X504681Y271307D01*
X503832Y270789D01*
X503025Y270207D01*
X502265Y269566D01*
X501555Y268869D01*
X500899Y268121D01*
X500303Y267325D01*
X499768Y266486D01*
X499298Y265609D01*
X498895Y264700D01*
X498563Y263762D01*
X498302Y262802D01*
X498115Y261825D01*
X498003Y260837D01*
X497965Y259843D01*
Y118110D02*
X498003Y117116D01*
X498115Y116128D01*
X498302Y115151D01*
X498563Y114191D01*
X498895Y113253D01*
X499298Y112343D01*
X499767Y111467D01*
X500303Y110628D01*
X500899Y109832D01*
X501555Y109084D01*
X502265Y108387D01*
X503025Y107746D01*
X503832Y107164D01*
X504681Y106645D01*
X505566Y106192D01*
X506484Y105807D01*
X507427Y105492D01*
X508392Y105250D01*
X509373Y105082D01*
X510363Y104988D01*
X511357Y104969D01*
X512351Y105025D01*
X513337Y105157D01*
X514310Y105362D01*
X515265Y105641D01*
X516196Y105991D01*
X517098Y106410D01*
X517966Y106897D01*
X518794Y107448D01*
X519579Y108059D01*
X520314Y108729D01*
X520998Y109452D01*
X521624Y110224D01*
X522190Y111042D01*
X522693Y111901D01*
X523130Y112794D01*
X523497Y113719D01*
X523794Y114668D01*
X524018Y115638D01*
X524168Y116621D01*
X524243Y117613D01*
Y118608D01*
X524168Y119599D01*
X524018Y120583D01*
X523794Y121552D01*
X523497Y122502D01*
X523130Y123426D01*
X522693Y124320D01*
X522190Y125178D01*
X521624Y125996D01*
X520998Y126769D01*
X520314Y127492D01*
X519579Y128161D01*
X518794Y128773D01*
X517966Y129324D01*
X517098Y129810D01*
X516196Y130230D01*
X515265Y130580D01*
X514310Y130858D01*
X513337Y131064D01*
X512351Y131195D01*
X511357Y131252D01*
X510363Y131233D01*
X509373Y131139D01*
X508392Y130970D01*
X507427Y130728D01*
X506484Y130413D01*
X505567Y130028D01*
X504681Y129575D01*
X503832Y129056D01*
X503025Y128474D01*
X502265Y127833D01*
X501555Y127137D01*
X500899Y126388D01*
X500303Y125593D01*
X499768Y124754D01*
X499298Y123877D01*
X498895Y122967D01*
X498563Y122030D01*
X498302Y121070D01*
X498115Y120093D01*
X498003Y119104D01*
X497965Y118110D01*
X564894Y118110D02*
X564932Y117116D01*
X565044Y116128D01*
X565232Y115151D01*
X565492Y114191D01*
X565824Y113253D01*
X566227Y112343D01*
X566697Y111467D01*
X567232Y110628D01*
X567828Y109832D01*
X568484Y109084D01*
X569194Y108387D01*
X569954Y107746D01*
X570761Y107164D01*
X571610Y106645D01*
X572496Y106192D01*
X573413Y105807D01*
X574357Y105492D01*
X575321Y105250D01*
X576302Y105082D01*
X577292Y104988D01*
X578287Y104969D01*
X579280Y105025D01*
X580266Y105157D01*
X581239Y105362D01*
X582194Y105641D01*
X583125Y105991D01*
X584027Y106410D01*
X584895Y106897D01*
X585723Y107448D01*
X586508Y108059D01*
X587244Y108729D01*
X587927Y109452D01*
X588553Y110224D01*
X589119Y111042D01*
X589622Y111901D01*
X590059Y112794D01*
X590426Y113719D01*
X590723Y114668D01*
X590947Y115638D01*
X591097Y116621D01*
X591172Y117613D01*
Y118608D01*
X591097Y119599D01*
X590947Y120583D01*
X590723Y121552D01*
X590426Y122502D01*
X590059Y123426D01*
X589622Y124320D01*
X589119Y125178D01*
X588553Y125996D01*
X587927Y126769D01*
X587244Y127492D01*
X586508Y128161D01*
X585723Y128773D01*
X584895Y129324D01*
X584027Y129810D01*
X583125Y130230D01*
X582194Y130580D01*
X581239Y130858D01*
X580266Y131064D01*
X579280Y131195D01*
X578287Y131252D01*
X577292Y131233D01*
X576302Y131139D01*
X575321Y130970D01*
X574357Y130728D01*
X573413Y130413D01*
X572496Y130028D01*
X571610Y129575D01*
X570761Y129056D01*
X569954Y128474D01*
X569194Y127833D01*
X568484Y127137D01*
X567829Y126388D01*
X567232Y125593D01*
X566697Y124754D01*
X566227Y123877D01*
X565824Y122967D01*
X565492Y122030D01*
X565232Y121070D01*
X565044Y120093D01*
X564932Y119104D01*
X564894Y118110D01*
X687648Y310000D02*
Y338000D01*
X659648D01*
Y310000D02*
Y338000D01*
X687648Y310000D02*
X659648D01*
X666648Y125000D02*
X638648D01*
X666648D02*
Y153000D01*
X638648D01*
Y125000D02*
Y153000D01*
X565648Y41500D02*
Y69500D01*
X593648Y41500D02*
X565648D01*
X593648D02*
Y69500D01*
X565648D01*
X436648Y9500D02*
Y37500D01*
X464648Y9500D02*
X436648D01*
X464648D02*
Y37500D01*
X436648D01*
X440148Y322500D02*
Y350500D01*
X468148Y322500D02*
X440148D01*
X468148D02*
Y350500D01*
X440148D01*
X418648Y132500D02*
Y133500D01*
X412648Y132500D02*
Y133500D01*
X591648Y324000D02*
X590648D01*
X591648Y330000D02*
X590648D01*
X660648Y221847D02*
Y222847D01*
X654648Y221847D02*
Y222847D01*
X663148Y56000D02*
X662148D01*
X663148Y50000D02*
X662148D01*
X591648Y309500D02*
X590648D01*
X591648Y303500D02*
X590648D01*
X632648Y221000D02*
Y222000D01*
X638648Y221000D02*
Y222000D01*
X665648Y70500D02*
X664648D01*
X665648Y76500D02*
X664648D01*
X652148Y320500D02*
X651148D01*
X652148Y314500D02*
X651148D01*
X643648Y160000D02*
Y161000D01*
X649648Y160000D02*
Y161000D01*
X602148Y59000D02*
X601148D01*
X602148Y65000D02*
X601148D01*
X621148Y352000D02*
X620148D01*
X621148Y346000D02*
X620148D01*
X677148Y190500D02*
Y191500D01*
X683148Y190500D02*
Y191500D01*
X631148Y27000D02*
X630148D01*
X631148Y33000D02*
X630148D01*
X559648Y229500D02*
X558648D01*
X559648Y223500D02*
X558648D01*
X581648Y179000D02*
Y180000D01*
X575648Y179000D02*
Y180000D01*
X542148Y147500D02*
X541148D01*
X542148Y141500D02*
X541148D01*
X508648Y177500D02*
Y178500D01*
X502648Y177500D02*
Y178500D01*
X538148Y216500D02*
X537148D01*
X538148Y222500D02*
X537148D01*
X494648Y279000D02*
Y280000D01*
X488648Y279000D02*
Y280000D01*
X511648Y76500D02*
Y77500D01*
X505648Y76500D02*
Y77500D01*
X400648Y239500D02*
Y240500D01*
X406648Y239500D02*
Y240500D01*
X471148Y213500D02*
Y214500D01*
X465148Y213500D02*
Y214500D01*
X663148Y62000D02*
Y63000D01*
X669148Y62000D02*
Y63000D01*
X648648Y228847D02*
X647648D01*
X648648Y222847D02*
X647648D01*
X590648Y317000D02*
Y318000D01*
X584648Y317000D02*
Y318000D01*
X578148Y89500D02*
X577148D01*
X578148Y95500D02*
X577148D01*
X615148Y134500D02*
Y135500D01*
X621148Y134500D02*
Y135500D01*
X677648Y292500D02*
X676648D01*
X677648Y286500D02*
X676648D01*
X617648Y286000D02*
X616648D01*
X617648Y292000D02*
X616648D01*
X619148Y196500D02*
Y197500D01*
X613148Y196500D02*
Y197500D01*
X636148Y94500D02*
X635148D01*
X636148Y88500D02*
X635148D01*
X608648Y292000D02*
Y293000D01*
X602648Y292000D02*
Y293000D01*
X621148Y210000D02*
X620148D01*
X621148Y204000D02*
X620148D01*
X643648Y87500D02*
Y88500D01*
X649648Y87500D02*
Y88500D01*
X638648Y235000D02*
Y236000D01*
X632648Y235000D02*
Y236000D01*
X576148Y303500D02*
X575148D01*
X576148Y309500D02*
X575148D01*
X680148Y70500D02*
X679148D01*
X680148Y76500D02*
X679148D01*
X670648Y301000D02*
Y302000D01*
X676648Y301000D02*
Y302000D01*
X629148Y136000D02*
X628148D01*
X629148Y142000D02*
X628148D01*
X584148Y81000D02*
Y82000D01*
X578148Y81000D02*
Y82000D01*
X502648Y279000D02*
Y280000D01*
X496648Y279000D02*
Y280000D01*
X468648Y279500D02*
X467648D01*
X468648Y285500D02*
X467648D01*
X514648Y76500D02*
Y77500D01*
X520648Y76500D02*
Y77500D01*
X481648Y70500D02*
X480648D01*
X481648Y76500D02*
X480648D01*
X678148Y259500D02*
X677148D01*
X678148Y253500D02*
X677148D01*
X678605Y112000D02*
X677605D01*
X678605Y118000D02*
X677605D01*
X551148Y222500D02*
Y223500D01*
X545148Y222500D02*
Y223500D01*
X558648Y239000D02*
Y240000D01*
X552648Y239000D02*
Y240000D01*
X691148Y259500D02*
Y260500D01*
X685148Y259500D02*
Y260500D01*
X690148Y267000D02*
X686148D01*
X691605Y125500D02*
X687605D01*
X686605Y118000D02*
Y119000D01*
X692605Y118000D02*
Y119000D01*
X429148Y146500D02*
X428148D01*
X429148Y140500D02*
X428148D01*
X475148Y104000D02*
Y105000D01*
X469148Y104000D02*
Y105000D01*
X423149Y121998D02*
X424149Y122998D01*
X426148D01*
X427148Y121998D01*
Y118000D01*
X426148Y117000D01*
X424149D01*
X423149Y118000D01*
X421150Y117000D02*
X419151D01*
X420150D01*
Y122998D01*
X421150Y121998D01*
X412153Y122998D02*
X416152D01*
Y119999D01*
X414152Y120999D01*
X413153D01*
X412153Y119999D01*
Y118000D01*
X413153Y117000D01*
X415152D01*
X416152Y118000D01*
X457648Y361998D02*
Y356000D01*
X454649D01*
X453649Y357000D01*
Y357999D01*
X454649Y358999D01*
X457648D01*
X454649D01*
X453649Y359999D01*
Y360998D01*
X454649Y361998D01*
X457648D01*
X451650Y356000D02*
X449651D01*
X450650D01*
Y361998D01*
X451650Y360998D01*
X455148Y51498D02*
Y45500D01*
X452149D01*
X451149Y46500D01*
Y47499D01*
X452149Y48499D01*
X455148D01*
X452149D01*
X451149Y49499D01*
Y50498D01*
X452149Y51498D01*
X455148D01*
X445151Y45500D02*
X449150D01*
X445151Y49499D01*
Y50498D01*
X446151Y51498D01*
X448150D01*
X449150Y50498D01*
X466649Y203998D02*
X467649Y204998D01*
X469648D01*
X470648Y203998D01*
Y200000D01*
X469648Y199000D01*
X467649D01*
X466649Y200000D01*
X460651Y204998D02*
X462651Y203998D01*
X464650Y201999D01*
Y200000D01*
X463650Y199000D01*
X461651D01*
X460651Y200000D01*
Y200999D01*
X461651Y201999D01*
X464650D01*
X401649Y230498D02*
X402649Y231498D01*
X404648D01*
X405648Y230498D01*
Y226500D01*
X404648Y225500D01*
X402649D01*
X401649Y226500D01*
X399650Y231498D02*
X395651D01*
Y230498D01*
X399650Y226500D01*
Y225500D01*
X509149Y67998D02*
X510149Y68998D01*
X512148D01*
X513148Y67998D01*
Y64000D01*
X512148Y63000D01*
X510149D01*
X509149Y64000D01*
X507150Y67998D02*
X506150Y68998D01*
X504151D01*
X503151Y67998D01*
Y66999D01*
X504151Y65999D01*
X503151Y64999D01*
Y64000D01*
X504151Y63000D01*
X506150D01*
X507150Y64000D01*
Y64999D01*
X506150Y65999D01*
X507150Y66999D01*
Y67998D01*
X506150Y65999D02*
X504151D01*
X494149Y293998D02*
X495149Y294998D01*
X497148D01*
X498148Y293998D01*
Y290000D01*
X497148Y289000D01*
X495149D01*
X494149Y290000D01*
X492150D02*
X491150Y289000D01*
X489151D01*
X488151Y290000D01*
Y293998D01*
X489151Y294998D01*
X491150D01*
X492150Y293998D01*
Y292999D01*
X491150Y291999D01*
X488151D01*
X526649Y228498D02*
X527649Y229498D01*
X529648D01*
X530648Y228498D01*
Y224500D01*
X529648Y223500D01*
X527649D01*
X526649Y224500D01*
X524650Y223500D02*
X522651D01*
X523650D01*
Y229498D01*
X524650Y228498D01*
X519652D02*
X518652Y229498D01*
X516653D01*
X515653Y228498D01*
Y224500D01*
X516653Y223500D01*
X518652D01*
X519652Y224500D01*
Y228498D01*
X503149Y169998D02*
X504149Y170998D01*
X506148D01*
X507148Y169998D01*
Y166000D01*
X506148Y165000D01*
X504149D01*
X503149Y166000D01*
X501150Y165000D02*
X499151D01*
X500150D01*
Y170998D01*
X501150Y169998D01*
X496152Y165000D02*
X494152D01*
X495152D01*
Y170998D01*
X496152Y169998D01*
X533149Y139998D02*
X534149Y140998D01*
X536148D01*
X537148Y139998D01*
Y136000D01*
X536148Y135000D01*
X534149D01*
X533149Y136000D01*
X531150Y135000D02*
X529151D01*
X530150D01*
Y140998D01*
X531150Y139998D01*
X522153Y135000D02*
X526152D01*
X522153Y138999D01*
Y139998D01*
X523153Y140998D01*
X525152D01*
X526152Y139998D01*
X595649Y182498D02*
X596649Y183498D01*
X598648D01*
X599648Y182498D01*
Y178500D01*
X598648Y177500D01*
X596649D01*
X595649Y178500D01*
X593650Y177500D02*
X591651D01*
X592650D01*
Y183498D01*
X593650Y182498D01*
X588652D02*
X587652Y183498D01*
X585653D01*
X584653Y182498D01*
Y181499D01*
X585653Y180499D01*
X586652D01*
X585653D01*
X584653Y179499D01*
Y178500D01*
X585653Y177500D01*
X587652D01*
X588652Y178500D01*
X576149Y235498D02*
X577149Y236498D01*
X579148D01*
X580148Y235498D01*
Y231500D01*
X579148Y230500D01*
X577149D01*
X576149Y231500D01*
X574150Y230500D02*
X572151D01*
X573150D01*
Y236498D01*
X574150Y235498D01*
X566153Y230500D02*
Y236498D01*
X569152Y233499D01*
X565153D01*
X506968Y338918D02*
Y332920D01*
X503969D01*
X502970Y333919D01*
Y337918D01*
X503969Y338918D01*
X506968D01*
X500971Y332920D02*
X498971D01*
X499971D01*
Y338918D01*
X500971Y337918D01*
X421969Y336418D02*
Y330420D01*
X418969D01*
X417970Y331419D01*
Y335418D01*
X418969Y336418D01*
X421969D01*
X411972Y330420D02*
X415971D01*
X411972Y334418D01*
Y335418D01*
X412971Y336418D01*
X414971D01*
X415971Y335418D01*
X507469Y367918D02*
Y361920D01*
X504469D01*
X503470Y362919D01*
Y366918D01*
X504469Y367918D01*
X507469D01*
X501471Y366918D02*
X500471Y367918D01*
X498471D01*
X497472Y366918D01*
Y365918D01*
X498471Y364919D01*
X499471D01*
X498471D01*
X497472Y363919D01*
Y362919D01*
X498471Y361920D01*
X500471D01*
X501471Y362919D01*
X421969Y365418D02*
Y359420D01*
X418969D01*
X417970Y360419D01*
Y364418D01*
X418969Y365418D01*
X421969D01*
X412971Y359420D02*
Y365418D01*
X415971Y362419D01*
X411972D01*
X491648Y31498D02*
Y25500D01*
X488649D01*
X487649Y26500D01*
Y30498D01*
X488649Y31498D01*
X491648D01*
X481651D02*
X485650D01*
Y28499D01*
X483651Y29499D01*
X482651D01*
X481651Y28499D01*
Y26500D01*
X482651Y25500D01*
X484650D01*
X485650Y26500D01*
X415648Y30998D02*
Y25000D01*
X412649D01*
X411649Y26000D01*
Y29998D01*
X412649Y30998D01*
X415648D01*
X405651D02*
X407651Y29998D01*
X409650Y27999D01*
Y26000D01*
X408650Y25000D01*
X406651D01*
X405651Y26000D01*
Y26999D01*
X406651Y27999D01*
X409650D01*
X495648Y59498D02*
Y53500D01*
X492649D01*
X491649Y54500D01*
Y58498D01*
X492649Y59498D01*
X495648D01*
X489650D02*
X485651D01*
Y58498D01*
X489650Y54500D01*
Y53500D01*
X414648Y60498D02*
Y54500D01*
X411649D01*
X410649Y55500D01*
Y59498D01*
X411649Y60498D01*
X414648D01*
X408650Y59498D02*
X407650Y60498D01*
X405651D01*
X404651Y59498D01*
Y58499D01*
X405651Y57499D01*
X404651Y56499D01*
Y55500D01*
X405651Y54500D01*
X407650D01*
X408650Y55500D01*
Y56499D01*
X407650Y57499D01*
X408650Y58499D01*
Y59498D01*
X407650Y57499D02*
X405651D01*
X693648Y109998D02*
Y104000D01*
X690649D01*
X689649Y105000D01*
Y108998D01*
X690649Y109998D01*
X693648D01*
X687650Y105000D02*
X686650Y104000D01*
X684651D01*
X683651Y105000D01*
Y108998D01*
X684651Y109998D01*
X686650D01*
X687650Y108998D01*
Y107999D01*
X686650Y106999D01*
X683651D01*
X690169Y276018D02*
Y270020D01*
X687170D01*
X686170Y271019D01*
Y275018D01*
X687170Y276018D01*
X690169D01*
X684170Y270020D02*
X682171D01*
X683171D01*
Y276018D01*
X684170Y275018D01*
X679172D02*
X678172Y276018D01*
X676173D01*
X675173Y275018D01*
Y271019D01*
X676173Y270020D01*
X678172D01*
X679172Y271019D01*
Y275018D01*
X521150Y364500D02*
Y362501D01*
Y363500D01*
X527148D01*
Y364500D01*
Y362501D01*
X522150Y355503D02*
X521150Y356503D01*
Y358502D01*
X522150Y359502D01*
X526148D01*
X527148Y358502D01*
Y356503D01*
X526148Y355503D01*
X522150Y349505D02*
X521150Y350504D01*
Y352504D01*
X522150Y353504D01*
X523149D01*
X524149Y352504D01*
Y350504D01*
X525149Y349505D01*
X526148D01*
X527148Y350504D01*
Y352504D01*
X526148Y353504D01*
X527148Y347505D02*
X521150D01*
Y344507D01*
X522150Y343507D01*
X524149D01*
X525149Y344507D01*
Y347505D01*
X437648Y273498D02*
Y267500D01*
X433649D01*
X427651D02*
X431650D01*
X427651Y271499D01*
Y272498D01*
X428651Y273498D01*
X430650D01*
X431650Y272498D01*
X425652Y268500D02*
X424652Y267500D01*
X422653D01*
X421653Y268500D01*
Y272498D01*
X422653Y273498D01*
X424652D01*
X425652Y272498D01*
Y271499D01*
X424652Y270499D01*
X421653D01*
X419654Y272498D02*
X418654Y273498D01*
X416655D01*
X415655Y272498D01*
Y271499D01*
X416655Y270499D01*
X415655Y269499D01*
Y268500D01*
X416655Y267500D01*
X418654D01*
X419654Y268500D01*
Y269499D01*
X418654Y270499D01*
X419654Y271499D01*
Y272498D01*
X418654Y270499D02*
X416655D01*
X413656Y267500D02*
Y273498D01*
X409657Y267500D01*
Y273498D01*
X575148Y210500D02*
Y216498D01*
X572149D01*
X571149Y215498D01*
Y213499D01*
X572149Y212499D01*
X575148D01*
X569150Y216498D02*
X567151D01*
X568150D01*
Y210500D01*
X569150D01*
X567151D01*
X560153Y215498D02*
X561153Y216498D01*
X563152D01*
X564152Y215498D01*
Y211500D01*
X563152Y210500D01*
X561153D01*
X560153Y211500D01*
X560148Y247500D02*
Y253498D01*
X557149D01*
X556149Y252498D01*
Y250499D01*
X557149Y249499D01*
X560148D01*
X558149D02*
X556149Y247500D01*
X554150Y252498D02*
X553150Y253498D01*
X551151D01*
X550151Y252498D01*
Y251499D01*
X551151Y250499D01*
X552151D01*
X551151D01*
X550151Y249499D01*
Y248500D01*
X551151Y247500D01*
X553150D01*
X554150Y248500D01*
X547148Y230000D02*
Y235998D01*
X544149D01*
X543149Y234998D01*
Y232999D01*
X544149Y231999D01*
X547148D01*
X545149D02*
X543149Y230000D01*
X538151D02*
Y235998D01*
X541150Y232999D01*
X537151D01*
X679648Y103500D02*
Y109498D01*
X676649D01*
X675649Y108498D01*
Y106499D01*
X676649Y105499D01*
X679648D01*
X677649D02*
X675649Y103500D01*
X669651Y109498D02*
X671651Y108498D01*
X673650Y106499D01*
Y104500D01*
X672650Y103500D01*
X670651D01*
X669651Y104500D01*
Y105499D01*
X670651Y106499D01*
X673650D01*
X678648Y261500D02*
Y267498D01*
X675649D01*
X674649Y266498D01*
Y264499D01*
X675649Y263499D01*
X678648D01*
X676649D02*
X674649Y261500D01*
X672650Y267498D02*
X668651D01*
Y266498D01*
X672650Y262500D01*
Y261500D01*
X486068Y78920D02*
Y84918D01*
X483070D01*
X482070Y83918D01*
Y81919D01*
X483070Y80919D01*
X486068D01*
X484069D02*
X482070Y78920D01*
X480070Y83918D02*
X479071Y84918D01*
X477071D01*
X476072Y83918D01*
Y82918D01*
X477071Y81919D01*
X476072Y80919D01*
Y79919D01*
X477071Y78920D01*
X479071D01*
X480070Y79919D01*
Y80919D01*
X479071Y81919D01*
X480070Y82918D01*
Y83918D01*
X479071Y81919D02*
X477071D01*
X526648Y63000D02*
Y68998D01*
X523649D01*
X522649Y67998D01*
Y65999D01*
X523649Y64999D01*
X526648D01*
X524649D02*
X522649Y63000D01*
X520650Y64000D02*
X519650Y63000D01*
X517651D01*
X516651Y64000D01*
Y67998D01*
X517651Y68998D01*
X519650D01*
X520650Y67998D01*
Y66999D01*
X519650Y65999D01*
X516651D01*
X471148Y288000D02*
Y293998D01*
X468149D01*
X467149Y292998D01*
Y290999D01*
X468149Y289999D01*
X471148D01*
X469149D02*
X467149Y288000D01*
X465150D02*
X463151D01*
X464150D01*
Y293998D01*
X465150Y292998D01*
X460152D02*
X459152Y293998D01*
X457153D01*
X456153Y292998D01*
Y289000D01*
X457153Y288000D01*
X459152D01*
X460152Y289000D01*
Y292998D01*
X517648Y278500D02*
Y284498D01*
X514649D01*
X513649Y283498D01*
Y281499D01*
X514649Y280499D01*
X517648D01*
X515649D02*
X513649Y278500D01*
X511650D02*
X509651D01*
X510650D01*
Y284498D01*
X511650Y283498D01*
X506652Y278500D02*
X504652D01*
X505652D01*
Y284498D01*
X506652Y283498D01*
X510149Y97998D02*
X511149Y98998D01*
X513148D01*
X514148Y97998D01*
Y96999D01*
X513148Y95999D01*
X511149D01*
X510149Y94999D01*
Y94000D01*
X511149Y93000D01*
X513148D01*
X514148Y94000D01*
X508150Y93000D02*
X506151D01*
X507150D01*
Y98998D01*
X508150Y97998D01*
X481570Y297718D02*
X482570Y298718D01*
X484569D01*
X485569Y297718D01*
Y296718D01*
X484569Y295719D01*
X482570D01*
X481570Y294719D01*
Y293719D01*
X482570Y292720D01*
X484569D01*
X485569Y293719D01*
X475572Y292720D02*
X479570D01*
X475572Y296718D01*
Y297718D01*
X476571Y298718D01*
X478571D01*
X479570Y297718D01*
X519150Y26500D02*
X524148D01*
X525148Y25500D01*
Y23501D01*
X524148Y22501D01*
X519150D01*
X525148Y20502D02*
X521149D01*
X519150Y18503D01*
X521149Y16503D01*
X525148D01*
X522149D01*
Y20502D01*
X525148Y14504D02*
X519150D01*
Y11505D01*
X520150Y10505D01*
X522149D01*
X523149Y11505D01*
Y14504D01*
Y12505D02*
X525148Y10505D01*
X519150Y8506D02*
Y4507D01*
Y6506D01*
X525148D01*
X403149Y131998D02*
X404149Y132998D01*
X406148D01*
X407148Y131998D01*
Y130999D01*
X406148Y129999D01*
X404149D01*
X403149Y128999D01*
Y128000D01*
X404149Y127000D01*
X406148D01*
X407148Y128000D01*
X401150Y131998D02*
X400150Y132998D01*
X398151D01*
X397151Y131998D01*
Y130999D01*
X398151Y129999D01*
X399151D01*
X398151D01*
X397151Y128999D01*
Y128000D01*
X398151Y127000D01*
X400150D01*
X401150Y128000D01*
X406568Y169418D02*
Y163420D01*
X403570D01*
X402570Y164419D01*
Y165419D01*
X403570Y166419D01*
X406568D01*
X403570D01*
X402570Y167418D01*
Y168418D01*
X403570Y169418D01*
X406568D01*
X400570D02*
X396572D01*
X398571D01*
Y163420D01*
X394572D02*
X392573D01*
X393573D01*
Y169418D01*
X394572Y168418D01*
X429370Y155018D02*
X430370Y156018D01*
X432369D01*
X433368Y155018D01*
Y151019D01*
X432369Y150020D01*
X430370D01*
X429370Y151019D01*
X427371Y150020D02*
X425371D01*
X426371D01*
Y156018D01*
X427371Y155018D01*
X418373Y156018D02*
X420373Y155018D01*
X422372Y153019D01*
Y151019D01*
X421372Y150020D01*
X419373D01*
X418373Y151019D01*
Y152019D01*
X419373Y153019D01*
X422372D01*
X470670Y118218D02*
X471669Y119218D01*
X473669D01*
X474669Y118218D01*
Y114219D01*
X473669Y113220D01*
X471669D01*
X470670Y114219D01*
X468671Y113220D02*
X466671D01*
X467671D01*
Y119218D01*
X468671Y118218D01*
X463672Y119218D02*
X459673D01*
Y118218D01*
X463672Y114219D01*
Y113220D01*
X459648Y68998D02*
Y64999D01*
X457649Y63000D01*
X455649Y64999D01*
Y68998D01*
X447652Y66999D02*
Y63000D01*
Y64999D01*
X446652Y65999D01*
X445653Y66999D01*
X444653D01*
X438655Y63000D02*
X440654D01*
X441654Y64000D01*
Y65999D01*
X440654Y66999D01*
X438655D01*
X437655Y65999D01*
Y64999D01*
X441654D01*
X433657Y61001D02*
X432657D01*
X431657Y62000D01*
Y66999D01*
X434656D01*
X435656Y65999D01*
Y64000D01*
X434656Y63000D01*
X431657D01*
G54D20*
X556443Y6035D02*
X530853D01*
Y72965D01*
X556443Y6035D02*
Y72965D01*
X530853D01*
X431148Y259000D02*
X408648D01*
Y174000D02*
Y259000D01*
X431148Y174000D02*
X408648D01*
X456719D02*
Y259000D01*
X557443Y363965D02*
X531853D01*
X557443Y297035D02*
Y363965D01*
X531853Y297035D02*
Y363965D01*
X557443Y297035D02*
X531853D01*
X486148Y255650D02*
X476148D01*
Y289350D01*
X486148D02*
X476148D01*
X486148Y255650D02*
Y289350D01*
X500648Y100350D02*
X490648D01*
X500648Y66650D02*
Y100350D01*
Y66650D02*
X490648D01*
Y100350D01*
X614648Y38000D02*
X611148D01*
X609148Y36000D02*
Y81000D01*
X654148Y36000D02*
X609148D01*
X654148Y81000D02*
X609148D01*
X654148Y36000D02*
Y81000D01*
X642148Y342500D02*
X638648D01*
X644148Y299500D02*
Y344500D01*
X599148D01*
X644148Y299500D02*
X599148D01*
Y344500D01*
X673648Y213000D02*
X628648D01*
Y168000D02*
Y213000D01*
X673648Y168000D02*
Y213000D01*
Y168000D02*
X628648D01*
X671648Y170000D02*
Y173500D01*
X521148Y164000D02*
X516148D01*
X521148Y162500D02*
Y164000D01*
X523148Y162500D02*
X521148D01*
Y200500D02*
Y202500D01*
X523148D02*
X521148D01*
X561148D02*
X559148D01*
X561148Y200500D02*
Y202500D01*
Y162500D02*
X559148D01*
X561148D02*
Y164500D01*
X394648Y35000D02*
Y51000D01*
X400648Y35000D02*
Y37000D01*
X418648Y35000D02*
X400648D01*
X418648D02*
Y37000D01*
X400648Y49000D02*
Y51000D01*
X418648D02*
X400648D01*
X418648Y49000D02*
Y51000D01*
X500148Y48500D02*
Y50500D01*
X482148D01*
Y48500D02*
Y50500D01*
X500148Y34500D02*
Y36500D01*
Y34500D02*
X482148D01*
Y36500D01*
X476148Y34500D02*
Y50500D01*
X395648Y6000D02*
Y22000D01*
X401648Y6000D02*
Y8000D01*
X419648Y6000D02*
X401648D01*
X419648D02*
Y8000D01*
X401648Y20000D02*
Y22000D01*
X419648D02*
X401648D01*
X419648Y20000D02*
Y22000D01*
X499648Y18500D02*
Y20500D01*
X481648D01*
Y18500D02*
Y20500D01*
X499648Y4500D02*
Y6500D01*
Y4500D02*
X481648D01*
Y6500D01*
X475648Y4500D02*
Y20500D01*
X394148Y340000D02*
Y356000D01*
X400148Y340000D02*
Y342000D01*
X418148Y340000D02*
X400148D01*
X418148D02*
Y342000D01*
X400148Y354000D02*
Y356000D01*
X418148D02*
X400148D01*
X418148Y354000D02*
Y356000D01*
X503648Y356500D02*
Y358500D01*
X485648D01*
Y356500D02*
Y358500D01*
X503648Y342500D02*
Y344500D01*
Y342500D02*
X485648D01*
Y344500D01*
X479648Y342500D02*
Y358500D01*
X394148Y311000D02*
Y327000D01*
X400148Y311000D02*
Y313000D01*
X418148Y311000D02*
X400148D01*
X418148D02*
Y313000D01*
X400148Y325000D02*
Y327000D01*
X418148D02*
X400148D01*
X418148Y325000D02*
Y327000D01*
X503148Y327500D02*
Y329500D01*
X485148D01*
Y327500D02*
Y329500D01*
X503148Y313500D02*
Y315500D01*
Y313500D02*
X485148D01*
Y315500D01*
X479148Y313500D02*
Y329500D01*
X407148Y122350D02*
X397148D01*
X407148Y88650D02*
Y122350D01*
Y88650D02*
X397148D01*
Y122350D01*
X407148Y160000D02*
X397148D01*
Y140000D02*
Y160000D01*
X407148Y140000D02*
X397148D01*
X407148D02*
Y160000D01*
X696148Y118110D02*
X578038D01*
X696148Y259842D02*
X578038D01*
X511109Y0D02*
Y118110D01*
Y259842D02*
Y370079D01*
X696148Y0D02*
X381187D01*
Y370079D01*
X696148Y0D02*
Y370079D01*
X381187D01*
G54D21*
X673648Y324000D02*
D03*
X652648Y139000D02*
D03*
X579648Y55500D02*
D03*
X450648Y23500D02*
D03*
X454148Y336500D02*
D03*
G54D22*
X415648Y133000D02*
D03*
X657648Y222346D02*
D03*
X635648Y221500D02*
D03*
X646648Y160500D02*
D03*
X680148Y191000D02*
D03*
X578648Y179500D02*
D03*
X505648Y178000D02*
D03*
X491648Y279500D02*
D03*
X508648Y77000D02*
D03*
X403648Y240000D02*
D03*
X468148Y214000D02*
D03*
X666148Y62500D02*
D03*
X587648Y317500D02*
D03*
X618148Y135000D02*
D03*
X472148Y104500D02*
D03*
G54D23*
X421146Y216504D02*
D03*
G54D24*
X631648Y58500D02*
D03*
X621648Y322000D02*
D03*
G54D25*
X651148Y190500D02*
D03*
G54D26*
X591148Y327000D02*
D03*
X662648Y53000D02*
D03*
X591148Y306500D02*
D03*
X665148Y73500D02*
D03*
X651648Y317500D02*
D03*
X601648Y62000D02*
D03*
X620648Y349000D02*
D03*
X630648Y30000D02*
D03*
X559148Y226500D02*
D03*
X541648Y144500D02*
D03*
X537648Y219500D02*
D03*
X648148Y225847D02*
D03*
X577648Y92500D02*
D03*
X677148Y289500D02*
D03*
X428648Y143500D02*
D03*
G54D27*
X617148Y289000D02*
D03*
X635648Y91500D02*
D03*
X620648Y207000D02*
D03*
X575648Y306500D02*
D03*
X679648Y73500D02*
D03*
X628648Y139000D02*
D03*
X468148Y282500D02*
D03*
X481148Y73500D02*
D03*
X677648Y256500D02*
D03*
X678105Y115000D02*
D03*
G54D28*
X616148Y197000D02*
D03*
X605648Y292500D02*
D03*
X646648Y88000D02*
D03*
X635648Y235500D02*
D03*
X673648Y301500D02*
D03*
X581148Y81500D02*
D03*
X499648Y279500D02*
D03*
X517648Y77000D02*
D03*
X548148Y223000D02*
D03*
X555648Y239500D02*
D03*
X688148Y260000D02*
D03*
X689605Y118500D02*
D03*
G54D29*
X541148Y182500D02*
D03*
G54D30*
X409648Y43000D02*
D03*
X491148Y42500D02*
D03*
X410648Y14000D02*
D03*
X490648Y12500D02*
D03*
X409148Y348000D02*
D03*
X494648Y350500D02*
D03*
X409148Y319000D02*
D03*
X494148Y321500D02*
D03*
G54D31*
X442148Y91508D02*
D03*
G54D39*
X480652Y253756D02*
X481390Y253330D01*
Y254182D01*
X480652Y253756D01*
X495160Y102244D02*
X495898Y101818D01*
Y102670D01*
X495160Y102244D01*
X401660Y124244D02*
X402398Y123818D01*
Y124670D01*
X401660Y124244D01*
X683148Y7000D02*
Y12248D01*
X680524Y14872D01*
X677900Y12248D01*
Y7000D01*
Y10936D01*
X683148D01*
X675277Y12248D02*
Y8312D01*
X673965Y7000D01*
X670029D01*
Y12248D01*
X666093Y13560D02*
Y12248D01*
X667405D01*
X664781D01*
X666093D01*
Y8312D01*
X664781Y7000D01*
X659534D02*
X656910D01*
X655598Y8312D01*
Y10936D01*
X656910Y12248D01*
X659534D01*
X660846Y10936D01*
Y8312D01*
X659534Y7000D01*
X652974Y14872D02*
Y7000D01*
X649038D01*
X647726Y8312D01*
Y9624D01*
Y10936D01*
X649038Y12248D01*
X652974D01*
X643791Y7000D02*
X641167D01*
X639855Y8312D01*
Y10936D01*
X641167Y12248D01*
X643791D01*
X645103Y10936D01*
Y8312D01*
X643791Y7000D01*
X635919Y13560D02*
Y12248D01*
X637231D01*
X634607D01*
X635919D01*
Y8312D01*
X634607Y7000D01*
G54D40*
X679680Y283960D02*
X680172Y284452D01*
X681156D01*
X681648Y283960D01*
Y281992D01*
X681156Y281500D01*
X680172D01*
X679680Y281992D01*
X676728Y281500D02*
X678696D01*
X676728Y283468D01*
Y283960D01*
X677220Y284452D01*
X678204D01*
X678696Y283960D01*
X675744Y281008D02*
X673777D01*
X672793Y281500D02*
Y284452D01*
X671809Y283468D01*
X670825Y284452D01*
Y281500D01*
X669841Y284452D02*
X668857D01*
X669349D01*
Y281500D01*
X669841D01*
X668857D01*
X665413Y283960D02*
X665905Y284452D01*
X666889D01*
X667381Y283960D01*
Y281992D01*
X666889Y281500D01*
X665905D01*
X665413Y281992D01*
X664429Y283960D02*
X663937Y284452D01*
X662953D01*
X662461Y283960D01*
Y283468D01*
X662953Y282976D01*
X663445D01*
X662953D01*
X662461Y282484D01*
Y281992D01*
X662953Y281500D01*
X663937D01*
X664429Y281992D01*
X612180Y131460D02*
X612672Y131952D01*
X613656D01*
X614148Y131460D01*
Y129492D01*
X613656Y129000D01*
X612672D01*
X612180Y129492D01*
X609228Y129000D02*
X611196D01*
X609228Y130968D01*
Y131460D01*
X609720Y131952D01*
X610704D01*
X611196Y131460D01*
X608245Y128508D02*
X606277D01*
X605293Y129000D02*
Y131952D01*
X604309Y130968D01*
X603325Y131952D01*
Y129000D01*
X602341Y131952D02*
X601357D01*
X601849D01*
Y129000D01*
X602341D01*
X601357D01*
X597913Y131460D02*
X598405Y131952D01*
X599389D01*
X599881Y131460D01*
Y129492D01*
X599389Y129000D01*
X598405D01*
X597913Y129492D01*
X594961Y129000D02*
X596929D01*
X594961Y130968D01*
Y131460D01*
X595453Y131952D01*
X596437D01*
X596929Y131460D01*
X560180Y92960D02*
X560672Y93452D01*
X561656D01*
X562148Y92960D01*
Y90992D01*
X561656Y90500D01*
X560672D01*
X560180Y90992D01*
X557228Y90500D02*
X559196D01*
X557228Y92468D01*
Y92960D01*
X557720Y93452D01*
X558704D01*
X559196Y92960D01*
X556245Y90008D02*
X554277D01*
X553293Y90500D02*
Y93452D01*
X552309Y92468D01*
X551325Y93452D01*
Y90500D01*
X550341Y93452D02*
X549357D01*
X549849D01*
Y90500D01*
X550341D01*
X549357D01*
X545913Y92960D02*
X546405Y93452D01*
X547389D01*
X547881Y92960D01*
Y90992D01*
X547389Y90500D01*
X546405D01*
X545913Y90992D01*
X544929Y90500D02*
X543945D01*
X544437D01*
Y93452D01*
X544929Y92960D01*
X580680Y321460D02*
X581172Y321952D01*
X582156D01*
X582648Y321460D01*
Y319492D01*
X582156Y319000D01*
X581172D01*
X580680Y319492D01*
X579696Y319000D02*
X578712D01*
X579204D01*
Y321952D01*
X579696Y321460D01*
X577236D02*
X576745Y321952D01*
X575761D01*
X575269Y321460D01*
Y320968D01*
X575761Y320476D01*
X575269Y319984D01*
Y319492D01*
X575761Y319000D01*
X576745D01*
X577236Y319492D01*
Y319984D01*
X576745Y320476D01*
X577236Y320968D01*
Y321460D01*
X576745Y320476D02*
X575761D01*
X574285Y318508D02*
X572317D01*
X571333Y319000D02*
Y321952D01*
X570349Y320968D01*
X569365Y321952D01*
Y319000D01*
X568381Y321952D02*
X567397D01*
X567889D01*
Y319000D01*
X568381D01*
X567397D01*
X563953Y321460D02*
X564445Y321952D01*
X565429D01*
X565921Y321460D01*
Y319492D01*
X565429Y319000D01*
X564445D01*
X563953Y319492D01*
X562969Y321460D02*
X562477Y321952D01*
X561493D01*
X561001Y321460D01*
Y320968D01*
X561493Y320476D01*
X561985D01*
X561493D01*
X561001Y319984D01*
Y319492D01*
X561493Y319000D01*
X562477D01*
X562969Y319492D01*
X650608Y233468D02*
X651100Y232976D01*
Y231992D01*
X650608Y231500D01*
X648640D01*
X648148Y231992D01*
Y232976D01*
X648640Y233468D01*
X648148Y234452D02*
Y235436D01*
Y234944D01*
X651100D01*
X650608Y234452D01*
Y236912D02*
X651100Y237404D01*
Y238388D01*
X650608Y238879D01*
X650116D01*
X649624Y238388D01*
X649132Y238879D01*
X648640D01*
X648148Y238388D01*
Y237404D01*
X648640Y236912D01*
X649132D01*
X649624Y237404D01*
X650116Y236912D01*
X650608D01*
X649624Y237404D02*
Y238388D01*
X647656Y239863D02*
Y241831D01*
X648148Y242815D02*
X651100D01*
X650116Y243799D01*
X651100Y244783D01*
X648148D01*
X651100Y245767D02*
Y246751D01*
Y246259D01*
X648148D01*
Y245767D01*
Y246751D01*
X650608Y250195D02*
X651100Y249703D01*
Y248719D01*
X650608Y248227D01*
X648640D01*
X648148Y248719D01*
Y249703D01*
X648640Y250195D01*
X648148Y253147D02*
Y251179D01*
X650116Y253147D01*
X650608D01*
X651100Y252655D01*
Y251671D01*
X650608Y251179D01*
X677608Y49468D02*
X678100Y48976D01*
Y47992D01*
X677608Y47500D01*
X675640D01*
X675148Y47992D01*
Y48976D01*
X675640Y49468D01*
X675148Y50452D02*
Y51436D01*
Y50944D01*
X678100D01*
X677608Y50452D01*
Y52912D02*
X678100Y53404D01*
Y54387D01*
X677608Y54879D01*
X677116D01*
X676624Y54387D01*
X676132Y54879D01*
X675640D01*
X675148Y54387D01*
Y53404D01*
X675640Y52912D01*
X676132D01*
X676624Y53404D01*
X677116Y52912D01*
X677608D01*
X676624Y53404D02*
Y54387D01*
X674656Y55863D02*
Y57831D01*
X675148Y58815D02*
X678100D01*
X677116Y59799D01*
X678100Y60783D01*
X675148D01*
X678100Y61767D02*
Y62751D01*
Y62259D01*
X675148D01*
Y61767D01*
Y62751D01*
X677608Y66195D02*
X678100Y65703D01*
Y64719D01*
X677608Y64227D01*
X675640D01*
X675148Y64719D01*
Y65703D01*
X675640Y66195D01*
X675148Y67179D02*
Y68163D01*
Y67671D01*
X678100D01*
X677608Y67179D01*
X665648Y28000D02*
Y29968D01*
X664664Y30952D01*
X663680Y29968D01*
Y28000D01*
Y29476D01*
X665648D01*
X662696Y28000D02*
Y30952D01*
X661712Y29968D01*
X660728Y30952D01*
Y28000D01*
X659745D02*
Y30952D01*
X658269D01*
X657777Y30460D01*
Y29476D01*
X658269Y28984D01*
X659745D01*
X656793Y27508D02*
X654825D01*
X653841Y28000D02*
Y30952D01*
X652857Y29968D01*
X651873Y30952D01*
Y28000D01*
X650889Y30952D02*
X649905D01*
X650397D01*
Y28000D01*
X650889D01*
X649905D01*
X646461Y30460D02*
X646953Y30952D01*
X647937D01*
X648429Y30460D01*
Y28492D01*
X647937Y28000D01*
X646953D01*
X646461Y28492D01*
X645477Y28000D02*
X644493D01*
X644985D01*
Y30952D01*
X645477Y30460D01*
X685148Y216500D02*
Y218468D01*
X684164Y219452D01*
X683180Y218468D01*
Y216500D01*
Y217976D01*
X685148D01*
X682196Y216500D02*
Y219452D01*
X681212Y218468D01*
X680228Y219452D01*
Y216500D01*
X679245D02*
Y219452D01*
X677769D01*
X677277Y218960D01*
Y217976D01*
X677769Y217484D01*
X679245D01*
X676293Y216008D02*
X674325D01*
X673341Y216500D02*
Y219452D01*
X672357Y218468D01*
X671373Y219452D01*
Y216500D01*
X670389Y219452D02*
X669405D01*
X669897D01*
Y216500D01*
X670389D01*
X669405D01*
X665961Y218960D02*
X666453Y219452D01*
X667437D01*
X667929Y218960D01*
Y216992D01*
X667437Y216500D01*
X666453D01*
X665961Y216992D01*
X663010Y216500D02*
X664977D01*
X663010Y218468D01*
Y218960D01*
X663502Y219452D01*
X664485D01*
X664977Y218960D01*
X651648Y348500D02*
Y350468D01*
X650664Y351452D01*
X649680Y350468D01*
Y348500D01*
Y349976D01*
X651648D01*
X648696Y348500D02*
Y351452D01*
X647712Y350468D01*
X646728Y351452D01*
Y348500D01*
X645745D02*
Y351452D01*
X644269D01*
X643777Y350960D01*
Y349976D01*
X644269Y349484D01*
X645745D01*
X642793Y348008D02*
X640825D01*
X639841Y348500D02*
Y351452D01*
X638857Y350468D01*
X637873Y351452D01*
Y348500D01*
X636889Y351452D02*
X635905D01*
X636397D01*
Y348500D01*
X636889D01*
X635905D01*
X632461Y350960D02*
X632953Y351452D01*
X633937D01*
X634429Y350960D01*
Y348992D01*
X633937Y348500D01*
X632953D01*
X632461Y348992D01*
X631477Y350960D02*
X630985Y351452D01*
X630001D01*
X629509Y350960D01*
Y350468D01*
X630001Y349976D01*
X630493D01*
X630001D01*
X629509Y349484D01*
Y348992D01*
X630001Y348500D01*
X630985D01*
X631477Y348992D01*
X634680Y24960D02*
X635172Y25452D01*
X636156D01*
X636648Y24960D01*
Y22992D01*
X636156Y22500D01*
X635172D01*
X634680Y22992D01*
X633696Y22500D02*
X632712D01*
X633204D01*
Y25452D01*
X633696Y24960D01*
X631236Y22008D02*
X629269D01*
X628285Y22500D02*
Y25452D01*
X627301Y24468D01*
X626317Y25452D01*
Y22500D01*
X625333Y25452D02*
X624349D01*
X624841D01*
Y22500D01*
X625333D01*
X624349D01*
X620905Y24960D02*
X621397Y25452D01*
X622381D01*
X622873Y24960D01*
Y22992D01*
X622381Y22500D01*
X621397D01*
X620905Y22992D01*
X619921Y22500D02*
X618937D01*
X619429D01*
Y25452D01*
X619921Y24960D01*
X689688Y210032D02*
X689196Y210524D01*
Y211508D01*
X689688Y212000D01*
X691656D01*
X692148Y211508D01*
Y210524D01*
X691656Y210032D01*
X692148Y209048D02*
Y208064D01*
Y208556D01*
X689196D01*
X689688Y209048D01*
X692640Y206588D02*
Y204621D01*
X692148Y203637D02*
X689196D01*
X690180Y202653D01*
X689196Y201669D01*
X692148D01*
X689196Y200685D02*
Y199701D01*
Y200193D01*
X692148D01*
Y200685D01*
Y199701D01*
X689688Y196257D02*
X689196Y196749D01*
Y197733D01*
X689688Y198225D01*
X691656D01*
X692148Y197733D01*
Y196749D01*
X691656Y196257D01*
X692148Y193305D02*
Y195273D01*
X690180Y193305D01*
X689688D01*
X689196Y193797D01*
Y194781D01*
X689688Y195273D01*
X623901Y356980D02*
X624393Y357471D01*
X625377D01*
X625869Y356980D01*
Y355012D01*
X625377Y354520D01*
X624393D01*
X623901Y355012D01*
X622917Y354520D02*
X621933D01*
X622425D01*
Y357471D01*
X622917Y356980D01*
X620457Y354028D02*
X618489D01*
X617505Y354520D02*
Y357471D01*
X616521Y356488D01*
X615537Y357471D01*
Y354520D01*
X614553Y357471D02*
X613569D01*
X614061D01*
Y354520D01*
X614553D01*
X613569D01*
X610125Y356980D02*
X610617Y357471D01*
X611601D01*
X612093Y356980D01*
Y355012D01*
X611601Y354520D01*
X610617D01*
X610125Y355012D01*
X609142Y356980D02*
X608650Y357471D01*
X607666D01*
X607174Y356980D01*
Y356488D01*
X607666Y355996D01*
X608158D01*
X607666D01*
X607174Y355504D01*
Y355012D01*
X607666Y354520D01*
X608650D01*
X609142Y355012D01*
X602608Y69968D02*
X603100Y69476D01*
Y68492D01*
X602608Y68000D01*
X600640D01*
X600148Y68492D01*
Y69476D01*
X600640Y69968D01*
X602608Y70952D02*
X603100Y71444D01*
Y72428D01*
X602608Y72920D01*
X602116D01*
X601624Y72428D01*
Y71936D01*
Y72428D01*
X601132Y72920D01*
X600640D01*
X600148Y72428D01*
Y71444D01*
X600640Y70952D01*
X599656Y73904D02*
Y75871D01*
X600148Y76855D02*
X603100D01*
X602116Y77839D01*
X603100Y78823D01*
X600148D01*
X603100Y79807D02*
Y80791D01*
Y80299D01*
X600148D01*
Y79807D01*
Y80791D01*
X602608Y84235D02*
X603100Y83743D01*
Y82759D01*
X602608Y82267D01*
X600640D01*
X600148Y82759D01*
Y83743D01*
X600640Y84235D01*
X600148Y85219D02*
Y86203D01*
Y85711D01*
X603100D01*
X602608Y85219D01*
X638680Y162460D02*
X639172Y162952D01*
X640156D01*
X640648Y162460D01*
Y160492D01*
X640156Y160000D01*
X639172D01*
X638680Y160492D01*
X637696Y162460D02*
X637204Y162952D01*
X636220D01*
X635728Y162460D01*
Y161968D01*
X636220Y161476D01*
X636712D01*
X636220D01*
X635728Y160984D01*
Y160492D01*
X636220Y160000D01*
X637204D01*
X637696Y160492D01*
X634745Y159508D02*
X632777D01*
X631793Y160000D02*
Y162952D01*
X630809Y161968D01*
X629825Y162952D01*
Y160000D01*
X628841Y162952D02*
X627857D01*
X628349D01*
Y160000D01*
X628841D01*
X627857D01*
X624413Y162460D02*
X624905Y162952D01*
X625889D01*
X626381Y162460D01*
Y160492D01*
X625889Y160000D01*
X624905D01*
X624413Y160492D01*
X621461Y160000D02*
X623429D01*
X621461Y161968D01*
Y162460D01*
X621953Y162952D01*
X622937D01*
X623429Y162460D01*
X653608Y324468D02*
X654100Y323976D01*
Y322992D01*
X653608Y322500D01*
X651640D01*
X651148Y322992D01*
Y323976D01*
X651640Y324468D01*
X653608Y325452D02*
X654100Y325944D01*
Y326928D01*
X653608Y327420D01*
X653116D01*
X652624Y326928D01*
Y326436D01*
Y326928D01*
X652132Y327420D01*
X651640D01*
X651148Y326928D01*
Y325944D01*
X651640Y325452D01*
X650656Y328404D02*
Y330371D01*
X651148Y331355D02*
X654100D01*
X653116Y332339D01*
X654100Y333323D01*
X651148D01*
X654100Y334307D02*
Y335291D01*
Y334799D01*
X651148D01*
Y334307D01*
Y335291D01*
X653608Y338735D02*
X654100Y338243D01*
Y337259D01*
X653608Y336767D01*
X651640D01*
X651148Y337259D01*
Y338243D01*
X651640Y338735D01*
X653608Y339719D02*
X654100Y340211D01*
Y341195D01*
X653608Y341687D01*
X653116D01*
X652624Y341195D01*
Y340703D01*
Y341195D01*
X652132Y341687D01*
X651640D01*
X651148Y341195D01*
Y340211D01*
X651640Y339719D01*
X668608Y80468D02*
X669100Y79976D01*
Y78992D01*
X668608Y78500D01*
X666640D01*
X666148Y78992D01*
Y79976D01*
X666640Y80468D01*
X666148Y82928D02*
X669100D01*
X667624Y81452D01*
Y83420D01*
X665656Y84404D02*
Y86371D01*
X666148Y87355D02*
X669100D01*
X668116Y88339D01*
X669100Y89323D01*
X666148D01*
X669100Y90307D02*
Y91291D01*
Y90799D01*
X666148D01*
Y90307D01*
Y91291D01*
X668608Y94735D02*
X669100Y94243D01*
Y93259D01*
X668608Y92767D01*
X666640D01*
X666148Y93259D01*
Y94243D01*
X666640Y94735D01*
X666148Y95719D02*
Y96703D01*
Y96211D01*
X669100D01*
X668608Y95719D01*
X627680Y222460D02*
X628172Y222952D01*
X629156D01*
X629648Y222460D01*
Y220492D01*
X629156Y220000D01*
X628172D01*
X627680Y220492D01*
X625220Y220000D02*
Y222952D01*
X626696Y221476D01*
X624728D01*
X623744Y219508D02*
X621777D01*
X620793Y220000D02*
Y222952D01*
X619809Y221968D01*
X618825Y222952D01*
Y220000D01*
X617841Y222952D02*
X616857D01*
X617349D01*
Y220000D01*
X617841D01*
X616857D01*
X613413Y222460D02*
X613905Y222952D01*
X614889D01*
X615381Y222460D01*
Y220492D01*
X614889Y220000D01*
X613905D01*
X613413Y220492D01*
X610461Y220000D02*
X612429D01*
X610461Y221968D01*
Y222460D01*
X610953Y222952D01*
X611937D01*
X612429Y222460D01*
X594680Y300460D02*
X595172Y300952D01*
X596156D01*
X596648Y300460D01*
Y298492D01*
X596156Y298000D01*
X595172D01*
X594680Y298492D01*
X592220Y298000D02*
Y300952D01*
X593696Y299476D01*
X591728D01*
X590744Y297508D02*
X588777D01*
X587793Y298000D02*
Y300952D01*
X586809Y299968D01*
X585825Y300952D01*
Y298000D01*
X584841Y300952D02*
X583857D01*
X584349D01*
Y298000D01*
X584841D01*
X583857D01*
X580413Y300460D02*
X580905Y300952D01*
X581889D01*
X582381Y300460D01*
Y298492D01*
X581889Y298000D01*
X580905D01*
X580413Y298492D01*
X579429Y300460D02*
X578937Y300952D01*
X577953D01*
X577461Y300460D01*
Y299968D01*
X577953Y299476D01*
X578445D01*
X577953D01*
X577461Y298984D01*
Y298492D01*
X577953Y298000D01*
X578937D01*
X579429Y298492D01*
X673180Y44960D02*
X673672Y45452D01*
X674656D01*
X675148Y44960D01*
Y42992D01*
X674656Y42500D01*
X673672D01*
X673180Y42992D01*
X670228Y45452D02*
X672196D01*
Y43976D01*
X671212Y44468D01*
X670720D01*
X670228Y43976D01*
Y42992D01*
X670720Y42500D01*
X671704D01*
X672196Y42992D01*
X669244Y42008D02*
X667277D01*
X666293Y42500D02*
Y45452D01*
X665309Y44468D01*
X664325Y45452D01*
Y42500D01*
X663341Y45452D02*
X662357D01*
X662849D01*
Y42500D01*
X663341D01*
X662357D01*
X658913Y44960D02*
X659405Y45452D01*
X660389D01*
X660881Y44960D01*
Y42992D01*
X660389Y42500D01*
X659405D01*
X658913Y42992D01*
X657929Y42500D02*
X656945D01*
X657437D01*
Y45452D01*
X657929Y44960D01*
X680180Y229460D02*
X680672Y229952D01*
X681656D01*
X682148Y229460D01*
Y227492D01*
X681656Y227000D01*
X680672D01*
X680180Y227492D01*
X677228Y229952D02*
X679196D01*
Y228476D01*
X678212Y228968D01*
X677720D01*
X677228Y228476D01*
Y227492D01*
X677720Y227000D01*
X678704D01*
X679196Y227492D01*
X676244Y226508D02*
X674277D01*
X673293Y227000D02*
Y229952D01*
X672309Y228968D01*
X671325Y229952D01*
Y227000D01*
X670341Y229952D02*
X669357D01*
X669849D01*
Y227000D01*
X670341D01*
X669357D01*
X665913Y229460D02*
X666405Y229952D01*
X667389D01*
X667881Y229460D01*
Y227492D01*
X667389Y227000D01*
X666405D01*
X665913Y227492D01*
X662961Y227000D02*
X664929D01*
X662961Y228968D01*
Y229460D01*
X663453Y229952D01*
X664437D01*
X664929Y229460D01*
X594401Y334980D02*
X594893Y335472D01*
X595877D01*
X596369Y334980D01*
Y333012D01*
X595877Y332520D01*
X594893D01*
X594401Y333012D01*
X591449Y335472D02*
X593417D01*
Y333996D01*
X592433Y334488D01*
X591941D01*
X591449Y333996D01*
Y333012D01*
X591941Y332520D01*
X592925D01*
X593417Y333012D01*
X590465Y332028D02*
X588497D01*
X587513Y332520D02*
Y335472D01*
X586529Y334488D01*
X585545Y335472D01*
Y332520D01*
X584561Y335472D02*
X583577D01*
X584069D01*
Y332520D01*
X584561D01*
X583577D01*
X580134Y334980D02*
X580625Y335472D01*
X581609D01*
X582101Y334980D01*
Y333012D01*
X581609Y332520D01*
X580625D01*
X580134Y333012D01*
X579150Y334980D02*
X578658Y335472D01*
X577674D01*
X577182Y334980D01*
Y334488D01*
X577674Y333996D01*
X578166D01*
X577674D01*
X577182Y333504D01*
Y333012D01*
X577674Y332520D01*
X578658D01*
X579150Y333012D01*
X575648Y81000D02*
Y83952D01*
X574172D01*
X573680Y83460D01*
Y82476D01*
X574172Y81984D01*
X575648D01*
X574664D02*
X573680Y81000D01*
X572696D02*
X571712D01*
X572204D01*
Y83952D01*
X572696Y83460D01*
X570236Y80508D02*
X568269D01*
X567285Y81000D02*
Y83952D01*
X566301Y82968D01*
X565317Y83952D01*
Y81000D01*
X564333Y83952D02*
X563349D01*
X563841D01*
Y81000D01*
X564333D01*
X563349D01*
X559905Y83460D02*
X560397Y83952D01*
X561381D01*
X561873Y83460D01*
Y81492D01*
X561381Y81000D01*
X560397D01*
X559905Y81492D01*
X558921Y81000D02*
X557937D01*
X558429D01*
Y83952D01*
X558921Y83460D01*
X634068Y144320D02*
Y147272D01*
X632593D01*
X632101Y146780D01*
Y145796D01*
X632593Y145304D01*
X634068D01*
X633085D02*
X632101Y144320D01*
X631117D02*
X630133D01*
X630625D01*
Y147272D01*
X631117Y146780D01*
X628657Y143828D02*
X626689D01*
X625705Y144320D02*
Y147272D01*
X624721Y146288D01*
X623737Y147272D01*
Y144320D01*
X622753Y147272D02*
X621769D01*
X622261D01*
Y144320D01*
X622753D01*
X621769D01*
X618326Y146780D02*
X618818Y147272D01*
X619801D01*
X620293Y146780D01*
Y144812D01*
X619801Y144320D01*
X618818D01*
X618326Y144812D01*
X615374Y144320D02*
X617342D01*
X615374Y146288D01*
Y146780D01*
X615866Y147272D01*
X616850D01*
X617342Y146780D01*
X668148Y300500D02*
Y303452D01*
X666672D01*
X666180Y302960D01*
Y301976D01*
X666672Y301484D01*
X668148D01*
X667164D02*
X666180Y300500D01*
X665196D02*
X664212D01*
X664704D01*
Y303452D01*
X665196Y302960D01*
X662736Y300008D02*
X660769D01*
X659785Y300500D02*
Y303452D01*
X658801Y302468D01*
X657817Y303452D01*
Y300500D01*
X656833Y303452D02*
X655849D01*
X656341D01*
Y300500D01*
X656833D01*
X655849D01*
X652405Y302960D02*
X652897Y303452D01*
X653881D01*
X654373Y302960D01*
Y300992D01*
X653881Y300500D01*
X652897D01*
X652405Y300992D01*
X651421Y302960D02*
X650929Y303452D01*
X649945D01*
X649453Y302960D01*
Y302468D01*
X649945Y301976D01*
X650437D01*
X649945D01*
X649453Y301484D01*
Y300992D01*
X649945Y300500D01*
X650929D01*
X651421Y300992D01*
X691648Y78500D02*
Y81452D01*
X690172D01*
X689680Y80960D01*
Y79976D01*
X690172Y79484D01*
X691648D01*
X690664D02*
X689680Y78500D01*
X686728D02*
X688696D01*
X686728Y80468D01*
Y80960D01*
X687220Y81452D01*
X688204D01*
X688696Y80960D01*
X685744Y78008D02*
X683777D01*
X682793Y78500D02*
Y81452D01*
X681809Y80468D01*
X680825Y81452D01*
Y78500D01*
X679841Y81452D02*
X678857D01*
X679349D01*
Y78500D01*
X679841D01*
X678857D01*
X675413Y80960D02*
X675905Y81452D01*
X676889D01*
X677381Y80960D01*
Y78992D01*
X676889Y78500D01*
X675905D01*
X675413Y78992D01*
X674429Y78500D02*
X673445D01*
X673937D01*
Y81452D01*
X674429Y80960D01*
X580648Y312000D02*
Y314952D01*
X579172D01*
X578680Y314460D01*
Y313476D01*
X579172Y312984D01*
X580648D01*
X579664D02*
X578680Y312000D01*
X575728D02*
X577696D01*
X575728Y313968D01*
Y314460D01*
X576220Y314952D01*
X577204D01*
X577696Y314460D01*
X574745Y311508D02*
X572777D01*
X571793Y312000D02*
Y314952D01*
X570809Y313968D01*
X569825Y314952D01*
Y312000D01*
X568841Y314952D02*
X567857D01*
X568349D01*
Y312000D01*
X568841D01*
X567857D01*
X564413Y314460D02*
X564905Y314952D01*
X565889D01*
X566381Y314460D01*
Y312492D01*
X565889Y312000D01*
X564905D01*
X564413Y312492D01*
X563429Y314460D02*
X562937Y314952D01*
X561953D01*
X561461Y314460D01*
Y313968D01*
X561953Y313476D01*
X562445D01*
X561953D01*
X561461Y312984D01*
Y312492D01*
X561953Y312000D01*
X562937D01*
X563429Y312492D01*
X589648Y35500D02*
Y38452D01*
X588664Y37468D01*
X587680Y38452D01*
Y35500D01*
X586696Y38452D02*
Y35500D01*
Y36484D01*
X584728Y38452D01*
X586204Y36976D01*
X584728Y35500D01*
X583744D02*
X582760D01*
X583252D01*
Y38452D01*
X583744Y37960D01*
X581285Y35008D02*
X579317D01*
X578333Y35500D02*
Y38452D01*
X577349Y37468D01*
X576365Y38452D01*
Y35500D01*
X575381Y38452D02*
X574397D01*
X574889D01*
Y35500D01*
X575381D01*
X574397D01*
X570953Y37960D02*
X571445Y38452D01*
X572429D01*
X572921Y37960D01*
Y35992D01*
X572429Y35500D01*
X571445D01*
X570953Y35992D01*
X569969Y35500D02*
X568985D01*
X569477D01*
Y38452D01*
X569969Y37960D01*
X679648Y155000D02*
Y157952D01*
X678664Y156968D01*
X677680Y157952D01*
Y155000D01*
X676696Y157952D02*
Y155000D01*
Y155984D01*
X674728Y157952D01*
X676204Y156476D01*
X674728Y155000D01*
X673744D02*
X672760D01*
X673252D01*
Y157952D01*
X673744Y157460D01*
X671285Y154508D02*
X669317D01*
X668333Y155000D02*
Y157952D01*
X667349Y156968D01*
X666365Y157952D01*
Y155000D01*
X665381Y157952D02*
X664397D01*
X664889D01*
Y155000D01*
X665381D01*
X664397D01*
X660953Y157460D02*
X661445Y157952D01*
X662429D01*
X662921Y157460D01*
Y155492D01*
X662429Y155000D01*
X661445D01*
X660953Y155492D01*
X658002Y155000D02*
X659969D01*
X658002Y156968D01*
Y157460D01*
X658494Y157952D01*
X659477D01*
X659969Y157460D01*
X686369Y340820D02*
Y343772D01*
X685385Y342788D01*
X684401Y343772D01*
Y340820D01*
X683417Y343772D02*
Y340820D01*
Y341804D01*
X681449Y343772D01*
X682925Y342296D01*
X681449Y340820D01*
X680465D02*
X679481D01*
X679973D01*
Y343772D01*
X680465Y343280D01*
X678005Y340328D02*
X676037D01*
X675053Y340820D02*
Y343772D01*
X674069Y342788D01*
X673085Y343772D01*
Y340820D01*
X672101Y343772D02*
X671117D01*
X671609D01*
Y340820D01*
X672101D01*
X671117D01*
X667674Y343280D02*
X668166Y343772D01*
X669150D01*
X669642Y343280D01*
Y341312D01*
X669150Y340820D01*
X668166D01*
X667674Y341312D01*
X666690Y343280D02*
X666198Y343772D01*
X665214D01*
X664722Y343280D01*
Y342788D01*
X665214Y342296D01*
X665706D01*
X665214D01*
X664722Y341804D01*
Y341312D01*
X665214Y340820D01*
X666198D01*
X666690Y341312D01*
X644148Y243000D02*
Y245952D01*
X642672D01*
X642180Y245460D01*
Y244476D01*
X642672Y243984D01*
X644148D01*
X643164D02*
X642180Y243000D01*
X639228D02*
X641196D01*
X639228Y244968D01*
Y245460D01*
X639720Y245952D01*
X640704D01*
X641196Y245460D01*
X638244Y242508D02*
X636277D01*
X635293Y243000D02*
Y245952D01*
X634309Y244968D01*
X633325Y245952D01*
Y243000D01*
X632341Y245952D02*
X631357D01*
X631849D01*
Y243000D01*
X632341D01*
X631357D01*
X627913Y245460D02*
X628405Y245952D01*
X629389D01*
X629881Y245460D01*
Y243492D01*
X629389Y243000D01*
X628405D01*
X627913Y243492D01*
X624961Y243000D02*
X626929D01*
X624961Y244968D01*
Y245460D01*
X625453Y245952D01*
X626437D01*
X626929Y245460D01*
X663148Y96000D02*
Y98952D01*
X661672D01*
X661180Y98460D01*
Y97476D01*
X661672Y96984D01*
X663148D01*
X662164D02*
X661180Y96000D01*
X658228Y98952D02*
X660196D01*
Y97476D01*
X659212Y97968D01*
X658720D01*
X658228Y97476D01*
Y96492D01*
X658720Y96000D01*
X659704D01*
X660196Y96492D01*
X657244Y95508D02*
X655277D01*
X654293Y96000D02*
Y98952D01*
X653309Y97968D01*
X652325Y98952D01*
Y96000D01*
X651341Y98952D02*
X650357D01*
X650849D01*
Y96000D01*
X651341D01*
X650357D01*
X646913Y98460D02*
X647405Y98952D01*
X648389D01*
X648881Y98460D01*
Y96492D01*
X648389Y96000D01*
X647405D01*
X646913Y96492D01*
X645929Y96000D02*
X644945D01*
X645437D01*
Y98952D01*
X645929Y98460D01*
X626068Y212320D02*
Y215271D01*
X624593D01*
X624101Y214780D01*
Y213796D01*
X624593Y213304D01*
X626068D01*
X625085D02*
X624101Y212320D01*
X621149Y215271D02*
X623117D01*
Y213796D01*
X622133Y214288D01*
X621641D01*
X621149Y213796D01*
Y212812D01*
X621641Y212320D01*
X622625D01*
X623117Y212812D01*
X620165Y211828D02*
X618197D01*
X617213Y212320D02*
Y215271D01*
X616229Y214288D01*
X615245Y215271D01*
Y212320D01*
X614261Y215271D02*
X613277D01*
X613769D01*
Y212320D01*
X614261D01*
X613277D01*
X609834Y214780D02*
X610325Y215271D01*
X611309D01*
X611801Y214780D01*
Y212812D01*
X611309Y212320D01*
X610325D01*
X609834Y212812D01*
X606882Y212320D02*
X608850D01*
X606882Y214288D01*
Y214780D01*
X607374Y215271D01*
X608358D01*
X608850Y214780D01*
X600148Y290000D02*
Y292952D01*
X598672D01*
X598180Y292460D01*
Y291476D01*
X598672Y290984D01*
X600148D01*
X599164D02*
X598180Y290000D01*
X595228Y292952D02*
X597196D01*
Y291476D01*
X596212Y291968D01*
X595720D01*
X595228Y291476D01*
Y290492D01*
X595720Y290000D01*
X596704D01*
X597196Y290492D01*
X594244Y289508D02*
X592277D01*
X591293Y290000D02*
Y292952D01*
X590309Y291968D01*
X589325Y292952D01*
Y290000D01*
X588341Y292952D02*
X587357D01*
X587849D01*
Y290000D01*
X588341D01*
X587357D01*
X583913Y292460D02*
X584405Y292952D01*
X585389D01*
X585881Y292460D01*
Y290492D01*
X585389Y290000D01*
X584405D01*
X583913Y290492D01*
X582929Y292460D02*
X582437Y292952D01*
X581453D01*
X580961Y292460D01*
Y291968D01*
X581453Y291476D01*
X581945D01*
X581453D01*
X580961Y290984D01*
Y290492D01*
X581453Y290000D01*
X582437D01*
X582929Y290492D01*
X641069Y96820D02*
Y99771D01*
X639593D01*
X639101Y99280D01*
Y98296D01*
X639593Y97804D01*
X641069D01*
X640085D02*
X639101Y96820D01*
X638117D02*
X637133D01*
X637625D01*
Y99771D01*
X638117Y99280D01*
X634181Y96820D02*
Y99771D01*
X635657Y98296D01*
X633689D01*
X632705Y96328D02*
X630737D01*
X629753Y96820D02*
Y99771D01*
X628769Y98788D01*
X627785Y99771D01*
Y96820D01*
X626801Y99771D02*
X625817D01*
X626309D01*
Y96820D01*
X626801D01*
X625817D01*
X622374Y99280D02*
X622866Y99771D01*
X623850D01*
X624342Y99280D01*
Y97312D01*
X623850Y96820D01*
X622866D01*
X622374Y97312D01*
X621390Y96820D02*
X620406D01*
X620898D01*
Y99771D01*
X621390Y99280D01*
X610648Y196000D02*
Y198952D01*
X609172D01*
X608680Y198460D01*
Y197476D01*
X609172Y196984D01*
X610648D01*
X609664D02*
X608680Y196000D01*
X607696D02*
X606712D01*
X607204D01*
Y198952D01*
X607696Y198460D01*
X603760Y196000D02*
Y198952D01*
X605236Y197476D01*
X603269D01*
X602285Y195508D02*
X600317D01*
X599333Y196000D02*
Y198952D01*
X598349Y197968D01*
X597365Y198952D01*
Y196000D01*
X596381Y198952D02*
X595397D01*
X595889D01*
Y196000D01*
X596381D01*
X595397D01*
X591953Y198460D02*
X592445Y198952D01*
X593429D01*
X593921Y198460D01*
Y196492D01*
X593429Y196000D01*
X592445D01*
X591953Y196492D01*
X589002Y196000D02*
X590969D01*
X589002Y197968D01*
Y198460D01*
X589494Y198952D01*
X590477D01*
X590969Y198460D01*
X633648Y294000D02*
Y296952D01*
X632172D01*
X631680Y296460D01*
Y295476D01*
X632172Y294984D01*
X633648D01*
X632664D02*
X631680Y294000D01*
X630696D02*
X629712D01*
X630204D01*
Y296952D01*
X630696Y296460D01*
X626760Y294000D02*
Y296952D01*
X628236Y295476D01*
X626269D01*
X625285Y293508D02*
X623317D01*
X622333Y294000D02*
Y296952D01*
X621349Y295968D01*
X620365Y296952D01*
Y294000D01*
X619381Y296952D02*
X618397D01*
X618889D01*
Y294000D01*
X619381D01*
X618397D01*
X614953Y296460D02*
X615445Y296952D01*
X616429D01*
X616921Y296460D01*
Y294492D01*
X616429Y294000D01*
X615445D01*
X614953Y294492D01*
X613969Y296460D02*
X613477Y296952D01*
X612494D01*
X612002Y296460D01*
Y295968D01*
X612494Y295476D01*
X612985D01*
X612494D01*
X612002Y294984D01*
Y294492D01*
X612494Y294000D01*
X613477D01*
X613969Y294492D01*
G54D41*
X401911Y135000D02*
Y138017D01*
X403420Y136509D02*
X400402D01*
M02*
