%FSLAX25Y25*%
%MOIN*%
G70*
G01*
G75*
G04 Layer_Color=128*
%ADD10R,0.04213X0.08504*%
%ADD11R,0.32795X0.31496*%
%ADD12R,0.03937X0.03937*%
%ADD13R,0.03937X0.03937*%
%ADD14R,0.09843X0.09055*%
%ADD15R,0.05906X0.01969*%
%ADD16R,0.01969X0.05906*%
%ADD17C,0.01000*%
%ADD18C,0.02362*%
%ADD19C,0.03937*%
%ADD20C,0.00787*%
%ADD21R,0.40000X0.34016*%
%ADD22R,0.03543X0.06693*%
%ADD23R,0.06693X0.03543*%
%ADD24R,0.03937X0.07087*%
%ADD25R,0.17716X0.15748*%
%ADD26R,0.39370X0.39370*%
%ADD27R,0.07087X0.03937*%
%ADD28R,0.40158X0.25984*%
%ADD29R,0.25984X0.40158*%
%ADD30R,0.19685X0.79528*%
%ADD31R,0.27559X0.27559*%
%ADD32C,0.05906*%
%ADD33R,0.05906X0.05906*%
%ADD34R,0.07284X0.07284*%
%ADD35C,0.07284*%
%ADD36C,0.07874*%
%ADD37C,0.05000*%
%ADD38C,0.15748*%
%ADD39C,0.00984*%
%ADD40C,0.00492*%
%ADD41C,0.00591*%
%ADD42R,0.05013X0.09304*%
%ADD43R,0.33595X0.32296*%
%ADD44R,0.04737X0.04737*%
%ADD45R,0.04737X0.04737*%
%ADD46R,0.10642X0.09855*%
%ADD47R,0.06706X0.02769*%
%ADD48R,0.02769X0.06706*%
%ADD49C,0.06706*%
%ADD50R,0.06706X0.06706*%
%ADD51R,0.08083X0.08083*%
%ADD52C,0.08083*%
%ADD53C,0.08674*%
%ADD54C,0.05800*%
%ADD55C,0.16548*%
%ADD56C,0.00333*%
%ADD57C,0.01500*%
%ADD58C,0.01600*%
%ADD59C,0.00600*%
G54D17*
X-66500Y0D02*
X-1000D01*
X-66500Y370079D02*
X-1000D01*
X-65500Y0D02*
Y154848D01*
Y212031D02*
Y370079D01*
Y0D02*
X-63500Y6000D01*
X-67500D02*
X-65500Y0D01*
X-67500Y364079D02*
X-65500Y370079D01*
X-63500Y364079D01*
X314961Y371079D02*
Y386500D01*
X0Y371079D02*
Y386500D01*
X184472Y385500D02*
X314961D01*
X0D02*
X127289D01*
X308961Y387500D02*
X314961Y385500D01*
X308961Y383500D02*
X314961Y385500D01*
X0D02*
X6000Y383500D01*
X0Y385500D02*
X6000Y387500D01*
X690517Y103000D02*
Y108998D01*
X693516D01*
X694516Y107998D01*
Y105999D01*
X693516Y104999D01*
X690517D01*
X692516D02*
X694516Y103000D01*
X697515D02*
X699514D01*
X700514Y104000D01*
Y105999D01*
X699514Y106999D01*
X697515D01*
X696515Y105999D01*
Y104000D01*
X697515Y103000D01*
X702513Y106999D02*
Y104000D01*
X703513Y103000D01*
X706512D01*
Y106999D01*
X708511Y103000D02*
Y106999D01*
X711510D01*
X712510Y105999D01*
Y103000D01*
X718508Y108998D02*
Y103000D01*
X715509D01*
X714509Y104000D01*
Y105999D01*
X715509Y106999D01*
X718508D01*
X690517Y88000D02*
Y93998D01*
X693516D01*
X694516Y92998D01*
Y90999D01*
X693516Y89999D01*
X690517D01*
X692516D02*
X694516Y88000D01*
X697515D02*
X699514D01*
X700514Y89000D01*
Y90999D01*
X699514Y91999D01*
X697515D01*
X696515Y90999D01*
Y89000D01*
X697515Y88000D01*
X702513Y91999D02*
Y89000D01*
X703513Y88000D01*
X706512D01*
Y91999D01*
X708511Y88000D02*
Y91999D01*
X711510D01*
X712510Y90999D01*
Y88000D01*
X718508Y93998D02*
Y88000D01*
X715509D01*
X714509Y89000D01*
Y90999D01*
X715509Y91999D01*
X718508D01*
X690517Y73000D02*
Y78998D01*
X693516D01*
X694516Y77998D01*
Y75999D01*
X693516Y74999D01*
X690517D01*
X692516D02*
X694516Y73000D01*
X697515D02*
X699514D01*
X700514Y74000D01*
Y75999D01*
X699514Y76999D01*
X697515D01*
X696515Y75999D01*
Y74000D01*
X697515Y73000D01*
X702513Y76999D02*
Y74000D01*
X703513Y73000D01*
X706512D01*
Y76999D01*
X708511Y73000D02*
Y76999D01*
X711510D01*
X712510Y75999D01*
Y73000D01*
X718508Y78998D02*
Y73000D01*
X715509D01*
X714509Y74000D01*
Y75999D01*
X715509Y76999D01*
X718508D01*
X690517Y58000D02*
Y63998D01*
X693516D01*
X694516Y62998D01*
Y60999D01*
X693516Y59999D01*
X690517D01*
X692516D02*
X694516Y58000D01*
X697515D02*
X699514D01*
X700514Y59000D01*
Y60999D01*
X699514Y61999D01*
X697515D01*
X696515Y60999D01*
Y59000D01*
X697515Y58000D01*
X702513Y61999D02*
Y59000D01*
X703513Y58000D01*
X706512D01*
Y61999D01*
X708511Y58000D02*
Y61999D01*
X711510D01*
X712510Y60999D01*
Y58000D01*
X718508Y63998D02*
Y58000D01*
X715509D01*
X714509Y59000D01*
Y60999D01*
X715509Y61999D01*
X718508D01*
X690517Y43000D02*
Y48998D01*
X693516D01*
X694516Y47998D01*
Y45999D01*
X693516Y44999D01*
X690517D01*
X692516D02*
X694516Y43000D01*
X697515D02*
X699514D01*
X700514Y44000D01*
Y45999D01*
X699514Y46999D01*
X697515D01*
X696515Y45999D01*
Y44000D01*
X697515Y43000D01*
X702513Y46999D02*
Y44000D01*
X703513Y43000D01*
X706512D01*
Y46999D01*
X708511Y43000D02*
Y46999D01*
X711510D01*
X712510Y45999D01*
Y43000D01*
X718508Y48998D02*
Y43000D01*
X715509D01*
X714509Y44000D01*
Y45999D01*
X715509Y46999D01*
X718508D01*
X639929Y103000D02*
Y108998D01*
X642928D01*
X643928Y107998D01*
Y105999D01*
X642928Y104999D01*
X639929D01*
X645927Y108998D02*
X649926D01*
X647927D01*
Y103000D01*
X651926Y108998D02*
Y103000D01*
Y105999D01*
X655924D01*
Y108998D01*
Y103000D01*
X639929Y88000D02*
Y93998D01*
X642928D01*
X643928Y92998D01*
Y90999D01*
X642928Y89999D01*
X639929D01*
X645927Y93998D02*
X649926D01*
X647927D01*
Y88000D01*
X651926Y93998D02*
Y88000D01*
Y90999D01*
X655924D01*
Y93998D01*
Y88000D01*
X639929Y73000D02*
Y78998D01*
X642928D01*
X643928Y77998D01*
Y75999D01*
X642928Y74999D01*
X639929D01*
X645927Y78998D02*
X649926D01*
X647927D01*
Y73000D01*
X651926Y78998D02*
Y73000D01*
Y75999D01*
X655924D01*
Y78998D01*
Y73000D01*
X639929Y58000D02*
Y63998D01*
X642928D01*
X643928Y62998D01*
Y60999D01*
X642928Y59999D01*
X639929D01*
X645927Y63998D02*
X649926D01*
X647927D01*
Y58000D01*
X651926Y63998D02*
Y58000D01*
Y60999D01*
X655924D01*
Y63998D01*
Y58000D01*
X639929Y43000D02*
Y48998D01*
X642928D01*
X643928Y47998D01*
Y45999D01*
X642928Y44999D01*
X639929D01*
X645927Y48998D02*
X649926D01*
X647927D01*
Y43000D01*
X651926Y48998D02*
Y43000D01*
Y45999D01*
X655924D01*
Y48998D01*
Y43000D01*
X508368Y103000D02*
Y108998D01*
X505369Y105999D01*
X509368D01*
X511367Y103000D02*
Y104000D01*
X512367D01*
Y103000D01*
X511367D01*
X516365Y107998D02*
X517365Y108998D01*
X519364D01*
X520364Y107998D01*
Y104000D01*
X519364Y103000D01*
X517365D01*
X516365Y104000D01*
Y107998D01*
X522363D02*
X523363Y108998D01*
X525362D01*
X526362Y107998D01*
Y104000D01*
X525362Y103000D01*
X523363D01*
X522363Y104000D01*
Y107998D01*
X528362D02*
X529361Y108998D01*
X531360D01*
X532360Y107998D01*
Y104000D01*
X531360Y103000D01*
X529361D01*
X528362Y104000D01*
Y107998D01*
X534360Y103000D02*
Y106999D01*
X535359D01*
X536359Y105999D01*
Y103000D01*
Y105999D01*
X537359Y106999D01*
X538358Y105999D01*
Y103000D01*
X540358D02*
Y106999D01*
X541357D01*
X542357Y105999D01*
Y103000D01*
Y105999D01*
X543357Y106999D01*
X544356Y105999D01*
Y103000D01*
X554353D02*
X552354Y104999D01*
Y106999D01*
X554353Y108998D01*
X557352Y103000D02*
X559351D01*
X558352D01*
Y108998D01*
X557352Y107998D01*
X566349Y108998D02*
X562351D01*
Y105999D01*
X564350Y106999D01*
X565349D01*
X566349Y105999D01*
Y104000D01*
X565349Y103000D01*
X563350D01*
X562351Y104000D01*
X568349Y108998D02*
X572347D01*
Y107998D01*
X568349Y104000D01*
Y103000D01*
X574347D02*
Y104000D01*
X575346D01*
Y103000D01*
X574347D01*
X582344D02*
Y108998D01*
X579345Y105999D01*
X583344D01*
X585343Y107998D02*
X586343Y108998D01*
X588342D01*
X589342Y107998D01*
Y106999D01*
X588342Y105999D01*
X589342Y104999D01*
Y104000D01*
X588342Y103000D01*
X586343D01*
X585343Y104000D01*
Y104999D01*
X586343Y105999D01*
X585343Y106999D01*
Y107998D01*
X586343Y105999D02*
X588342D01*
X591341Y103000D02*
Y106999D01*
X592341D01*
X593340Y105999D01*
Y103000D01*
Y105999D01*
X594340Y106999D01*
X595340Y105999D01*
Y103000D01*
X597339D02*
X599338D01*
X598339D01*
Y106999D01*
X597339D01*
X602338Y103000D02*
X604337D01*
X603337D01*
Y108998D01*
X602338D01*
X607336Y103000D02*
X609335Y104999D01*
Y106999D01*
X607336Y108998D01*
X505369Y92998D02*
X506369Y93998D01*
X508368D01*
X509368Y92998D01*
Y89000D01*
X508368Y88000D01*
X506369D01*
X505369Y89000D01*
Y92998D01*
X511367Y88000D02*
Y89000D01*
X512367D01*
Y88000D01*
X511367D01*
X516365Y89000D02*
X517365Y88000D01*
X519364D01*
X520364Y89000D01*
Y92998D01*
X519364Y93998D01*
X517365D01*
X516365Y92998D01*
Y91999D01*
X517365Y90999D01*
X520364D01*
X522363Y92998D02*
X523363Y93998D01*
X525362D01*
X526362Y92998D01*
Y89000D01*
X525362Y88000D01*
X523363D01*
X522363Y89000D01*
Y92998D01*
X528362D02*
X529361Y93998D01*
X531360D01*
X532360Y92998D01*
Y89000D01*
X531360Y88000D01*
X529361D01*
X528362Y89000D01*
Y92998D01*
X534360Y88000D02*
Y91999D01*
X535359D01*
X536359Y90999D01*
Y88000D01*
Y90999D01*
X537359Y91999D01*
X538358Y90999D01*
Y88000D01*
X540358D02*
Y91999D01*
X541357D01*
X542357Y90999D01*
Y88000D01*
Y90999D01*
X543357Y91999D01*
X544356Y90999D01*
Y88000D01*
X554353D02*
X552354Y89999D01*
Y91999D01*
X554353Y93998D01*
X557352Y92998D02*
X558352Y93998D01*
X560351D01*
X561351Y92998D01*
Y91999D01*
X560351Y90999D01*
X559351D01*
X560351D01*
X561351Y89999D01*
Y89000D01*
X560351Y88000D01*
X558352D01*
X557352Y89000D01*
X567349Y93998D02*
X563350D01*
Y90999D01*
X565349Y91999D01*
X566349D01*
X567349Y90999D01*
Y89000D01*
X566349Y88000D01*
X564350D01*
X563350Y89000D01*
X569348Y88000D02*
Y89000D01*
X570348D01*
Y88000D01*
X569348D01*
X577346D02*
Y93998D01*
X574347Y90999D01*
X578345D01*
X580345Y92998D02*
X581344Y93998D01*
X583344D01*
X584343Y92998D01*
Y91999D01*
X583344Y90999D01*
X582344D01*
X583344D01*
X584343Y89999D01*
Y89000D01*
X583344Y88000D01*
X581344D01*
X580345Y89000D01*
X586343Y88000D02*
Y91999D01*
X587342D01*
X588342Y90999D01*
Y88000D01*
Y90999D01*
X589342Y91999D01*
X590341Y90999D01*
Y88000D01*
X592341D02*
X594340D01*
X593340D01*
Y91999D01*
X592341D01*
X597339Y88000D02*
X599338D01*
X598339D01*
Y93998D01*
X597339D01*
X602338Y88000D02*
X604337Y89999D01*
Y91999D01*
X602338Y93998D01*
X505369Y77998D02*
X506369Y78998D01*
X508368D01*
X509368Y77998D01*
Y74000D01*
X508368Y73000D01*
X506369D01*
X505369Y74000D01*
Y77998D01*
X511367Y73000D02*
Y74000D01*
X512367D01*
Y73000D01*
X511367D01*
X516365Y77998D02*
X517365Y78998D01*
X519364D01*
X520364Y77998D01*
Y76999D01*
X519364Y75999D01*
X520364Y74999D01*
Y74000D01*
X519364Y73000D01*
X517365D01*
X516365Y74000D01*
Y74999D01*
X517365Y75999D01*
X516365Y76999D01*
Y77998D01*
X517365Y75999D02*
X519364D01*
X522363Y77998D02*
X523363Y78998D01*
X525362D01*
X526362Y77998D01*
Y74000D01*
X525362Y73000D01*
X523363D01*
X522363Y74000D01*
Y77998D01*
X528362D02*
X529361Y78998D01*
X531360D01*
X532360Y77998D01*
Y74000D01*
X531360Y73000D01*
X529361D01*
X528362Y74000D01*
Y77998D01*
X534360Y73000D02*
Y76999D01*
X535359D01*
X536359Y75999D01*
Y73000D01*
Y75999D01*
X537359Y76999D01*
X538358Y75999D01*
Y73000D01*
X540358D02*
Y76999D01*
X541357D01*
X542357Y75999D01*
Y73000D01*
Y75999D01*
X543357Y76999D01*
X544356Y75999D01*
Y73000D01*
X554353D02*
X552354Y74999D01*
Y76999D01*
X554353Y78998D01*
X557352Y77998D02*
X558352Y78998D01*
X560351D01*
X561351Y77998D01*
Y76999D01*
X560351Y75999D01*
X559351D01*
X560351D01*
X561351Y74999D01*
Y74000D01*
X560351Y73000D01*
X558352D01*
X557352Y74000D01*
X563350Y73000D02*
X565349D01*
X564350D01*
Y78998D01*
X563350Y77998D01*
X568349Y73000D02*
Y74000D01*
X569348D01*
Y73000D01*
X568349D01*
X577346Y78998D02*
X573347D01*
Y75999D01*
X575346Y76999D01*
X576346D01*
X577346Y75999D01*
Y74000D01*
X576346Y73000D01*
X574347D01*
X573347Y74000D01*
X579345Y77998D02*
X580345Y78998D01*
X582344D01*
X583344Y77998D01*
Y74000D01*
X582344Y73000D01*
X580345D01*
X579345Y74000D01*
Y77998D01*
X585343Y73000D02*
Y76999D01*
X586343D01*
X587342Y75999D01*
Y73000D01*
Y75999D01*
X588342Y76999D01*
X589342Y75999D01*
Y73000D01*
X591341D02*
X593340D01*
X592341D01*
Y76999D01*
X591341D01*
X596340Y73000D02*
X598339D01*
X597339D01*
Y78998D01*
X596340D01*
X601338Y73000D02*
X603337Y74999D01*
Y76999D01*
X601338Y78998D01*
X505369Y58000D02*
X507368D01*
X506369D01*
Y63998D01*
X505369Y62998D01*
X510367Y58000D02*
Y59000D01*
X511367D01*
Y58000D01*
X510367D01*
X515366D02*
X517365D01*
X516365D01*
Y63998D01*
X515366Y62998D01*
X520364D02*
X521364Y63998D01*
X523363D01*
X524363Y62998D01*
Y59000D01*
X523363Y58000D01*
X521364D01*
X520364Y59000D01*
Y62998D01*
X526362D02*
X527362Y63998D01*
X529361D01*
X530361Y62998D01*
Y59000D01*
X529361Y58000D01*
X527362D01*
X526362Y59000D01*
Y62998D01*
X532360Y58000D02*
Y61999D01*
X533360D01*
X534360Y60999D01*
Y58000D01*
Y60999D01*
X535359Y61999D01*
X536359Y60999D01*
Y58000D01*
X538358D02*
Y61999D01*
X539358D01*
X540358Y60999D01*
Y58000D01*
Y60999D01*
X541357Y61999D01*
X542357Y60999D01*
Y58000D01*
X552354D02*
X550354Y59999D01*
Y61999D01*
X552354Y63998D01*
X558352Y58000D02*
Y63998D01*
X555353Y60999D01*
X559351D01*
X561351Y62998D02*
X562351Y63998D01*
X564350D01*
X565349Y62998D01*
Y61999D01*
X564350Y60999D01*
X563350D01*
X564350D01*
X565349Y59999D01*
Y59000D01*
X564350Y58000D01*
X562351D01*
X561351Y59000D01*
X567349Y58000D02*
Y59000D01*
X568349D01*
Y58000D01*
X567349D01*
X572347Y62998D02*
X573347Y63998D01*
X575346D01*
X576346Y62998D01*
Y61999D01*
X575346Y60999D01*
X574347D01*
X575346D01*
X576346Y59999D01*
Y59000D01*
X575346Y58000D01*
X573347D01*
X572347Y59000D01*
X578345Y58000D02*
X580345D01*
X579345D01*
Y63998D01*
X578345Y62998D01*
X583344Y58000D02*
Y61999D01*
X584343D01*
X585343Y60999D01*
Y58000D01*
Y60999D01*
X586343Y61999D01*
X587342Y60999D01*
Y58000D01*
X589342D02*
X591341D01*
X590341D01*
Y61999D01*
X589342D01*
X594340Y58000D02*
X596340D01*
X595340D01*
Y63998D01*
X594340D01*
X599338Y58000D02*
X601338Y59999D01*
Y61999D01*
X599338Y63998D01*
X505369Y47998D02*
X506369Y48998D01*
X508368D01*
X509368Y47998D01*
Y44000D01*
X508368Y43000D01*
X506369D01*
X505369Y44000D01*
Y47998D01*
X511367Y43000D02*
Y44000D01*
X512367D01*
Y43000D01*
X511367D01*
X516365Y48998D02*
X520364D01*
Y47998D01*
X516365Y44000D01*
Y43000D01*
X522363D02*
X524363D01*
X523363D01*
Y48998D01*
X522363Y47998D01*
X527362Y43000D02*
X529361D01*
X528362D01*
Y48998D01*
X527362Y47998D01*
X532360Y43000D02*
Y46999D01*
X533360D01*
X534360Y45999D01*
Y43000D01*
Y45999D01*
X535359Y46999D01*
X536359Y45999D01*
Y43000D01*
X538358D02*
Y46999D01*
X539358D01*
X540358Y45999D01*
Y43000D01*
Y45999D01*
X541357Y46999D01*
X542357Y45999D01*
Y43000D01*
X552354D02*
X550354Y44999D01*
Y46999D01*
X552354Y48998D01*
X559351Y43000D02*
X555353D01*
X559351Y46999D01*
Y47998D01*
X558352Y48998D01*
X556352D01*
X555353Y47998D01*
X561351D02*
X562351Y48998D01*
X564350D01*
X565349Y47998D01*
Y46999D01*
X564350Y45999D01*
X565349Y44999D01*
Y44000D01*
X564350Y43000D01*
X562351D01*
X561351Y44000D01*
Y44999D01*
X562351Y45999D01*
X561351Y46999D01*
Y47998D01*
X562351Y45999D02*
X564350D01*
X567349Y43000D02*
Y44000D01*
X568349D01*
Y43000D01*
X567349D01*
X572347Y47998D02*
X573347Y48998D01*
X575346D01*
X576346Y47998D01*
Y44000D01*
X575346Y43000D01*
X573347D01*
X572347Y44000D01*
Y47998D01*
X578345D02*
X579345Y48998D01*
X581344D01*
X582344Y47998D01*
Y44000D01*
X581344Y43000D01*
X579345D01*
X578345Y44000D01*
Y47998D01*
X584343Y43000D02*
Y46999D01*
X585343D01*
X586343Y45999D01*
Y43000D01*
Y45999D01*
X587342Y46999D01*
X588342Y45999D01*
Y43000D01*
X590341D02*
X592341D01*
X591341D01*
Y46999D01*
X590341D01*
X595340Y43000D02*
X597339D01*
X596340D01*
Y48998D01*
X595340D01*
X600338Y43000D02*
X602338Y44999D01*
Y46999D01*
X600338Y48998D01*
X435588Y28000D02*
X437587D01*
X436587D01*
Y33998D01*
X435588Y32998D01*
X444585Y28000D02*
X440586D01*
X444585Y31999D01*
Y32998D01*
X443585Y33998D01*
X441586D01*
X440586Y32998D01*
X450583Y28000D02*
X446584D01*
X450583Y31999D01*
Y32998D01*
X449583Y33998D01*
X447584D01*
X446584Y32998D01*
X458580Y33998D02*
X462579D01*
X460579D01*
Y28000D01*
X465578D02*
X467577D01*
X468577Y29000D01*
Y30999D01*
X467577Y31999D01*
X465578D01*
X464578Y30999D01*
Y29000D01*
X465578Y28000D01*
X471576Y32998D02*
Y31999D01*
X470576D01*
X472576D01*
X471576D01*
Y29000D01*
X472576Y28000D01*
X476574Y31999D02*
X478574D01*
X479573Y30999D01*
Y28000D01*
X476574D01*
X475575Y29000D01*
X476574Y29999D01*
X479573D01*
X481573Y28000D02*
X483572D01*
X482572D01*
Y33998D01*
X481573D01*
X438587Y103000D02*
Y108998D01*
X435588Y105999D01*
X439586D01*
X435588Y88000D02*
X437587D01*
X436587D01*
Y93998D01*
X435588Y92998D01*
X440586Y93998D02*
X444585D01*
Y92998D01*
X440586Y89000D01*
Y88000D01*
X439586Y73000D02*
X435588D01*
X439586Y76999D01*
Y77998D01*
X438587Y78998D01*
X436587D01*
X435588Y77998D01*
X444585Y73000D02*
Y78998D01*
X441586Y75999D01*
X445584D01*
X439586Y58000D02*
X435588D01*
X439586Y61999D01*
Y62998D01*
X438587Y63998D01*
X436587D01*
X435588Y62998D01*
X441586D02*
X442585Y63998D01*
X444585D01*
X445584Y62998D01*
Y61999D01*
X444585Y60999D01*
X445584Y59999D01*
Y59000D01*
X444585Y58000D01*
X442585D01*
X441586Y59000D01*
Y59999D01*
X442585Y60999D01*
X441586Y61999D01*
Y62998D01*
X442585Y60999D02*
X444585D01*
X438587Y43000D02*
Y48998D01*
X435588Y45999D01*
X439586D01*
X441586Y44000D02*
X442585Y43000D01*
X444585D01*
X445584Y44000D01*
Y47998D01*
X444585Y48998D01*
X442585D01*
X441586Y47998D01*
Y46999D01*
X442585Y45999D01*
X445584D01*
G54D20*
X185039Y259842D02*
Y370079D01*
Y0D02*
Y118110D01*
X0Y259842D02*
X118110D01*
X0Y118110D02*
X118110D01*
X0Y370079D02*
X314961D01*
X0Y0D02*
Y370079D01*
X314961Y0D02*
Y370079D01*
X0Y0D02*
X314961D01*
G54D21*
X254000Y91508D02*
D03*
G54D22*
X224000Y104500D02*
D03*
X78000Y135000D02*
D03*
X108500Y317500D02*
D03*
X30000Y62500D02*
D03*
X228000Y214000D02*
D03*
X292500Y240000D02*
D03*
X187500Y77000D02*
D03*
X204500Y279500D02*
D03*
X190500Y178000D02*
D03*
X117500Y179500D02*
D03*
X16000Y191000D02*
D03*
X49500Y160500D02*
D03*
X60500Y221500D02*
D03*
X38500Y222346D02*
D03*
X280500Y133000D02*
D03*
G54D23*
X267500Y143500D02*
D03*
X19000Y289500D02*
D03*
X118500Y92500D02*
D03*
X48000Y225847D02*
D03*
X158500Y219500D02*
D03*
X154500Y144500D02*
D03*
X137000Y226500D02*
D03*
X65500Y30000D02*
D03*
X75500Y349000D02*
D03*
X94500Y62000D02*
D03*
X44500Y317500D02*
D03*
X31000Y73500D02*
D03*
X105000Y306500D02*
D03*
X33500Y53000D02*
D03*
X105000Y327000D02*
D03*
G54D24*
X6543Y118500D02*
D03*
X8000Y260000D02*
D03*
X140500Y239500D02*
D03*
X148000Y223000D02*
D03*
X178500Y77000D02*
D03*
X196500Y279500D02*
D03*
X115000Y81500D02*
D03*
X22500Y301500D02*
D03*
X60500Y235500D02*
D03*
X49500Y88000D02*
D03*
X90500Y292500D02*
D03*
X80000Y197000D02*
D03*
G54D25*
X202000Y321500D02*
D03*
X287000Y319000D02*
D03*
X201500Y350500D02*
D03*
X287000Y348000D02*
D03*
X205500Y12500D02*
D03*
X285500Y14000D02*
D03*
X205000Y42500D02*
D03*
X286500Y43000D02*
D03*
G54D26*
X155000Y182500D02*
D03*
G54D27*
X18043Y115000D02*
D03*
X18500Y256500D02*
D03*
X215000Y73500D02*
D03*
X228000Y282500D02*
D03*
X67500Y139000D02*
D03*
X16500Y73500D02*
D03*
X120500Y306500D02*
D03*
X75500Y207000D02*
D03*
X60500Y91500D02*
D03*
X79000Y289000D02*
D03*
G54D28*
X45000Y190500D02*
D03*
G54D29*
X74500Y322000D02*
D03*
X64500Y58500D02*
D03*
G54D30*
X275002Y216504D02*
D03*
G54D31*
X242000Y336500D02*
D03*
X245500Y23500D02*
D03*
X116500Y55500D02*
D03*
X43500Y139000D02*
D03*
X22500Y324000D02*
D03*
G54D56*
X387812Y45500D02*
X387622Y46457D01*
X387080Y47268D01*
X386269Y47810D01*
X385313Y48000D01*
X384356Y47810D01*
X383545Y47268D01*
X383003Y46457D01*
X382812Y45500D01*
X383003Y44543D01*
X383545Y43732D01*
X384356Y43190D01*
X385313Y43000D01*
X386269Y43190D01*
X387080Y43732D01*
X387622Y44543D01*
X387812Y45500D01*
X203667Y145000D02*
X203348Y145980D01*
X202515Y146585D01*
X201485D01*
X200652Y145980D01*
X200333Y145000D01*
X200652Y144020D01*
X201485Y143415D01*
X202515D01*
X203348Y144020D01*
X203667Y145000D01*
X132167Y242500D02*
X131848Y243480D01*
X131015Y244085D01*
X129985D01*
X129152Y243480D01*
X128833Y242500D01*
X129152Y241520D01*
X129985Y240915D01*
X131015D01*
X131848Y241520D01*
X132167Y242500D01*
X101667Y162000D02*
X101348Y162980D01*
X100515Y163585D01*
X99485D01*
X98652Y162980D01*
X98333Y162000D01*
X98652Y161020D01*
X99485Y160415D01*
X100515D01*
X101348Y161020D01*
X101667Y162000D01*
Y169500D02*
X101348Y170480D01*
X100515Y171085D01*
X99485D01*
X98652Y170480D01*
X98333Y169500D01*
X98652Y168520D01*
X99485Y167915D01*
X100515D01*
X101348Y168520D01*
X101667Y169500D01*
X119167Y169000D02*
X118848Y169980D01*
X118015Y170585D01*
X116985D01*
X116152Y169980D01*
X115833Y169000D01*
X116152Y168020D01*
X116985Y167415D01*
X118015D01*
X118848Y168020D01*
X119167Y169000D01*
X110667Y174500D02*
X110348Y175480D01*
X109515Y176085D01*
X108485D01*
X107652Y175480D01*
X107333Y174500D01*
X107652Y173520D01*
X108485Y172915D01*
X109515D01*
X110348Y173520D01*
X110667Y174500D01*
X167667Y136500D02*
X167348Y137480D01*
X166515Y138085D01*
X165485D01*
X164652Y137480D01*
X164333Y136500D01*
X164652Y135520D01*
X165485Y134915D01*
X166515D01*
X167348Y135520D01*
X167667Y136500D01*
X125667Y327000D02*
X125348Y327980D01*
X124515Y328585D01*
X123485D01*
X122652Y327980D01*
X122333Y327000D01*
X122652Y326020D01*
X123485Y325415D01*
X124515D01*
X125348Y326020D01*
X125667Y327000D01*
X77123Y280457D02*
X76805Y281436D01*
X75972Y282042D01*
X74942D01*
X74108Y281436D01*
X73790Y280457D01*
X74108Y279477D01*
X74942Y278872D01*
X75972D01*
X76805Y279477D01*
X77123Y280457D01*
X74167Y91500D02*
X73848Y92480D01*
X73015Y93085D01*
X71985D01*
X71152Y92480D01*
X70833Y91500D01*
X71152Y90520D01*
X71985Y89915D01*
X73015D01*
X73848Y90520D01*
X74167Y91500D01*
X90667Y233500D02*
X90348Y234480D01*
X89515Y235085D01*
X88485D01*
X87652Y234480D01*
X87333Y233500D01*
X87652Y232520D01*
X88485Y231915D01*
X89515D01*
X90348Y232520D01*
X90667Y233500D01*
Y183500D02*
X90348Y184480D01*
X89515Y185085D01*
X88485D01*
X87652Y184480D01*
X87333Y183500D01*
X87652Y182520D01*
X88485Y181915D01*
X89515D01*
X90348Y182520D01*
X90667Y183500D01*
X81667Y184000D02*
X81348Y184980D01*
X80515Y185585D01*
X79485D01*
X78652Y184980D01*
X78333Y184000D01*
X78652Y183020D01*
X79485Y182415D01*
X80515D01*
X81348Y183020D01*
X81667Y184000D01*
X14667Y62000D02*
X14348Y62980D01*
X13515Y63585D01*
X12485D01*
X11652Y62980D01*
X11333Y62000D01*
X11652Y61020D01*
X12485Y60415D01*
X13515D01*
X14348Y61020D01*
X14667Y62000D01*
X40167Y240500D02*
X39848Y241480D01*
X39015Y242085D01*
X37985D01*
X37152Y241480D01*
X36833Y240500D01*
X37152Y239520D01*
X37985Y238915D01*
X39015D01*
X39848Y239520D01*
X40167Y240500D01*
X23667Y247500D02*
X23348Y248480D01*
X22515Y249085D01*
X21485D01*
X20652Y248480D01*
X20333Y247500D01*
X20652Y246520D01*
X21485Y245915D01*
X22515D01*
X23348Y246520D01*
X23667Y247500D01*
X90667Y138500D02*
X90348Y139480D01*
X89515Y140085D01*
X88485D01*
X87652Y139480D01*
X87333Y138500D01*
X87652Y137520D01*
X88485Y136915D01*
X89515D01*
X90348Y137520D01*
X90667Y138500D01*
X8210Y132457D02*
X7892Y133436D01*
X7058Y134042D01*
X6028D01*
X5195Y133436D01*
X4877Y132457D01*
X5195Y131477D01*
X6028Y130872D01*
X7058D01*
X7892Y131477D01*
X8210Y132457D01*
X22667Y127000D02*
X22348Y127980D01*
X21515Y128585D01*
X20485D01*
X19652Y127980D01*
X19333Y127000D01*
X19652Y126020D01*
X20485Y125415D01*
X21515D01*
X22348Y126020D01*
X22667Y127000D01*
X116917Y100750D02*
X116598Y101730D01*
X115765Y102335D01*
X114735D01*
X113902Y101730D01*
X113583Y100750D01*
X113902Y99770D01*
X114735Y99165D01*
X115765D01*
X116598Y99770D01*
X116917Y100750D01*
X9167Y289500D02*
X8848Y290480D01*
X8015Y291085D01*
X6985D01*
X6152Y290480D01*
X5833Y289500D01*
X6152Y288520D01*
X6985Y287915D01*
X8015D01*
X8848Y288520D01*
X9167Y289500D01*
X79667Y125000D02*
X79348Y125980D01*
X78515Y126585D01*
X77485D01*
X76652Y125980D01*
X76333Y125000D01*
X76652Y124020D01*
X77485Y123415D01*
X78515D01*
X79348Y124020D01*
X79667Y125000D01*
X131167Y92500D02*
X130848Y93480D01*
X130015Y94085D01*
X128985D01*
X128152Y93480D01*
X127833Y92500D01*
X128152Y91520D01*
X128985Y90915D01*
X130015D01*
X130848Y91520D01*
X131167Y92500D01*
X142167Y220000D02*
X141848Y220980D01*
X141015Y221585D01*
X139985D01*
X139152Y220980D01*
X138833Y220000D01*
X139152Y219020D01*
X139985Y218415D01*
X141015D01*
X141848Y219020D01*
X142167Y220000D01*
X164167Y281500D02*
X163848Y282480D01*
X163015Y283085D01*
X161985D01*
X161152Y282480D01*
X160833Y281500D01*
X161152Y280520D01*
X161985Y279915D01*
X163015D01*
X163848Y280520D01*
X164167Y281500D01*
X160167Y259000D02*
X159848Y259980D01*
X159015Y260585D01*
X157985D01*
X157152Y259980D01*
X156833Y259000D01*
X157152Y258020D01*
X157985Y257415D01*
X159015D01*
X159848Y258020D01*
X160167Y259000D01*
X198820Y174653D02*
X198502Y175633D01*
X197669Y176239D01*
X196639D01*
X195805Y175633D01*
X195487Y174653D01*
X195805Y173674D01*
X196639Y173068D01*
X197669D01*
X198502Y173674D01*
X198820Y174653D01*
X172167Y218500D02*
X171848Y219480D01*
X171015Y220085D01*
X169985D01*
X169152Y219480D01*
X168833Y218500D01*
X169152Y217520D01*
X169985Y216915D01*
X171015D01*
X171848Y217520D01*
X172167Y218500D01*
X176667Y214000D02*
X176348Y214980D01*
X175515Y215585D01*
X174485D01*
X173652Y214980D01*
X173333Y214000D01*
X173652Y213020D01*
X174485Y212415D01*
X175515D01*
X176348Y213020D01*
X176667Y214000D01*
X187167Y202000D02*
X186848Y202980D01*
X186015Y203585D01*
X184985D01*
X184152Y202980D01*
X183833Y202000D01*
X184152Y201020D01*
X184985Y200415D01*
X186015D01*
X186848Y201020D01*
X187167Y202000D01*
X152820Y135653D02*
X152502Y136633D01*
X151669Y137239D01*
X150638D01*
X149805Y136633D01*
X149487Y135653D01*
X149805Y134674D01*
X150638Y134069D01*
X151669D01*
X152502Y134674D01*
X152820Y135653D01*
X126667Y226500D02*
X126348Y227480D01*
X125515Y228085D01*
X124485D01*
X123652Y227480D01*
X123333Y226500D01*
X123652Y225520D01*
X124485Y224915D01*
X125515D01*
X126348Y225520D01*
X126667Y226500D01*
X163513Y226847D02*
X163195Y227826D01*
X162362Y228432D01*
X161331D01*
X160498Y227826D01*
X160180Y226847D01*
X160498Y225867D01*
X161331Y225261D01*
X162362D01*
X163195Y225867D01*
X163513Y226847D01*
X182167Y158500D02*
X181848Y159480D01*
X181015Y160085D01*
X179985D01*
X179152Y159480D01*
X178833Y158500D01*
X179152Y157520D01*
X179985Y156915D01*
X181015D01*
X181848Y157520D01*
X182167Y158500D01*
X169417Y148000D02*
X169098Y148980D01*
X168265Y149585D01*
X167235D01*
X166402Y148980D01*
X166083Y148000D01*
X166402Y147020D01*
X167235Y146415D01*
X168265D01*
X169098Y147020D01*
X169417Y148000D01*
X164167Y153000D02*
X163848Y153980D01*
X163015Y154585D01*
X161985D01*
X161152Y153980D01*
X160833Y153000D01*
X161152Y152020D01*
X161985Y151415D01*
X163015D01*
X163848Y152020D01*
X164167Y153000D01*
X206167Y267500D02*
X205848Y268480D01*
X205015Y269085D01*
X203985D01*
X203152Y268480D01*
X202833Y267500D01*
X203152Y266520D01*
X203985Y265915D01*
X205015D01*
X205848Y266520D01*
X206167Y267500D01*
X294167Y251500D02*
X293848Y252480D01*
X293015Y253085D01*
X291985D01*
X291152Y252480D01*
X290833Y251500D01*
X291152Y250520D01*
X291985Y249915D01*
X293015D01*
X293848Y250520D01*
X294167Y251500D01*
X229667Y225000D02*
X229348Y225980D01*
X228515Y226585D01*
X227485D01*
X226652Y225980D01*
X226333Y225000D01*
X226652Y224020D01*
X227485Y223415D01*
X228515D01*
X229348Y224020D01*
X229667Y225000D01*
X189167Y88500D02*
X188848Y89480D01*
X188015Y90085D01*
X186985D01*
X186152Y89480D01*
X185833Y88500D01*
X186152Y87520D01*
X186985Y86915D01*
X188015D01*
X188848Y87520D01*
X189167Y88500D01*
X187167Y43500D02*
X186848Y44480D01*
X186015Y45085D01*
X184985D01*
X184152Y44480D01*
X183833Y43500D01*
X184152Y42520D01*
X184985Y41915D01*
X186015D01*
X186848Y42520D01*
X187167Y43500D01*
X188667Y13000D02*
X188348Y13980D01*
X187515Y14585D01*
X186485D01*
X185652Y13980D01*
X185333Y13000D01*
X185652Y12020D01*
X186485Y11415D01*
X187515D01*
X188348Y12020D01*
X188667Y13000D01*
X183667Y350500D02*
X183348Y351480D01*
X182515Y352085D01*
X181485D01*
X180652Y351480D01*
X180333Y350500D01*
X180652Y349520D01*
X181485Y348915D01*
X182515D01*
X183348Y349520D01*
X183667Y350500D01*
X183167Y321000D02*
X182848Y321980D01*
X182015Y322585D01*
X180985D01*
X180152Y321980D01*
X179833Y321000D01*
X180152Y320020D01*
X180985Y319415D01*
X182015D01*
X182848Y320020D01*
X183167Y321000D01*
X261167Y162000D02*
X260848Y162980D01*
X260015Y163585D01*
X258985D01*
X258152Y162980D01*
X257833Y162000D01*
X258152Y161020D01*
X258985Y160415D01*
X260015D01*
X260848Y161020D01*
X261167Y162000D01*
X255167Y168500D02*
X254848Y169480D01*
X254015Y170085D01*
X252985D01*
X252152Y169480D01*
X251833Y168500D01*
X252152Y167520D01*
X252985Y166915D01*
X254015D01*
X254848Y167520D01*
X255167Y168500D01*
X229167Y58000D02*
X228848Y58980D01*
X228015Y59585D01*
X226985D01*
X226152Y58980D01*
X225833Y58000D01*
X226152Y57020D01*
X226985Y56415D01*
X228015D01*
X228848Y57020D01*
X229167Y58000D01*
X180167Y88500D02*
X179848Y89480D01*
X179015Y90085D01*
X177985D01*
X177152Y89480D01*
X176833Y88500D01*
X177152Y87520D01*
X177985Y86915D01*
X179015D01*
X179848Y87520D01*
X180167Y88500D01*
X212667Y93500D02*
X212348Y94480D01*
X211515Y95085D01*
X210485D01*
X209652Y94480D01*
X209333Y93500D01*
X209652Y92520D01*
X210485Y91915D01*
X211515D01*
X212348Y92520D01*
X212667Y93500D01*
X382812Y104250D02*
X384063D01*
X382812D02*
Y106750D01*
X384063D01*
Y108000D01*
X386562D01*
Y106750D02*
Y108000D01*
Y106750D02*
X387812D01*
Y104250D02*
Y106750D01*
X386562Y104250D02*
X387812D01*
X386562Y103000D02*
Y104250D01*
X384063Y103000D02*
X386562D01*
X384063D02*
Y104250D01*
Y89250D02*
X385313Y88000D01*
X382812Y89250D02*
X384063D01*
X382812D02*
X384063Y90500D01*
X382812Y91750D02*
X384063Y90500D01*
X382812Y91750D02*
X384063D01*
X385313Y93000D01*
X386562Y91750D01*
X387812D01*
X386562Y90500D02*
X387812Y91750D01*
X386562Y90500D02*
X387812Y89250D01*
X386562D02*
X387812D01*
X385313Y88000D02*
X386562Y89250D01*
X385313Y73000D02*
X387812Y78000D01*
X382812D02*
X387812D01*
X382812D02*
X385313Y73000D01*
X382812Y58000D02*
X385313Y59250D01*
X387812Y58000D01*
X386562Y60500D02*
X387812Y58000D01*
X386562Y60500D02*
X387812Y63000D01*
X385313Y61750D02*
X387812Y63000D01*
X382812D02*
X385313Y61750D01*
X382812Y63000D02*
X384063Y60500D01*
X382812Y58000D02*
X384063Y60500D01*
X116444Y259009D02*
X117277D01*
X116444D02*
Y260676D01*
X117277D01*
Y261509D01*
X118944D01*
Y260676D02*
Y261509D01*
Y260676D02*
X119777D01*
Y259009D02*
Y260676D01*
X118944Y259009D02*
X119777D01*
X118944Y258176D02*
Y259009D01*
X117277Y258176D02*
X118944D01*
X117277D02*
Y259009D01*
X116444Y117277D02*
X117277D01*
X116444D02*
Y118944D01*
X117277D01*
Y119777D01*
X118944D01*
Y118944D02*
Y119777D01*
Y118944D02*
X119777D01*
Y117277D02*
Y118944D01*
X118944Y117277D02*
X119777D01*
X118944Y116444D02*
Y117277D01*
X117277Y116444D02*
X118944D01*
X117277D02*
Y117277D01*
X183373Y259009D02*
X184206D01*
X183373D02*
Y260676D01*
X184206D01*
Y261509D01*
X185873D01*
Y260676D02*
Y261509D01*
Y260676D02*
X186706D01*
Y259009D02*
Y260676D01*
X185873Y259009D02*
X186706D01*
X185873Y258176D02*
Y259009D01*
X184206Y258176D02*
X185873D01*
X184206D02*
Y259009D01*
X183373Y117277D02*
X184206D01*
X183373D02*
Y118944D01*
X184206D01*
Y119777D01*
X185873D01*
Y118944D02*
Y119777D01*
Y118944D02*
X186706D01*
Y117277D02*
Y118944D01*
X185873Y117277D02*
X186706D01*
X185873Y116444D02*
Y117277D01*
X184206Y116444D02*
X185873D01*
X184206D02*
Y117277D01*
X20833Y329223D02*
X22500Y330056D01*
X24167Y329223D01*
X23333Y330890D02*
X24167Y329223D01*
X23333Y330890D02*
X24167Y332556D01*
X22500Y331723D02*
X24167Y332556D01*
X20833D02*
X22500Y331723D01*
X20833Y332556D02*
X21667Y330890D01*
X20833Y329223D02*
X21667Y330890D01*
X20833Y315444D02*
X22500Y316277D01*
X24167Y315444D01*
X23333Y317110D02*
X24167Y315444D01*
X23333Y317110D02*
X24167Y318777D01*
X22500Y317944D02*
X24167Y318777D01*
X20833D02*
X22500Y317944D01*
X20833Y318777D02*
X21667Y317110D01*
X20833Y315444D02*
X21667Y317110D01*
X34944Y137333D02*
X36610Y138167D01*
X38277Y137333D01*
X37444Y139000D02*
X38277Y137333D01*
X37444Y139000D02*
X38277Y140667D01*
X36610Y139833D02*
X38277Y140667D01*
X34944D02*
X36610Y139833D01*
X34944Y140667D02*
X35777Y139000D01*
X34944Y137333D02*
X35777Y139000D01*
X48723Y137333D02*
X50390Y138167D01*
X52056Y137333D01*
X51223Y139000D02*
X52056Y137333D01*
X51223Y139000D02*
X52056Y140667D01*
X50390Y139833D02*
X52056Y140667D01*
X48723D02*
X50390Y139833D01*
X48723Y140667D02*
X49556Y139000D01*
X48723Y137333D02*
X49556Y139000D01*
X114833Y46944D02*
X116500Y47777D01*
X118167Y46944D01*
X117333Y48610D02*
X118167Y46944D01*
X117333Y48610D02*
X118167Y50277D01*
X116500Y49444D02*
X118167Y50277D01*
X114833D02*
X116500Y49444D01*
X114833Y50277D02*
X115667Y48610D01*
X114833Y46944D02*
X115667Y48610D01*
X114833Y60723D02*
X116500Y61556D01*
X118167Y60723D01*
X117333Y62390D02*
X118167Y60723D01*
X117333Y62390D02*
X118167Y64056D01*
X116500Y63223D02*
X118167Y64056D01*
X114833D02*
X116500Y63223D01*
X114833Y64056D02*
X115667Y62390D01*
X114833Y60723D02*
X115667Y62390D01*
X243833Y14944D02*
X245500Y15777D01*
X247167Y14944D01*
X246333Y16610D02*
X247167Y14944D01*
X246333Y16610D02*
X247167Y18277D01*
X245500Y17444D02*
X247167Y18277D01*
X243833D02*
X245500Y17444D01*
X243833Y18277D02*
X244667Y16610D01*
X243833Y14944D02*
X244667Y16610D01*
X243833Y28723D02*
X245500Y29556D01*
X247167Y28723D01*
X246333Y30390D02*
X247167Y28723D01*
X246333Y30390D02*
X247167Y32056D01*
X245500Y31223D02*
X247167Y32056D01*
X243833D02*
X245500Y31223D01*
X243833Y32056D02*
X244667Y30390D01*
X243833Y28723D02*
X244667Y30390D01*
X240333Y327944D02*
X242000Y328777D01*
X243667Y327944D01*
X242833Y329610D02*
X243667Y327944D01*
X242833Y329610D02*
X243667Y331277D01*
X242000Y330444D02*
X243667Y331277D01*
X240333D02*
X242000Y330444D01*
X240333Y331277D02*
X241167Y329610D01*
X240333Y327944D02*
X241167Y329610D01*
X240333Y341723D02*
X242000Y342556D01*
X243667Y341723D01*
X242833Y343390D02*
X243667Y341723D01*
X242833Y343390D02*
X243667Y345056D01*
X242000Y344223D02*
X243667Y345056D01*
X240333D02*
X242000Y344223D01*
X240333Y345056D02*
X241167Y343390D01*
X240333Y341723D02*
X241167Y343390D01*
X150833Y52833D02*
X152500Y53667D01*
X154167Y52833D01*
X153333Y54500D02*
X154167Y52833D01*
X153333Y54500D02*
X154167Y56167D01*
X152500Y55333D02*
X154167Y56167D01*
X150833D02*
X152500Y55333D01*
X150833Y56167D02*
X151667Y54500D01*
X150833Y52833D02*
X151667Y54500D01*
X150833Y62833D02*
X152500Y63667D01*
X154167Y62833D01*
X153333Y64500D02*
X154167Y62833D01*
X153333Y64500D02*
X154167Y66167D01*
X152500Y65333D02*
X154167Y66167D01*
X150833D02*
X152500Y65333D01*
X150833Y66167D02*
X151667Y64500D01*
X150833Y62833D02*
X151667Y64500D01*
X150833Y12833D02*
X152500Y13667D01*
X154167Y12833D01*
X153333Y14500D02*
X154167Y12833D01*
X153333Y14500D02*
X154167Y16167D01*
X152500Y15333D02*
X154167Y16167D01*
X150833D02*
X152500Y15333D01*
X150833Y16167D02*
X151667Y14500D01*
X150833Y12833D02*
X151667Y14500D01*
X150833Y22833D02*
X152500Y23667D01*
X154167Y22833D01*
X153333Y24500D02*
X154167Y22833D01*
X153333Y24500D02*
X154167Y26167D01*
X152500Y25333D02*
X154167Y26167D01*
X150833D02*
X152500Y25333D01*
X150833Y26167D02*
X151667Y24500D01*
X150833Y22833D02*
X151667Y24500D01*
X150833Y32833D02*
X152500Y33667D01*
X154167Y32833D01*
X153333Y34500D02*
X154167Y32833D01*
X153333Y34500D02*
X154167Y36167D01*
X152500Y35333D02*
X154167Y36167D01*
X150833D02*
X152500Y35333D01*
X150833Y36167D02*
X151667Y34500D01*
X150833Y32833D02*
X151667Y34500D01*
X150833Y42833D02*
X152500Y43667D01*
X154167Y42833D01*
X153333Y44500D02*
X154167Y42833D01*
X153333Y44500D02*
X154167Y46167D01*
X152500Y45333D02*
X154167Y46167D01*
X150833D02*
X152500Y45333D01*
X150833Y46167D02*
X151667Y44500D01*
X150833Y42833D02*
X151667Y44500D01*
X246017Y210667D02*
X246850Y209833D01*
X245184Y210667D02*
X246017D01*
X245184D02*
X246017Y211500D01*
X245184Y212333D02*
X246017Y211500D01*
X245184Y212333D02*
X246017D01*
X246850Y213167D01*
X247684Y212333D01*
X248517D01*
X247684Y211500D02*
X248517Y212333D01*
X247684Y211500D02*
X248517Y210667D01*
X247684D02*
X248517D01*
X246850Y209833D02*
X247684Y210667D01*
X266096Y205667D02*
X266929Y204833D01*
X265263Y205667D02*
X266096D01*
X265263D02*
X266096Y206500D01*
X265263Y207333D02*
X266096Y206500D01*
X265263Y207333D02*
X266096D01*
X266929Y208167D01*
X267762Y207333D01*
X268596D01*
X267762Y206500D02*
X268596Y207333D01*
X267762Y206500D02*
X268596Y205667D01*
X267762D02*
X268596D01*
X266929Y204833D02*
X267762Y205667D01*
X266096Y195667D02*
X266929Y194833D01*
X265263Y195667D02*
X266096D01*
X265263D02*
X266096Y196500D01*
X265263Y197333D02*
X266096Y196500D01*
X265263Y197333D02*
X266096D01*
X266929Y198167D01*
X267762Y197333D01*
X268596D01*
X267762Y196500D02*
X268596Y197333D01*
X267762Y196500D02*
X268596Y195667D01*
X267762D02*
X268596D01*
X266929Y194833D02*
X267762Y195667D01*
X266096Y185667D02*
X266929Y184833D01*
X265263Y185667D02*
X266096D01*
X265263D02*
X266096Y186500D01*
X265263Y187333D02*
X266096Y186500D01*
X265263Y187333D02*
X266096D01*
X266929Y188167D01*
X267762Y187333D01*
X268596D01*
X267762Y186500D02*
X268596Y187333D01*
X267762Y186500D02*
X268596Y185667D01*
X267762D02*
X268596D01*
X266929Y184833D02*
X267762Y185667D01*
X246017Y200667D02*
X246850Y199833D01*
X245184Y200667D02*
X246017D01*
X245184D02*
X246017Y201500D01*
X245184Y202333D02*
X246017Y201500D01*
X245184Y202333D02*
X246017D01*
X246850Y203167D01*
X247684Y202333D01*
X248517D01*
X247684Y201500D02*
X248517Y202333D01*
X247684Y201500D02*
X248517Y200667D01*
X247684D02*
X248517D01*
X246850Y199833D02*
X247684Y200667D01*
X246017Y190667D02*
X246850Y189833D01*
X245184Y190667D02*
X246017D01*
X245184D02*
X246017Y191500D01*
X245184Y192333D02*
X246017Y191500D01*
X245184Y192333D02*
X246017D01*
X246850Y193167D01*
X247684Y192333D01*
X248517D01*
X247684Y191500D02*
X248517Y192333D01*
X247684Y191500D02*
X248517Y190667D01*
X247684D02*
X248517D01*
X246850Y189833D02*
X247684Y190667D01*
X246017Y180667D02*
X246850Y179833D01*
X245184Y180667D02*
X246017D01*
X245184D02*
X246017Y181500D01*
X245184Y182333D02*
X246017Y181500D01*
X245184Y182333D02*
X246017D01*
X246850Y183167D01*
X247684Y182333D01*
X248517D01*
X247684Y181500D02*
X248517Y182333D01*
X247684Y181500D02*
X248517Y180667D01*
X247684D02*
X248517D01*
X246850Y179833D02*
X247684Y180667D01*
X246017Y250667D02*
X246850Y249833D01*
X245184Y250667D02*
X246017D01*
X245184D02*
X246017Y251500D01*
X245184Y252333D02*
X246017Y251500D01*
X245184Y252333D02*
X246017D01*
X246850Y253167D01*
X247684Y252333D01*
X248517D01*
X247684Y251500D02*
X248517Y252333D01*
X247684Y251500D02*
X248517Y250667D01*
X247684D02*
X248517D01*
X246850Y249833D02*
X247684Y250667D01*
X246017Y240667D02*
X246850Y239833D01*
X245184Y240667D02*
X246017D01*
X245184D02*
X246017Y241500D01*
X245184Y242333D02*
X246017Y241500D01*
X245184Y242333D02*
X246017D01*
X246850Y243167D01*
X247684Y242333D01*
X248517D01*
X247684Y241500D02*
X248517Y242333D01*
X247684Y241500D02*
X248517Y240667D01*
X247684D02*
X248517D01*
X246850Y239833D02*
X247684Y240667D01*
X246017Y230667D02*
X246850Y229833D01*
X245184Y230667D02*
X246017D01*
X245184D02*
X246017Y231500D01*
X245184Y232333D02*
X246017Y231500D01*
X245184Y232333D02*
X246017D01*
X246850Y233167D01*
X247684Y232333D01*
X248517D01*
X247684Y231500D02*
X248517Y232333D01*
X247684Y231500D02*
X248517Y230667D01*
X247684D02*
X248517D01*
X246850Y229833D02*
X247684Y230667D01*
X266096Y245667D02*
X266929Y244833D01*
X265263Y245667D02*
X266096D01*
X265263D02*
X266096Y246500D01*
X265263Y247333D02*
X266096Y246500D01*
X265263Y247333D02*
X266096D01*
X266929Y248167D01*
X267762Y247333D01*
X268596D01*
X267762Y246500D02*
X268596Y247333D01*
X267762Y246500D02*
X268596Y245667D01*
X267762D02*
X268596D01*
X266929Y244833D02*
X267762Y245667D01*
X266096Y235667D02*
X266929Y234833D01*
X265263Y235667D02*
X266096D01*
X265263D02*
X266096Y236500D01*
X265263Y237333D02*
X266096Y236500D01*
X265263Y237333D02*
X266096D01*
X266929Y238167D01*
X267762Y237333D01*
X268596D01*
X267762Y236500D02*
X268596Y237333D01*
X267762Y236500D02*
X268596Y235667D01*
X267762D02*
X268596D01*
X266929Y234833D02*
X267762Y235667D01*
X266096Y225667D02*
X266929Y224833D01*
X265263Y225667D02*
X266096D01*
X265263D02*
X266096Y226500D01*
X265263Y227333D02*
X266096Y226500D01*
X265263Y227333D02*
X266096D01*
X266929Y228167D01*
X267762Y227333D01*
X268596D01*
X267762Y226500D02*
X268596Y227333D01*
X267762Y226500D02*
X268596Y225667D01*
X267762D02*
X268596D01*
X266929Y224833D02*
X267762Y225667D01*
X246017Y220667D02*
X246850Y219833D01*
X245184Y220667D02*
X246017D01*
X245184D02*
X246017Y221500D01*
X245184Y222333D02*
X246017Y221500D01*
X245184Y222333D02*
X246017D01*
X246850Y223167D01*
X247684Y222333D01*
X248517D01*
X247684Y221500D02*
X248517Y222333D01*
X247684Y221500D02*
X248517Y220667D01*
X247684D02*
X248517D01*
X246850Y219833D02*
X247684Y220667D01*
X266096Y215667D02*
X266929Y214833D01*
X265263Y215667D02*
X266096D01*
X265263D02*
X266096Y216500D01*
X265263Y217333D02*
X266096Y216500D01*
X265263Y217333D02*
X266096D01*
X266929Y218167D01*
X267762Y217333D01*
X268596D01*
X267762Y216500D02*
X268596Y217333D01*
X267762Y216500D02*
X268596Y215667D01*
X267762D02*
X268596D01*
X266929Y214833D02*
X267762Y215667D01*
X149833Y313833D02*
X151500Y314667D01*
X153167Y313833D01*
X152333Y315500D02*
X153167Y313833D01*
X152333Y315500D02*
X153167Y317167D01*
X151500Y316333D02*
X153167Y317167D01*
X149833D02*
X151500Y316333D01*
X149833Y317167D02*
X150667Y315500D01*
X149833Y313833D02*
X150667Y315500D01*
X149833Y303833D02*
X151500Y304667D01*
X153167Y303833D01*
X152333Y305500D02*
X153167Y303833D01*
X152333Y305500D02*
X153167Y307167D01*
X151500Y306333D02*
X153167Y307167D01*
X149833D02*
X151500Y306333D01*
X149833Y307167D02*
X150667Y305500D01*
X149833Y303833D02*
X150667Y305500D01*
X149833Y353833D02*
X151500Y354667D01*
X153167Y353833D01*
X152333Y355500D02*
X153167Y353833D01*
X152333Y355500D02*
X153167Y357167D01*
X151500Y356333D02*
X153167Y357167D01*
X149833D02*
X151500Y356333D01*
X149833Y357167D02*
X150667Y355500D01*
X149833Y353833D02*
X150667Y355500D01*
X149833Y343833D02*
X151500Y344667D01*
X153167Y343833D01*
X152333Y345500D02*
X153167Y343833D01*
X152333Y345500D02*
X153167Y347167D01*
X151500Y346333D02*
X153167Y347167D01*
X149833D02*
X151500Y346333D01*
X149833Y347167D02*
X150667Y345500D01*
X149833Y343833D02*
X150667Y345500D01*
X149833Y333833D02*
X151500Y334667D01*
X153167Y333833D01*
X152333Y335500D02*
X153167Y333833D01*
X152333Y335500D02*
X153167Y337167D01*
X151500Y336333D02*
X153167Y337167D01*
X149833D02*
X151500Y336333D01*
X149833Y337167D02*
X150667Y335500D01*
X149833Y333833D02*
X150667Y335500D01*
X149833Y323833D02*
X151500Y324667D01*
X153167Y323833D01*
X152333Y325500D02*
X153167Y323833D01*
X152333Y325500D02*
X153167Y327167D01*
X151500Y326333D02*
X153167Y327167D01*
X149833D02*
X151500Y326333D01*
X149833Y327167D02*
X150667Y325500D01*
X149833Y323833D02*
X150667Y325500D01*
X213333Y280833D02*
X215000Y281667D01*
X216667Y280833D01*
X215833Y282500D02*
X216667Y280833D01*
X215833Y282500D02*
X216667Y284167D01*
X215000Y283333D02*
X216667Y284167D01*
X213333D02*
X215000Y283333D01*
X213333Y284167D02*
X214167Y282500D01*
X213333Y280833D02*
X214167Y282500D01*
X213333Y260833D02*
X215000Y261667D01*
X216667Y260833D01*
X215833Y262500D02*
X216667Y260833D01*
X215833Y262500D02*
X216667Y264167D01*
X215000Y263333D02*
X216667Y264167D01*
X213333D02*
X215000Y263333D01*
X213333Y264167D02*
X214167Y262500D01*
X213333Y260833D02*
X214167Y262500D01*
X198833Y71833D02*
X200500Y72667D01*
X202167Y71833D01*
X201333Y73500D02*
X202167Y71833D01*
X201333Y73500D02*
X202167Y75167D01*
X200500Y74333D02*
X202167Y75167D01*
X198833D02*
X200500Y74333D01*
X198833Y75167D02*
X199667Y73500D01*
X198833Y71833D02*
X199667Y73500D01*
X198833Y91833D02*
X200500Y92667D01*
X202167Y91833D01*
X201333Y93500D02*
X202167Y91833D01*
X201333Y93500D02*
X202167Y95167D01*
X200500Y94333D02*
X202167Y95167D01*
X198833D02*
X200500Y94333D01*
X198833Y95167D02*
X199667Y93500D01*
X198833Y91833D02*
X199667Y93500D01*
X80248Y51833D02*
X81915Y55167D01*
X78581D02*
X81915D01*
X78581D02*
X80248Y51833D01*
Y61833D02*
X81915Y65167D01*
X78581D02*
X81915D01*
X78581D02*
X80248Y61833D01*
Y41833D02*
X81915Y45167D01*
X78581D02*
X81915D01*
X78581D02*
X80248Y41833D01*
Y71833D02*
X81915Y75167D01*
X78581D02*
X81915D01*
X78581D02*
X80248Y71833D01*
X48752Y41833D02*
X50419Y45167D01*
X47085D02*
X50419D01*
X47085D02*
X48752Y41833D01*
Y61833D02*
X50419Y65167D01*
X47085D02*
X50419D01*
X47085D02*
X48752Y61833D01*
Y51833D02*
X50419Y55167D01*
X47085D02*
X50419D01*
X47085D02*
X48752Y51833D01*
Y71833D02*
X50419Y75167D01*
X47085D02*
X50419D01*
X47085D02*
X48752Y71833D01*
X58752Y325333D02*
X60419Y328667D01*
X57085D02*
X60419D01*
X57085D02*
X58752Y325333D01*
Y315333D02*
X60419Y318667D01*
X57085D02*
X60419D01*
X57085D02*
X58752Y315333D01*
Y335333D02*
X60419Y338667D01*
X57085D02*
X60419D01*
X57085D02*
X58752Y335333D01*
Y305333D02*
X60419Y308667D01*
X57085D02*
X60419D01*
X57085D02*
X58752Y305333D01*
X90248Y335333D02*
X91915Y338667D01*
X88581D02*
X91915D01*
X88581D02*
X90248Y335333D01*
Y315333D02*
X91915Y318667D01*
X88581D02*
X91915D01*
X88581D02*
X90248Y315333D01*
Y325333D02*
X91915Y328667D01*
X88581D02*
X91915D01*
X88581D02*
X90248Y325333D01*
Y305333D02*
X91915Y308667D01*
X88581D02*
X91915D01*
X88581D02*
X90248Y305333D01*
X60000Y204581D02*
X61667Y207915D01*
X58333D02*
X61667D01*
X58333D02*
X60000Y204581D01*
X40000D02*
X41667Y207915D01*
X38333D02*
X41667D01*
X38333D02*
X40000Y204581D01*
X50000D02*
X51667Y207915D01*
X48333D02*
X51667D01*
X48333D02*
X50000Y204581D01*
X30000D02*
X31667Y207915D01*
X28333D02*
X31667D01*
X28333D02*
X30000Y204581D01*
X60000Y173085D02*
X61667Y176419D01*
X58333D02*
X61667D01*
X58333D02*
X60000Y173085D01*
X30000D02*
X31667Y176419D01*
X28333D02*
X31667D01*
X28333D02*
X30000Y173085D01*
X50000D02*
X51667Y176419D01*
X48333D02*
X51667D01*
X48333D02*
X50000Y173085D01*
X40000D02*
X41667Y176419D01*
X38333D02*
X41667D01*
X38333D02*
X40000Y173085D01*
X292333Y93833D02*
X294000Y94667D01*
X295667Y93833D01*
X294833Y95500D02*
X295667Y93833D01*
X294833Y95500D02*
X295667Y97167D01*
X294000Y96333D02*
X295667Y97167D01*
X292333D02*
X294000Y96333D01*
X292333Y97167D02*
X293167Y95500D01*
X292333Y93833D02*
X293167Y95500D01*
X292333Y113833D02*
X294000Y114667D01*
X295667Y113833D01*
X294833Y115500D02*
X295667Y113833D01*
X294833Y115500D02*
X295667Y117167D01*
X294000Y116333D02*
X295667Y117167D01*
X292333D02*
X294000Y116333D01*
X292333Y117167D02*
X293167Y115500D01*
X292333Y113833D02*
X293167Y115500D01*
Y144167D02*
X294000Y143333D01*
X292333Y144167D02*
X293167D01*
X292333D02*
X293167Y145000D01*
X292333Y145833D02*
X293167Y145000D01*
X292333Y145833D02*
X293167D01*
X294000Y146667D01*
X294833Y145833D01*
X295667D01*
X294833Y145000D02*
X295667Y145833D01*
X294833Y145000D02*
X295667Y144167D01*
X294833D02*
X295667D01*
X294000Y143333D02*
X294833Y144167D01*
X293167Y154167D02*
X294000Y153333D01*
X292333Y154167D02*
X293167D01*
X292333D02*
X293167Y155000D01*
X292333Y155833D02*
X293167Y155000D01*
X292333Y155833D02*
X293167D01*
X294000Y156667D01*
X294833Y155833D01*
X295667D01*
X294833Y155000D02*
X295667Y155833D01*
X294833Y155000D02*
X295667Y154167D01*
X294833D02*
X295667D01*
X294000Y153333D02*
X294833Y154167D01*
G54D57*
X376000Y113500D02*
X763897D01*
X376000Y38500D02*
X763897D01*
X376000Y23500D02*
X763897D01*
Y128500D01*
X376000D02*
X763897D01*
X376000Y23500D02*
Y128500D01*
X686017Y23500D02*
Y128500D01*
X635429Y23500D02*
Y128500D01*
X500869Y23500D02*
Y128500D01*
X431088Y23500D02*
Y128500D01*
G54D58*
X690517Y125198D02*
Y118000D01*
Y121599D01*
X695315D01*
Y125198D01*
Y118000D01*
X698914D02*
X701313D01*
X702513Y119200D01*
Y121599D01*
X701313Y122799D01*
X698914D01*
X697715Y121599D01*
Y119200D01*
X698914Y118000D01*
X704912D02*
X707311D01*
X706112D01*
Y125198D01*
X704912D01*
X714509Y118000D02*
X712110D01*
X710910Y119200D01*
Y121599D01*
X712110Y122799D01*
X714509D01*
X715709Y121599D01*
Y120399D01*
X710910D01*
X725306Y125198D02*
X730104D01*
X727705D01*
Y118000D01*
X732503Y122799D02*
Y119200D01*
X733703Y118000D01*
X737302D01*
Y116800D01*
X736102Y115601D01*
X734902D01*
X737302Y118000D02*
Y122799D01*
X739701Y115601D02*
Y122799D01*
X743300D01*
X744499Y121599D01*
Y119200D01*
X743300Y118000D01*
X739701D01*
X750497D02*
X748098D01*
X746899Y119200D01*
Y121599D01*
X748098Y122799D01*
X750497D01*
X751697Y121599D01*
Y120399D01*
X746899D01*
X639929Y118000D02*
Y125198D01*
X643528D01*
X644728Y123998D01*
Y121599D01*
X643528Y120399D01*
X639929D01*
X647127Y118000D02*
X649526D01*
X648327D01*
Y125198D01*
X647127D01*
X654325Y122799D02*
X656724D01*
X657924Y121599D01*
Y118000D01*
X654325D01*
X653125Y119200D01*
X654325Y120399D01*
X657924D01*
X661522Y123998D02*
Y122799D01*
X660323D01*
X662722D01*
X661522D01*
Y119200D01*
X662722Y118000D01*
X669920D02*
X667520D01*
X666321Y119200D01*
Y121599D01*
X667520Y122799D01*
X669920D01*
X671119Y121599D01*
Y120399D01*
X666321D01*
X678317Y125198D02*
Y118000D01*
X674718D01*
X673519Y119200D01*
Y121599D01*
X674718Y122799D01*
X678317D01*
X510167Y125198D02*
X505369D01*
Y121599D01*
X507768D01*
X505369D01*
Y118000D01*
X512567D02*
X514966D01*
X513766D01*
Y122799D01*
X512567D01*
X518565Y118000D02*
Y122799D01*
X522163D01*
X523363Y121599D01*
Y118000D01*
X525762D02*
X528161D01*
X526962D01*
Y122799D01*
X525762D01*
X531760Y118000D02*
X535359D01*
X536559Y119200D01*
X535359Y120399D01*
X532960D01*
X531760Y121599D01*
X532960Y122799D01*
X536559D01*
X538958Y125198D02*
Y118000D01*
Y121599D01*
X540158Y122799D01*
X542557D01*
X543756Y121599D01*
Y118000D01*
X549755D02*
X547355D01*
X546156Y119200D01*
Y121599D01*
X547355Y122799D01*
X549755D01*
X550954Y121599D01*
Y120399D01*
X546156D01*
X558152Y125198D02*
Y118000D01*
X554553D01*
X553353Y119200D01*
Y121599D01*
X554553Y122799D01*
X558152D01*
X567749Y125198D02*
Y118000D01*
Y121599D01*
X572547D01*
Y125198D01*
Y118000D01*
X576146D02*
X578545D01*
X579745Y119200D01*
Y121599D01*
X578545Y122799D01*
X576146D01*
X574946Y121599D01*
Y119200D01*
X576146Y118000D01*
X582144D02*
X584543D01*
X583344D01*
Y125198D01*
X582144D01*
X591741Y118000D02*
X589342D01*
X588142Y119200D01*
Y121599D01*
X589342Y122799D01*
X591741D01*
X592941Y121599D01*
Y120399D01*
X588142D01*
X607336Y123998D02*
X606136Y125198D01*
X603737D01*
X602537Y123998D01*
Y122799D01*
X603737Y121599D01*
X606136D01*
X607336Y120399D01*
Y119200D01*
X606136Y118000D01*
X603737D01*
X602537Y119200D01*
X609735Y118000D02*
X612134D01*
X610935D01*
Y122799D01*
X609735D01*
X615733D02*
X620532D01*
X615733Y118000D01*
X620532D01*
X626530D02*
X624130D01*
X622931Y119200D01*
Y121599D01*
X624130Y122799D01*
X626530D01*
X627729Y121599D01*
Y120399D01*
X622931D01*
X435588Y125198D02*
Y118000D01*
Y121599D01*
X440386D01*
Y125198D01*
Y118000D01*
X442785D02*
X445185D01*
X443985D01*
Y122799D01*
X442785D01*
X449983Y123998D02*
Y122799D01*
X448783D01*
X451183D01*
X449983D01*
Y119200D01*
X451183Y118000D01*
X466778Y123998D02*
X465578Y125198D01*
X463179D01*
X461979Y123998D01*
Y119200D01*
X463179Y118000D01*
X465578D01*
X466778Y119200D01*
X470376Y118000D02*
X472776D01*
X473975Y119200D01*
Y121599D01*
X472776Y122799D01*
X470376D01*
X469177Y121599D01*
Y119200D01*
X470376Y118000D01*
X476374Y122799D02*
Y119200D01*
X477574Y118000D01*
X481173D01*
Y122799D01*
X483572Y118000D02*
Y122799D01*
X487171D01*
X488371Y121599D01*
Y118000D01*
X491969Y123998D02*
Y122799D01*
X490770D01*
X493169D01*
X491969D01*
Y119200D01*
X493169Y118000D01*
X389798Y123998D02*
X388599Y125198D01*
X386200D01*
X385000Y123998D01*
Y122799D01*
X386200Y121599D01*
X388599D01*
X389798Y120399D01*
Y119200D01*
X388599Y118000D01*
X386200D01*
X385000Y119200D01*
X392198Y122799D02*
Y119200D01*
X393397Y118000D01*
X396996D01*
Y116800D01*
X395796Y115601D01*
X394597D01*
X396996Y118000D02*
Y122799D01*
X399395Y118000D02*
Y122799D01*
X400595D01*
X401795Y121599D01*
Y118000D01*
Y121599D01*
X402994Y122799D01*
X404194Y121599D01*
Y118000D01*
X406593Y125198D02*
Y118000D01*
X410192D01*
X411391Y119200D01*
Y120399D01*
Y121599D01*
X410192Y122799D01*
X406593D01*
X414990Y118000D02*
X417389D01*
X418589Y119200D01*
Y121599D01*
X417389Y122799D01*
X414990D01*
X413791Y121599D01*
Y119200D01*
X414990Y118000D01*
X420988D02*
X423388D01*
X422188D01*
Y125198D01*
X420988D01*
G54D59*
X-62901Y156448D02*
X-61901Y157448D01*
Y159447D01*
X-62901Y160447D01*
X-66899D01*
X-67899Y159447D01*
Y157448D01*
X-66899Y156448D01*
X-65900D01*
X-64900Y157448D01*
Y160447D01*
X-61901Y165445D02*
X-67899D01*
X-64900Y162446D01*
Y166445D01*
X-61901Y168444D02*
X-62901D01*
Y169444D01*
X-61901D01*
Y168444D01*
X-66899Y173443D02*
X-67899Y174442D01*
Y176442D01*
X-66899Y177441D01*
X-62901D01*
X-61901Y176442D01*
Y174442D01*
X-62901Y173443D01*
X-66899D01*
Y179441D02*
X-67899Y180440D01*
Y182440D01*
X-66899Y183439D01*
X-62901D01*
X-61901Y182440D01*
Y180440D01*
X-62901Y179441D01*
X-66899D01*
X-61901Y193436D02*
X-63900Y191437D01*
X-65900D01*
X-67899Y193436D01*
X-61901Y196435D02*
X-65900D01*
Y197435D01*
X-64900Y198434D01*
X-61901D01*
X-64900D01*
X-65900Y199434D01*
X-64900Y200434D01*
X-61901D01*
Y202433D02*
X-65900D01*
Y203433D01*
X-64900Y204433D01*
X-61901D01*
X-64900D01*
X-65900Y205432D01*
X-64900Y206432D01*
X-61901D01*
Y208431D02*
X-63900Y210431D01*
X-65900D01*
X-67899Y208431D01*
X128889Y386899D02*
X129889Y387899D01*
X131888D01*
X132888Y386899D01*
Y385900D01*
X131888Y384900D01*
X132888Y383900D01*
Y382901D01*
X131888Y381901D01*
X129889D01*
X128889Y382901D01*
Y383900D01*
X129889Y384900D01*
X128889Y385900D01*
Y386899D01*
X129889Y384900D02*
X131888D01*
X134887Y386899D02*
X135887Y387899D01*
X137886D01*
X138886Y386899D01*
Y382901D01*
X137886Y381901D01*
X135887D01*
X134887Y382901D01*
Y386899D01*
X140885Y381901D02*
Y382901D01*
X141885D01*
Y381901D01*
X140885D01*
X145884Y386899D02*
X146883Y387899D01*
X148883D01*
X149882Y386899D01*
Y382901D01*
X148883Y381901D01*
X146883D01*
X145884Y382901D01*
Y386899D01*
X151882D02*
X152881Y387899D01*
X154881D01*
X155880Y386899D01*
Y382901D01*
X154881Y381901D01*
X152881D01*
X151882Y382901D01*
Y386899D01*
X165877Y381901D02*
X163878Y383900D01*
Y385900D01*
X165877Y387899D01*
X168876Y381901D02*
Y385900D01*
X169876D01*
X170876Y384900D01*
Y381901D01*
Y384900D01*
X171875Y385900D01*
X172875Y384900D01*
Y381901D01*
X174874D02*
Y385900D01*
X175874D01*
X176874Y384900D01*
Y381901D01*
Y384900D01*
X177873Y385900D01*
X178873Y384900D01*
Y381901D01*
X180872D02*
X182872Y383900D01*
Y385900D01*
X180872Y387899D01*
M02*
