%FSLAX25Y25*%
%MOIN*%
G70*
G01*
G75*
G04 Layer_Color=255*
%ADD10R,0.04213X0.08504*%
%ADD11R,0.32795X0.31496*%
%ADD12R,0.03937X0.03937*%
%ADD13R,0.03937X0.03937*%
%ADD14R,0.09843X0.09055*%
%ADD15R,0.05906X0.01969*%
%ADD16R,0.01969X0.05906*%
%ADD17C,0.01000*%
%ADD18C,0.02362*%
%ADD19C,0.03937*%
%ADD20C,0.00787*%
%ADD21R,0.40000X0.34016*%
%ADD22R,0.03543X0.06693*%
%ADD23R,0.06693X0.03543*%
%ADD24R,0.03937X0.07087*%
%ADD25R,0.17716X0.15748*%
%ADD26R,0.39370X0.39370*%
%ADD27R,0.07087X0.03937*%
%ADD28R,0.40158X0.25984*%
%ADD29R,0.25984X0.40158*%
%ADD30R,0.19685X0.79528*%
%ADD31R,0.27559X0.27559*%
%ADD32C,0.05906*%
%ADD33R,0.05906X0.05906*%
%ADD34R,0.07284X0.07284*%
%ADD35C,0.07284*%
%ADD36C,0.07874*%
%ADD37C,0.05000*%
%ADD38C,0.15748*%
G54D20*
X511109Y259842D02*
Y370079D01*
Y0D02*
Y118110D01*
X696148Y259842D02*
X578038D01*
X696148Y118110D02*
X578038D01*
X696148Y370079D02*
X381187D01*
X696148Y0D02*
Y370079D01*
X381187Y0D02*
Y370079D01*
X696148Y0D02*
X381187D01*
G54D21*
X442148Y91508D02*
D03*
G54D22*
X472148Y104500D02*
D03*
X618148Y135000D02*
D03*
X587648Y317500D02*
D03*
X666148Y62500D02*
D03*
X468148Y214000D02*
D03*
X403648Y240000D02*
D03*
X508648Y77000D02*
D03*
X491648Y279500D02*
D03*
X505648Y178000D02*
D03*
X578648Y179500D02*
D03*
X680148Y191000D02*
D03*
X646648Y160500D02*
D03*
X635648Y221500D02*
D03*
X657648Y222346D02*
D03*
X415648Y133000D02*
D03*
G54D23*
X428648Y143500D02*
D03*
X677148Y289500D02*
D03*
X577648Y92500D02*
D03*
X648148Y225847D02*
D03*
X537648Y219500D02*
D03*
X541648Y144500D02*
D03*
X559148Y226500D02*
D03*
X630648Y30000D02*
D03*
X620648Y349000D02*
D03*
X601648Y62000D02*
D03*
X651648Y317500D02*
D03*
X665148Y73500D02*
D03*
X591148Y306500D02*
D03*
X662648Y53000D02*
D03*
X591148Y327000D02*
D03*
G54D24*
X689605Y118500D02*
D03*
X688148Y260000D02*
D03*
X555648Y239500D02*
D03*
X548148Y223000D02*
D03*
X517648Y77000D02*
D03*
X499648Y279500D02*
D03*
X581148Y81500D02*
D03*
X673648Y301500D02*
D03*
X635648Y235500D02*
D03*
X646648Y88000D02*
D03*
X605648Y292500D02*
D03*
X616148Y197000D02*
D03*
G54D25*
X494148Y321500D02*
D03*
X409148Y319000D02*
D03*
X494648Y350500D02*
D03*
X409148Y348000D02*
D03*
X490648Y12500D02*
D03*
X410648Y14000D02*
D03*
X491148Y42500D02*
D03*
X409648Y43000D02*
D03*
G54D26*
X541148Y182500D02*
D03*
G54D27*
X678105Y115000D02*
D03*
X677648Y256500D02*
D03*
X481148Y73500D02*
D03*
X468148Y282500D02*
D03*
X628648Y139000D02*
D03*
X679648Y73500D02*
D03*
X575648Y306500D02*
D03*
X620648Y207000D02*
D03*
X635648Y91500D02*
D03*
X617148Y289000D02*
D03*
G54D28*
X651148Y190500D02*
D03*
G54D29*
X621648Y322000D02*
D03*
X631648Y58500D02*
D03*
G54D30*
X421146Y216504D02*
D03*
G54D31*
X454148Y336500D02*
D03*
X450648Y23500D02*
D03*
X579648Y55500D02*
D03*
X652648Y139000D02*
D03*
X673648Y324000D02*
D03*
G54D32*
X402148Y155000D02*
D03*
X429219Y216500D02*
D03*
X449298Y221500D02*
D03*
X429219Y226500D02*
D03*
Y236500D02*
D03*
Y246500D02*
D03*
X449298Y231500D02*
D03*
Y241500D02*
D03*
Y251500D02*
D03*
Y181500D02*
D03*
Y191500D02*
D03*
Y201500D02*
D03*
X429219Y186500D02*
D03*
Y196500D02*
D03*
Y206500D02*
D03*
X449298Y211500D02*
D03*
G54D33*
X402148Y145000D02*
D03*
G54D34*
Y115500D02*
D03*
X495648Y93500D02*
D03*
X481148Y262500D02*
D03*
G54D35*
X402148Y95500D02*
D03*
X495648Y73500D02*
D03*
X481148Y282500D02*
D03*
G54D36*
X656148Y174752D02*
D03*
X646148D02*
D03*
X666148D02*
D03*
X636148D02*
D03*
X666148Y206248D02*
D03*
X646148D02*
D03*
X656148D02*
D03*
X636148D02*
D03*
X605900Y307000D02*
D03*
Y327000D02*
D03*
Y317000D02*
D03*
Y337000D02*
D03*
X637396Y307000D02*
D03*
Y337000D02*
D03*
Y317000D02*
D03*
Y327000D02*
D03*
X647396Y73500D02*
D03*
Y53500D02*
D03*
Y63500D02*
D03*
Y43500D02*
D03*
X615900Y73500D02*
D03*
Y43500D02*
D03*
Y63500D02*
D03*
Y53500D02*
D03*
X544648Y325500D02*
D03*
Y335500D02*
D03*
Y345500D02*
D03*
Y355500D02*
D03*
Y305500D02*
D03*
Y315500D02*
D03*
X543648Y44500D02*
D03*
Y34500D02*
D03*
Y24500D02*
D03*
Y14500D02*
D03*
Y64500D02*
D03*
Y54500D02*
D03*
X454148Y343390D02*
D03*
Y329610D02*
D03*
X450648Y30390D02*
D03*
Y16610D02*
D03*
X579648Y62390D02*
D03*
Y48610D02*
D03*
X645758Y139000D02*
D03*
X659538D02*
D03*
X673648Y317110D02*
D03*
Y330890D02*
D03*
M02*
