%FSLAX25Y25*%
%MOIN*%
G70*
G01*
G75*
%ADD10R,0.04213X0.08504*%
%ADD11R,0.32795X0.31496*%
%ADD12R,0.03937X0.03937*%
%ADD13R,0.03937X0.03937*%
%ADD14R,0.09843X0.09055*%
%ADD15R,0.05906X0.01969*%
%ADD16R,0.01969X0.05906*%
%ADD17C,0.01000*%
%ADD18C,0.02362*%
%ADD19C,0.03937*%
%ADD20C,0.00787*%
%ADD21R,0.40000X0.34016*%
%ADD22R,0.03543X0.06693*%
%ADD23R,0.06693X0.03543*%
%ADD24R,0.03937X0.07087*%
%ADD25R,0.17716X0.15748*%
%ADD26R,0.39370X0.39370*%
%ADD27R,0.07087X0.03937*%
%ADD28R,0.40158X0.25984*%
%ADD29R,0.25984X0.40158*%
%ADD30R,0.19685X0.79528*%
%ADD31R,0.27559X0.27559*%
%ADD32C,0.05906*%
%ADD33R,0.05906X0.05906*%
%ADD34R,0.07284X0.07284*%
%ADD35C,0.07284*%
%ADD36C,0.07874*%
%ADD37C,0.05000*%
%ADD38C,0.15748*%
%ADD39C,0.00984*%
%ADD40C,0.00492*%
%ADD41C,0.00591*%
%ADD42R,0.05013X0.09304*%
%ADD43R,0.33595X0.32296*%
%ADD44R,0.04737X0.04737*%
%ADD45R,0.04737X0.04737*%
%ADD46R,0.10642X0.09855*%
%ADD47R,0.06706X0.02769*%
%ADD48R,0.02769X0.06706*%
%ADD49C,0.06706*%
%ADD50R,0.06706X0.06706*%
%ADD51R,0.08083X0.08083*%
%ADD52C,0.08083*%
%ADD53C,0.08674*%
%ADD54C,0.05800*%
%ADD55C,0.16548*%
%ADD56C,0.00333*%
%ADD57C,0.01500*%
%ADD58C,0.01600*%
%ADD59C,0.00600*%
%ADD60C,0.00500*%
G54D20*
X185039Y259842D02*
Y370079D01*
Y0D02*
Y118110D01*
X0Y259842D02*
X118110D01*
X0Y118110D02*
X118110D01*
X0Y370079D02*
X314961D01*
X0Y0D02*
Y370079D01*
X314961Y0D02*
Y370079D01*
X0Y0D02*
X314961D01*
G54D21*
X254000Y91508D02*
D03*
G54D22*
X224000Y104500D02*
D03*
X78000Y135000D02*
D03*
X108500Y317500D02*
D03*
X30000Y62500D02*
D03*
X228000Y214000D02*
D03*
X292500Y240000D02*
D03*
X187500Y77000D02*
D03*
X204500Y279500D02*
D03*
X190500Y178000D02*
D03*
X117500Y179500D02*
D03*
X16000Y191000D02*
D03*
X49500Y160500D02*
D03*
X60500Y221500D02*
D03*
X38500Y222346D02*
D03*
X280500Y133000D02*
D03*
G54D23*
X267500Y143500D02*
D03*
X19000Y289500D02*
D03*
X118500Y92500D02*
D03*
X48000Y225847D02*
D03*
X158500Y219500D02*
D03*
X154500Y144500D02*
D03*
X137000Y226500D02*
D03*
X65500Y30000D02*
D03*
X75500Y349000D02*
D03*
X94500Y62000D02*
D03*
X44500Y317500D02*
D03*
X31000Y73500D02*
D03*
X105000Y306500D02*
D03*
X33500Y53000D02*
D03*
X105000Y327000D02*
D03*
G54D24*
X6543Y118500D02*
D03*
X8000Y260000D02*
D03*
X140500Y239500D02*
D03*
X148000Y223000D02*
D03*
X178500Y77000D02*
D03*
X196500Y279500D02*
D03*
X115000Y81500D02*
D03*
X22500Y301500D02*
D03*
X60500Y235500D02*
D03*
X49500Y88000D02*
D03*
X90500Y292500D02*
D03*
X80000Y197000D02*
D03*
G54D25*
X202000Y321500D02*
D03*
X287000Y319000D02*
D03*
X201500Y350500D02*
D03*
X287000Y348000D02*
D03*
X205500Y12500D02*
D03*
X285500Y14000D02*
D03*
X205000Y42500D02*
D03*
X286500Y43000D02*
D03*
G54D26*
X155000Y182500D02*
D03*
G54D27*
X18043Y115000D02*
D03*
X18500Y256500D02*
D03*
X215000Y73500D02*
D03*
X228000Y282500D02*
D03*
X67500Y139000D02*
D03*
X16500Y73500D02*
D03*
X120500Y306500D02*
D03*
X75500Y207000D02*
D03*
X60500Y91500D02*
D03*
X79000Y289000D02*
D03*
G54D28*
X45000Y190500D02*
D03*
G54D29*
X74500Y322000D02*
D03*
X64500Y58500D02*
D03*
G54D30*
X275002Y216504D02*
D03*
G54D31*
X242000Y336500D02*
D03*
X245500Y23500D02*
D03*
X116500Y55500D02*
D03*
X43500Y139000D02*
D03*
X22500Y324000D02*
D03*
G54D60*
X292228Y155000D02*
X295772D01*
X294000Y153228D02*
Y156772D01*
X292228Y145000D02*
X295772D01*
X294000Y143228D02*
Y146772D01*
X291835Y115500D02*
X296165D01*
X294000Y113335D02*
Y117665D01*
X291835Y95500D02*
X296165D01*
X294000Y93335D02*
Y97665D01*
X38425Y174752D02*
X41575D01*
X40000Y173177D02*
Y176327D01*
X48425Y174752D02*
X51575D01*
X50000Y173177D02*
Y176327D01*
X28425Y174752D02*
X31575D01*
X30000Y173177D02*
Y176327D01*
X58425Y174752D02*
X61575D01*
X60000Y173177D02*
Y176327D01*
X28425Y206248D02*
X31575D01*
X30000Y204673D02*
Y207823D01*
X48425Y206248D02*
X51575D01*
X50000Y204673D02*
Y207823D01*
X38425Y206248D02*
X41575D01*
X40000Y204673D02*
Y207823D01*
X58425Y206248D02*
X61575D01*
X60000Y204673D02*
Y207823D01*
X88673Y307000D02*
X91823D01*
X90248Y305425D02*
Y308575D01*
X88673Y327000D02*
X91823D01*
X90248Y325425D02*
Y328575D01*
X88673Y317000D02*
X91823D01*
X90248Y315425D02*
Y318575D01*
X88673Y337000D02*
X91823D01*
X90248Y335425D02*
Y338575D01*
X57177Y307000D02*
X60327D01*
X58752Y305425D02*
Y308575D01*
X57177Y337000D02*
X60327D01*
X58752Y335425D02*
Y338575D01*
X57177Y317000D02*
X60327D01*
X58752Y315425D02*
Y318575D01*
X57177Y327000D02*
X60327D01*
X58752Y325425D02*
Y328575D01*
X47177Y73500D02*
X50327D01*
X48752Y71925D02*
Y75075D01*
X47177Y53500D02*
X50327D01*
X48752Y51925D02*
Y55075D01*
X47177Y63500D02*
X50327D01*
X48752Y61925D02*
Y65075D01*
X47177Y43500D02*
X50327D01*
X48752Y41925D02*
Y45075D01*
X78673Y73500D02*
X81823D01*
X80248Y71925D02*
Y75075D01*
X78673Y43500D02*
X81823D01*
X80248Y41925D02*
Y45075D01*
X78673Y63500D02*
X81823D01*
X80248Y61925D02*
Y65075D01*
X78673Y53500D02*
X81823D01*
X80248Y51925D02*
Y55075D01*
X198335Y93500D02*
X202665D01*
X200500Y91335D02*
Y95665D01*
X198335Y73500D02*
X202665D01*
X200500Y71335D02*
Y75665D01*
X212835Y262500D02*
X217165D01*
X215000Y260335D02*
Y264665D01*
X212835Y282500D02*
X217165D01*
X215000Y280335D02*
Y284665D01*
X149335Y325500D02*
X153665D01*
X151500Y323335D02*
Y327665D01*
X149335Y335500D02*
X153665D01*
X151500Y333335D02*
Y337665D01*
X149335Y345500D02*
X153665D01*
X151500Y343335D02*
Y347665D01*
X149335Y355500D02*
X153665D01*
X151500Y353335D02*
Y357665D01*
X149335Y305500D02*
X153665D01*
X151500Y303335D02*
Y307665D01*
X149335Y315500D02*
X153665D01*
X151500Y313335D02*
Y317665D01*
X265158Y216500D02*
X268701D01*
X266929Y214728D02*
Y218272D01*
X245079Y221500D02*
X248622D01*
X246850Y219728D02*
Y223272D01*
X265158Y226500D02*
X268701D01*
X266929Y224728D02*
Y228272D01*
X265158Y236500D02*
X268701D01*
X266929Y234728D02*
Y238272D01*
X265158Y246500D02*
X268701D01*
X266929Y244728D02*
Y248272D01*
X245079Y231500D02*
X248622D01*
X246850Y229728D02*
Y233272D01*
X245079Y241500D02*
X248622D01*
X246850Y239728D02*
Y243272D01*
X245079Y251500D02*
X248622D01*
X246850Y249728D02*
Y253272D01*
X245079Y181500D02*
X248622D01*
X246850Y179728D02*
Y183272D01*
X245079Y191500D02*
X248622D01*
X246850Y189728D02*
Y193272D01*
X245079Y201500D02*
X248622D01*
X246850Y199728D02*
Y203272D01*
X265158Y186500D02*
X268701D01*
X266929Y184728D02*
Y188272D01*
X265158Y196500D02*
X268701D01*
X266929Y194728D02*
Y198272D01*
X265158Y206500D02*
X268701D01*
X266929Y204728D02*
Y208272D01*
X245079Y211500D02*
X248622D01*
X246850Y209728D02*
Y213272D01*
X150335Y44500D02*
X154665D01*
X152500Y42335D02*
Y46665D01*
X150335Y34500D02*
X154665D01*
X152500Y32335D02*
Y36665D01*
X150335Y24500D02*
X154665D01*
X152500Y22335D02*
Y26665D01*
X150335Y14500D02*
X154665D01*
X152500Y12335D02*
Y16665D01*
X150335Y64500D02*
X154665D01*
X152500Y62335D02*
Y66665D01*
X150335Y54500D02*
X154665D01*
X152500Y52335D02*
Y56665D01*
X239835Y343390D02*
X244165D01*
X242000Y341224D02*
Y345555D01*
X239835Y329610D02*
X244165D01*
X242000Y327445D02*
Y331776D01*
X243335Y30390D02*
X247665D01*
X245500Y28224D02*
Y32555D01*
X243335Y16610D02*
X247665D01*
X245500Y14445D02*
Y18776D01*
X114335Y62390D02*
X118665D01*
X116500Y60224D02*
Y64555D01*
X114335Y48610D02*
X118665D01*
X116500Y46445D02*
Y50776D01*
X48224Y139000D02*
X52555D01*
X50390Y136835D02*
Y141165D01*
X34445Y139000D02*
X38776D01*
X36610Y136835D02*
Y141165D01*
X20335Y317110D02*
X24665D01*
X22500Y314945D02*
Y319276D01*
X20335Y330890D02*
X24665D01*
X22500Y328724D02*
Y333055D01*
X209600Y93500D02*
X212400D01*
X211000Y92100D02*
Y94900D01*
X177100Y88500D02*
X179900D01*
X178500Y87100D02*
Y89900D01*
X226100Y58000D02*
X228900D01*
X227500Y56600D02*
Y59400D01*
X252100Y168500D02*
X254900D01*
X253500Y167100D02*
Y169900D01*
X258100Y162000D02*
X260900D01*
X259500Y160600D02*
Y163400D01*
X177165Y118110D02*
X192913D01*
X185039Y110236D02*
Y125984D01*
X177165Y259842D02*
X192913D01*
X185039Y251969D02*
Y267717D01*
X110236Y118110D02*
X125984D01*
X118110Y110236D02*
Y125984D01*
X110236Y259842D02*
X125984D01*
X118110Y251969D02*
Y267717D01*
X180100Y321000D02*
X182900D01*
X181500Y319600D02*
Y322400D01*
X180600Y350500D02*
X183400D01*
X182000Y349100D02*
Y351900D01*
X185600Y13000D02*
X188400D01*
X187000Y11600D02*
Y14400D01*
X184100Y43500D02*
X186900D01*
X185500Y42100D02*
Y44900D01*
X186100Y88500D02*
X188900D01*
X187500Y87100D02*
Y89900D01*
X226600Y225000D02*
X229400D01*
X228000Y223600D02*
Y226400D01*
X291100Y251500D02*
X293900D01*
X292500Y250100D02*
Y252900D01*
X203100Y267500D02*
X205900D01*
X204500Y266100D02*
Y268900D01*
X161100Y153000D02*
X163900D01*
X162500Y151600D02*
Y154400D01*
X166350Y148000D02*
X169150D01*
X167750Y146600D02*
Y149400D01*
X179100Y158500D02*
X181900D01*
X180500Y157100D02*
Y159900D01*
X160447Y226847D02*
X163247D01*
X161846Y225447D02*
Y228246D01*
X123600Y226500D02*
X126400D01*
X125000Y225100D02*
Y227900D01*
X149753Y135653D02*
X152553D01*
X151154Y134254D02*
Y137054D01*
X184100Y202000D02*
X186900D01*
X185500Y200600D02*
Y203400D01*
X173600Y214000D02*
X176400D01*
X175000Y212600D02*
Y215400D01*
X169100Y218500D02*
X171900D01*
X170500Y217100D02*
Y219900D01*
X195754Y174653D02*
X198554D01*
X197153Y173254D02*
Y176054D01*
X157100Y259000D02*
X159900D01*
X158500Y257600D02*
Y260400D01*
X161100Y281500D02*
X163900D01*
X162500Y280100D02*
Y282900D01*
X139100Y220000D02*
X141900D01*
X140500Y218600D02*
Y221400D01*
X128100Y92500D02*
X130900D01*
X129500Y91100D02*
Y93900D01*
X76600Y125000D02*
X79400D01*
X78000Y123600D02*
Y126400D01*
X6100Y289500D02*
X8900D01*
X7500Y288100D02*
Y290900D01*
X113850Y100750D02*
X116650D01*
X115250Y99350D02*
Y102150D01*
X19600Y127000D02*
X22400D01*
X21000Y125600D02*
Y128400D01*
X5143Y132457D02*
X7943D01*
X6543Y131057D02*
Y133857D01*
X87600Y138500D02*
X90400D01*
X89000Y137100D02*
Y139900D01*
X20600Y247500D02*
X23400D01*
X22000Y246100D02*
Y248900D01*
X37100Y240500D02*
X39900D01*
X38500Y239100D02*
Y241900D01*
X11600Y62000D02*
X14400D01*
X13000Y60600D02*
Y63400D01*
X78600Y184000D02*
X81400D01*
X80000Y182600D02*
Y185400D01*
X87600Y183500D02*
X90400D01*
X89000Y182100D02*
Y184900D01*
X87600Y233500D02*
X90400D01*
X89000Y232100D02*
Y234900D01*
X71100Y91500D02*
X73900D01*
X72500Y90100D02*
Y92900D01*
X74057Y280457D02*
X76857D01*
X75457Y279057D02*
Y281857D01*
X122600Y327000D02*
X125400D01*
X124000Y325600D02*
Y328400D01*
X164600Y136500D02*
X167400D01*
X166000Y135100D02*
Y137900D01*
X107600Y174500D02*
X110400D01*
X109000Y173100D02*
Y175900D01*
X116100Y169000D02*
X118900D01*
X117500Y167600D02*
Y170400D01*
X98600Y169500D02*
X101400D01*
X100000Y168100D02*
Y170900D01*
X98600Y162000D02*
X101400D01*
X100000Y160600D02*
Y163400D01*
X129100Y242500D02*
X131900D01*
X130500Y241100D02*
Y243900D01*
X200600Y145000D02*
X203400D01*
X202000Y143600D02*
Y146400D01*
M02*
