%FSLAX25Y25*%
%MOIN*%
G70*
G01*
G75*
G04 Layer_Color=128*
%ADD10R,0.03937X0.03937*%
%ADD11R,0.03937X0.03937*%
%ADD12R,0.01969X0.05906*%
%ADD13R,0.05906X0.01969*%
%ADD14R,0.09843X0.09055*%
%ADD15R,0.32795X0.31496*%
%ADD16R,0.04213X0.08504*%
%ADD17C,0.01000*%
%ADD18C,0.03937*%
%ADD19C,0.02362*%
%ADD20C,0.00787*%
%ADD21R,0.27559X0.27559*%
%ADD22R,0.03543X0.06693*%
%ADD23R,0.19685X0.79528*%
%ADD24R,0.25984X0.40158*%
%ADD25R,0.40158X0.25984*%
%ADD26R,0.06693X0.03543*%
%ADD27R,0.07087X0.03937*%
%ADD28R,0.03937X0.07087*%
%ADD29R,0.39370X0.39370*%
%ADD30R,0.17716X0.15748*%
%ADD31R,0.40000X0.34016*%
%ADD32C,0.07874*%
%ADD33C,0.05906*%
%ADD34C,0.07284*%
%ADD35R,0.07284X0.07284*%
%ADD36R,0.05906X0.05906*%
%ADD37C,0.05000*%
%ADD38C,0.15748*%
%ADD39C,0.00984*%
%ADD40C,0.00492*%
%ADD41C,0.00591*%
%ADD42R,0.04737X0.04737*%
%ADD43R,0.04737X0.04737*%
%ADD44R,0.02769X0.06706*%
%ADD45R,0.06706X0.02769*%
%ADD46R,0.10642X0.09855*%
%ADD47R,0.33595X0.32296*%
%ADD48R,0.05013X0.09304*%
%ADD49C,0.08674*%
%ADD50C,0.06706*%
%ADD51C,0.08083*%
%ADD52R,0.08083X0.08083*%
%ADD53R,0.06706X0.06706*%
%ADD54C,0.05800*%
%ADD55C,0.16548*%
G54D20*
X696148Y118110D02*
X578038D01*
X696148Y259842D02*
X578038D01*
X511109Y0D02*
Y118110D01*
Y259842D02*
Y370079D01*
X696148Y0D02*
X381187D01*
Y370079D01*
X696148Y0D02*
Y370079D01*
X381187D01*
G54D21*
X673648Y324000D02*
D03*
X652648Y139000D02*
D03*
X579648Y55500D02*
D03*
X450648Y23500D02*
D03*
X454148Y336500D02*
D03*
G54D22*
X415648Y133000D02*
D03*
X657648Y222346D02*
D03*
X635648Y221500D02*
D03*
X646648Y160500D02*
D03*
X680148Y191000D02*
D03*
X578648Y179500D02*
D03*
X505648Y178000D02*
D03*
X491648Y279500D02*
D03*
X508648Y77000D02*
D03*
X403648Y240000D02*
D03*
X468148Y214000D02*
D03*
X666148Y62500D02*
D03*
X587648Y317500D02*
D03*
X618148Y135000D02*
D03*
X472148Y104500D02*
D03*
G54D23*
X421146Y216504D02*
D03*
G54D24*
X631648Y58500D02*
D03*
X621648Y322000D02*
D03*
G54D25*
X651148Y190500D02*
D03*
G54D26*
X591148Y327000D02*
D03*
X662648Y53000D02*
D03*
X591148Y306500D02*
D03*
X665148Y73500D02*
D03*
X651648Y317500D02*
D03*
X601648Y62000D02*
D03*
X620648Y349000D02*
D03*
X630648Y30000D02*
D03*
X559148Y226500D02*
D03*
X541648Y144500D02*
D03*
X537648Y219500D02*
D03*
X648148Y225847D02*
D03*
X577648Y92500D02*
D03*
X677148Y289500D02*
D03*
X428648Y143500D02*
D03*
G54D27*
X617148Y289000D02*
D03*
X635648Y91500D02*
D03*
X620648Y207000D02*
D03*
X575648Y306500D02*
D03*
X679648Y73500D02*
D03*
X628648Y139000D02*
D03*
X468148Y282500D02*
D03*
X481148Y73500D02*
D03*
X677648Y256500D02*
D03*
X678105Y115000D02*
D03*
G54D28*
X616148Y197000D02*
D03*
X605648Y292500D02*
D03*
X646648Y88000D02*
D03*
X635648Y235500D02*
D03*
X673648Y301500D02*
D03*
X581148Y81500D02*
D03*
X499648Y279500D02*
D03*
X517648Y77000D02*
D03*
X548148Y223000D02*
D03*
X555648Y239500D02*
D03*
X688148Y260000D02*
D03*
X689605Y118500D02*
D03*
G54D29*
X541148Y182500D02*
D03*
G54D30*
X409648Y43000D02*
D03*
X491148Y42500D02*
D03*
X410648Y14000D02*
D03*
X490648Y12500D02*
D03*
X409148Y348000D02*
D03*
X494648Y350500D02*
D03*
X409148Y319000D02*
D03*
X494148Y321500D02*
D03*
G54D31*
X442148Y91508D02*
D03*
M02*
