%FSLAX25Y25*%
%MOIN*%
G70*
G01*
G75*
G04 Layer_Color=8421504*
%ADD10R,0.21654X0.07874*%
%ADD11R,0.22047X0.22047*%
%ADD12R,0.07874X0.04724*%
%ADD13R,0.00866X0.05906*%
%ADD14R,0.05906X0.00866*%
%ADD15R,0.03937X0.03937*%
%ADD16R,0.03937X0.03937*%
%ADD17R,0.03740X0.02756*%
%ADD18R,0.05118X0.03937*%
%ADD19R,0.06614X0.07874*%
%ADD20R,0.02362X0.05709*%
%ADD21R,0.05709X0.02362*%
%ADD22C,0.03150*%
%ADD23C,0.01063*%
%ADD24C,0.01000*%
%ADD25C,0.00945*%
%ADD26C,0.03937*%
%ADD27R,0.46063X0.19685*%
%ADD28R,0.07087X0.03937*%
%ADD29R,0.66929X0.37402*%
%ADD30R,0.03937X0.07087*%
%ADD31R,0.39370X0.47244*%
%ADD32R,0.51968X0.72835*%
%ADD33R,0.06496X0.02756*%
%ADD34R,0.03543X0.06693*%
%ADD35R,0.08661X0.05709*%
%ADD36R,0.05709X0.08661*%
%ADD37R,0.06693X0.03543*%
%ADD38C,0.04921*%
%ADD39R,0.07874X0.07874*%
%ADD40C,0.00787*%
%ADD41C,0.07874*%
%ADD42C,0.05906*%
%ADD43C,0.13780*%
%ADD44C,0.05000*%
%ADD45C,0.03937*%
%ADD46C,0.01969*%
%ADD47C,0.00394*%
G54D10*
X511849Y165500D02*
D03*
X474447D02*
D03*
G54D11*
X434648Y158500D02*
D03*
G54D12*
X406302Y149642D02*
D03*
Y167358D02*
D03*
G54D13*
X497632Y84559D02*
D03*
X495664D02*
D03*
X493695D02*
D03*
X491727D02*
D03*
X489758D02*
D03*
X487790D02*
D03*
X485821D02*
D03*
X483853D02*
D03*
X481884D02*
D03*
X511412D02*
D03*
X509443D02*
D03*
X507475D02*
D03*
X505506D02*
D03*
X503538D02*
D03*
X501569D02*
D03*
X499601D02*
D03*
Y129441D02*
D03*
X501569D02*
D03*
X503538D02*
D03*
X505506D02*
D03*
X507475D02*
D03*
X509443D02*
D03*
X511412D02*
D03*
X481884D02*
D03*
X483853D02*
D03*
X485821D02*
D03*
X487790D02*
D03*
X489758D02*
D03*
X491727D02*
D03*
X493695D02*
D03*
X495664D02*
D03*
X497632D02*
D03*
G54D14*
X474207Y107984D02*
D03*
Y106016D02*
D03*
Y104047D02*
D03*
Y102079D02*
D03*
Y100110D02*
D03*
Y98142D02*
D03*
Y96173D02*
D03*
Y94205D02*
D03*
Y92236D02*
D03*
Y121764D02*
D03*
Y119795D02*
D03*
Y117827D02*
D03*
Y115858D02*
D03*
Y113890D02*
D03*
Y111921D02*
D03*
Y109953D02*
D03*
X519089D02*
D03*
Y111921D02*
D03*
Y113890D02*
D03*
Y115858D02*
D03*
Y117827D02*
D03*
Y119795D02*
D03*
Y121764D02*
D03*
Y92236D02*
D03*
Y94205D02*
D03*
Y96173D02*
D03*
Y98142D02*
D03*
Y100110D02*
D03*
Y102079D02*
D03*
Y104047D02*
D03*
Y106016D02*
D03*
Y107984D02*
D03*
G54D15*
X515691Y70000D02*
D03*
X508605D02*
D03*
X497302Y150500D02*
D03*
X503995D02*
D03*
X489994Y151000D02*
D03*
X483302D02*
D03*
X490302Y69500D02*
D03*
X496994D02*
D03*
X482995Y138000D02*
D03*
X476302D02*
D03*
X482995Y144000D02*
D03*
X476302D02*
D03*
G54D16*
X525648Y198457D02*
D03*
Y205543D02*
D03*
X509648Y198457D02*
D03*
Y205543D02*
D03*
X413148Y200457D02*
D03*
Y207543D02*
D03*
X394148Y199457D02*
D03*
Y206543D02*
D03*
X449648Y93043D02*
D03*
Y85957D02*
D03*
X447648Y131346D02*
D03*
Y124653D02*
D03*
X426148Y130847D02*
D03*
Y124153D02*
D03*
X529148Y109153D02*
D03*
Y115847D02*
D03*
X464148Y93654D02*
D03*
Y100347D02*
D03*
X526648Y103347D02*
D03*
Y96653D02*
D03*
X464148Y114847D02*
D03*
Y108153D02*
D03*
G54D17*
X439896Y131000D02*
D03*
X433400D02*
D03*
G54D18*
X450148Y70407D02*
D03*
Y78592D02*
D03*
X525648Y212407D02*
D03*
Y220592D02*
D03*
X509648Y212407D02*
D03*
Y220592D02*
D03*
X413148Y215407D02*
D03*
Y223592D02*
D03*
X394148Y215407D02*
D03*
Y223592D02*
D03*
G54D19*
X435648Y68626D02*
D03*
Y84374D02*
D03*
X393148Y68626D02*
D03*
Y84374D02*
D03*
G54D20*
X407317Y136000D02*
D03*
X415979D02*
D03*
G54D21*
X414148Y75669D02*
D03*
Y84331D02*
D03*
X536148Y117331D02*
D03*
Y108669D02*
D03*
X393148Y150169D02*
D03*
Y158831D02*
D03*
G54D27*
X493148Y165500D02*
D03*
G54D28*
X512148Y70000D02*
D03*
G54D29*
X459648Y208972D02*
D03*
G54D30*
X525648Y202000D02*
D03*
X509648D02*
D03*
X413148Y204000D02*
D03*
X394148Y203000D02*
D03*
X449648Y89500D02*
D03*
G54D31*
X451758Y38618D02*
D03*
X406258D02*
D03*
G54D32*
X509246Y14291D02*
D03*
G54D33*
X436648Y131000D02*
D03*
G54D34*
X447648Y128000D02*
D03*
X426148Y127500D02*
D03*
X529148Y112500D02*
D03*
X464148Y97000D02*
D03*
X526648Y100000D02*
D03*
X464148Y111500D02*
D03*
G54D35*
X411648Y136000D02*
D03*
G54D36*
X414148Y80000D02*
D03*
X536148Y113000D02*
D03*
X393148Y154500D02*
D03*
G54D37*
X500648Y150500D02*
D03*
X486648Y151000D02*
D03*
X493648Y69500D02*
D03*
X479648Y138000D02*
D03*
Y144000D02*
D03*
G54D38*
X440940Y213619D02*
X440367Y214398D01*
X439404Y214310D01*
X438981Y213440D01*
X439506Y212628D01*
X440472Y212658D01*
X440947Y213500D01*
X460625Y213619D02*
X460052Y214398D01*
X459089Y214310D01*
X458666Y213440D01*
X459191Y212628D01*
X460157Y212658D01*
X460632Y213500D01*
X480310Y213619D02*
X479737Y214398D01*
X478774Y214310D01*
X478351Y213440D01*
X478876Y212628D01*
X479842Y212658D01*
X480317Y213500D01*
X457671Y53066D02*
X458245Y52287D01*
X459207Y52375D01*
X459630Y53245D01*
X459105Y54057D01*
X458139Y54027D01*
X457664Y53185D01*
X412171Y53066D02*
X412745Y52287D01*
X413707Y52375D01*
X414130Y53245D01*
X413605Y54057D01*
X412639Y54027D01*
X412164Y53185D01*
X496767Y33984D02*
X497546Y34557D01*
X497458Y35520D01*
X496588Y35943D01*
X495777Y35418D01*
X495806Y34451D01*
X496648Y33976D01*
X501787Y44023D02*
X502565Y44596D01*
X502478Y45559D01*
X501608Y45982D01*
X500796Y45457D01*
X500826Y44491D01*
X501668Y44016D01*
X506807Y33984D02*
X507585Y34557D01*
X507497Y35520D01*
X506628Y35943D01*
X505816Y35418D01*
X505845Y34451D01*
X506687Y33976D01*
X511826Y44023D02*
X512605Y44596D01*
X512517Y45559D01*
X511648Y45982D01*
X510836Y45457D01*
X510865Y44491D01*
X511707Y44016D01*
X516846Y33984D02*
X517625Y34557D01*
X517537Y35520D01*
X516667Y35943D01*
X515855Y35418D01*
X515885Y34451D01*
X516727Y33976D01*
X521866Y44023D02*
X522644Y44596D01*
X522556Y45559D01*
X521687Y45982D01*
X520875Y45457D01*
X520904Y44491D01*
X521746Y44016D01*
G54D39*
X444869Y33500D02*
D03*
X399369D02*
D03*
G54D40*
X542648Y0D02*
X381231D01*
X542648Y230315D02*
X381231D01*
X542648Y0D02*
Y230315D01*
X381231Y0D02*
Y230315D01*
M02*
