%FSLAX25Y25*%
%MOIN*%
G70*
G01*
G75*
G04 Layer_Color=2752767*
%ADD10R,0.21654X0.07874*%
%ADD11R,0.22047X0.22047*%
%ADD12R,0.07874X0.04724*%
%ADD13R,0.00866X0.05906*%
%ADD14R,0.05906X0.00866*%
%ADD15R,0.03937X0.03937*%
%ADD16R,0.03937X0.03937*%
%ADD17R,0.03740X0.02756*%
%ADD18R,0.05118X0.03937*%
%ADD19R,0.06614X0.07874*%
%ADD20R,0.02362X0.05709*%
%ADD21R,0.05709X0.02362*%
%ADD22C,0.03150*%
%ADD23C,0.01063*%
%ADD24C,0.01000*%
%ADD25C,0.00945*%
%ADD26C,0.03937*%
%ADD27R,0.46063X0.19685*%
%ADD28R,0.07087X0.03937*%
%ADD29R,0.66929X0.37402*%
%ADD30R,0.03937X0.07087*%
%ADD31R,0.39370X0.47244*%
%ADD32R,0.51968X0.72835*%
%ADD33R,0.06496X0.02756*%
%ADD34R,0.03543X0.06693*%
%ADD35R,0.08661X0.05709*%
%ADD36R,0.05709X0.08661*%
%ADD37R,0.06693X0.03543*%
%ADD38C,0.04921*%
%ADD39R,0.07874X0.07874*%
%ADD40C,0.00787*%
%ADD41C,0.07874*%
%ADD42C,0.05906*%
%ADD43C,0.13780*%
%ADD44C,0.05000*%
%ADD45C,0.03937*%
%ADD46C,0.01969*%
%ADD47C,0.00394*%
%ADD48R,0.22453X0.08674*%
%ADD49R,0.22847X0.22847*%
%ADD50R,0.08674X0.05524*%
%ADD51R,0.01666X0.06706*%
%ADD52R,0.06706X0.01666*%
%ADD53R,0.04737X0.04737*%
%ADD54R,0.04737X0.04737*%
%ADD55R,0.04540X0.03556*%
%ADD56R,0.05918X0.04737*%
%ADD57R,0.07414X0.08674*%
%ADD58R,0.03162X0.06509*%
%ADD59R,0.06509X0.03162*%
%ADD60C,0.08674*%
%ADD61C,0.06706*%
%ADD62C,0.14579*%
%ADD63C,0.05800*%
%ADD64C,0.04737*%
%ADD65R,0.40945X0.26772*%
%ADD66R,0.39370X0.39370*%
%ADD67R,0.05118X0.08189*%
%ADD68R,0.11417X0.22598*%
%ADD69C,0.00333*%
%ADD70C,0.01500*%
%ADD71C,0.01600*%
%ADD72C,0.00600*%
G54D24*
X161417Y-26000D02*
Y0D01*
X0Y-26000D02*
Y-1000D01*
X93704Y-25000D02*
X161417D01*
X0D02*
X64513D01*
X155417Y-23000D02*
X161417Y-25000D01*
X155417Y-27000D02*
X161417Y-25000D01*
X0D02*
X6000Y-27000D01*
X0Y-25000D02*
X6000Y-23000D01*
X-26000Y0D02*
X-1000D01*
X-26000Y230315D02*
X-1000D01*
X-25000Y0D02*
Y98462D01*
Y128653D02*
Y230315D01*
Y0D02*
X-23000Y6000D01*
X-27000D02*
X-25000Y0D01*
X-27000Y224315D02*
X-25000Y230315D01*
X-23000Y224315D01*
X496517Y112500D02*
Y118498D01*
X499516D01*
X500516Y117498D01*
Y115499D01*
X499516Y114499D01*
X496517D01*
X498516D02*
X500516Y112500D01*
X503515D02*
X505514D01*
X506514Y113500D01*
Y115499D01*
X505514Y116499D01*
X503515D01*
X502515Y115499D01*
Y113500D01*
X503515Y112500D01*
X508513Y116499D02*
Y113500D01*
X509513Y112500D01*
X512512D01*
Y116499D01*
X514511Y112500D02*
Y116499D01*
X517510D01*
X518510Y115499D01*
Y112500D01*
X524508Y118498D02*
Y112500D01*
X521509D01*
X520509Y113500D01*
Y115499D01*
X521509Y116499D01*
X524508D01*
X496517Y97500D02*
Y103498D01*
X499516D01*
X500516Y102498D01*
Y100499D01*
X499516Y99499D01*
X496517D01*
X498516D02*
X500516Y97500D01*
X503515D02*
X505514D01*
X506514Y98500D01*
Y100499D01*
X505514Y101499D01*
X503515D01*
X502515Y100499D01*
Y98500D01*
X503515Y97500D01*
X508513Y101499D02*
Y98500D01*
X509513Y97500D01*
X512512D01*
Y101499D01*
X514511Y97500D02*
Y101499D01*
X517510D01*
X518510Y100499D01*
Y97500D01*
X524508Y103498D02*
Y97500D01*
X521509D01*
X520509Y98500D01*
Y100499D01*
X521509Y101499D01*
X524508D01*
X496517Y82500D02*
Y88498D01*
X499516D01*
X500516Y87498D01*
Y85499D01*
X499516Y84499D01*
X496517D01*
X498516D02*
X500516Y82500D01*
X503515D02*
X505514D01*
X506514Y83500D01*
Y85499D01*
X505514Y86499D01*
X503515D01*
X502515Y85499D01*
Y83500D01*
X503515Y82500D01*
X508513Y86499D02*
Y83500D01*
X509513Y82500D01*
X512512D01*
Y86499D01*
X514511Y82500D02*
Y86499D01*
X517510D01*
X518510Y85499D01*
Y82500D01*
X524508Y88498D02*
Y82500D01*
X521509D01*
X520509Y83500D01*
Y85499D01*
X521509Y86499D01*
X524508D01*
X496517Y67500D02*
Y73498D01*
X499516D01*
X500516Y72498D01*
Y70499D01*
X499516Y69499D01*
X496517D01*
X498516D02*
X500516Y67500D01*
X503515D02*
X505514D01*
X506514Y68500D01*
Y70499D01*
X505514Y71499D01*
X503515D01*
X502515Y70499D01*
Y68500D01*
X503515Y67500D01*
X508513Y71499D02*
Y68500D01*
X509513Y67500D01*
X512512D01*
Y71499D01*
X514511Y67500D02*
Y71499D01*
X517510D01*
X518510Y70499D01*
Y67500D01*
X524508Y73498D02*
Y67500D01*
X521509D01*
X520509Y68500D01*
Y70499D01*
X521509Y71499D01*
X524508D01*
X496517Y52500D02*
Y58498D01*
X499516D01*
X500516Y57498D01*
Y55499D01*
X499516Y54499D01*
X496517D01*
X498516D02*
X500516Y52500D01*
X503515D02*
X505514D01*
X506514Y53500D01*
Y55499D01*
X505514Y56499D01*
X503515D01*
X502515Y55499D01*
Y53500D01*
X503515Y52500D01*
X508513Y56499D02*
Y53500D01*
X509513Y52500D01*
X512512D01*
Y56499D01*
X514511Y52500D02*
Y56499D01*
X517510D01*
X518510Y55499D01*
Y52500D01*
X524508Y58498D02*
Y52500D01*
X521509D01*
X520509Y53500D01*
Y55499D01*
X521509Y56499D01*
X524508D01*
X496517Y37500D02*
Y43498D01*
X499516D01*
X500516Y42498D01*
Y40499D01*
X499516Y39499D01*
X496517D01*
X498516D02*
X500516Y37500D01*
X503515D02*
X505514D01*
X506514Y38500D01*
Y40499D01*
X505514Y41499D01*
X503515D01*
X502515Y40499D01*
Y38500D01*
X503515Y37500D01*
X508513Y41499D02*
Y38500D01*
X509513Y37500D01*
X512512D01*
Y41499D01*
X514511Y37500D02*
Y41499D01*
X517510D01*
X518510Y40499D01*
Y37500D01*
X524508Y43498D02*
Y37500D01*
X521509D01*
X520509Y38500D01*
Y40499D01*
X521509Y41499D01*
X524508D01*
X445929Y112500D02*
Y118498D01*
X448928D01*
X449928Y117498D01*
Y115499D01*
X448928Y114499D01*
X445929D01*
X451927Y118498D02*
X455926D01*
X453927D01*
Y112500D01*
X457926Y118498D02*
Y112500D01*
Y115499D01*
X461924D01*
Y118498D01*
Y112500D01*
X445929Y97500D02*
Y103498D01*
X448928D01*
X449928Y102498D01*
Y100499D01*
X448928Y99499D01*
X445929D01*
X451927Y103498D02*
X455926D01*
X453927D01*
Y97500D01*
X457926Y103498D02*
Y97500D01*
Y100499D01*
X461924D01*
Y103498D01*
Y97500D01*
X445929Y82500D02*
Y88498D01*
X448928D01*
X449928Y87498D01*
Y85499D01*
X448928Y84499D01*
X445929D01*
X451927Y88498D02*
X455926D01*
X453927D01*
Y82500D01*
X457926Y88498D02*
Y82500D01*
Y85499D01*
X461924D01*
Y88498D01*
Y82500D01*
X445929Y67500D02*
Y73498D01*
X448928D01*
X449928Y72498D01*
Y70499D01*
X448928Y69499D01*
X445929D01*
X451927Y73498D02*
X455926D01*
X453927D01*
Y67500D01*
X457926Y73498D02*
Y67500D01*
Y70499D01*
X461924D01*
Y73498D01*
Y67500D01*
X445929Y52500D02*
Y58498D01*
X448928D01*
X449928Y57498D01*
Y55499D01*
X448928Y54499D01*
X445929D01*
X451927Y58498D02*
X455926D01*
X453927D01*
Y52500D01*
X457926Y58498D02*
Y52500D01*
Y55499D01*
X461924D01*
Y58498D01*
Y52500D01*
X445929Y37500D02*
Y43498D01*
X448928D01*
X449928Y42498D01*
Y40499D01*
X448928Y39499D01*
X445929D01*
X451927Y43498D02*
X455926D01*
X453927D01*
Y37500D01*
X457926Y43498D02*
Y37500D01*
Y40499D01*
X461924D01*
Y43498D01*
Y37500D01*
X311369Y117498D02*
X312369Y118498D01*
X314368D01*
X315368Y117498D01*
Y113500D01*
X314368Y112500D01*
X312369D01*
X311369Y113500D01*
Y117498D01*
X317367Y112500D02*
Y113500D01*
X318367D01*
Y112500D01*
X317367D01*
X322365Y118498D02*
X326364D01*
Y117498D01*
X322365Y113500D01*
Y112500D01*
X328363D02*
X330363D01*
X329363D01*
Y118498D01*
X328363Y117498D01*
X333362Y112500D02*
X335361D01*
X334362D01*
Y118498D01*
X333362Y117498D01*
X338360Y112500D02*
Y116499D01*
X339360D01*
X340359Y115499D01*
Y112500D01*
Y115499D01*
X341359Y116499D01*
X342359Y115499D01*
Y112500D01*
X344358D02*
Y116499D01*
X345358D01*
X346358Y115499D01*
Y112500D01*
Y115499D01*
X347357Y116499D01*
X348357Y115499D01*
Y112500D01*
X358354D02*
X356354Y114499D01*
Y116499D01*
X358354Y118498D01*
X365352Y112500D02*
X361353D01*
X365352Y116499D01*
Y117498D01*
X364352Y118498D01*
X362352D01*
X361353Y117498D01*
X367351Y118498D02*
X371350D01*
Y117498D01*
X367351Y113500D01*
Y112500D01*
X373349D02*
Y113500D01*
X374348D01*
Y112500D01*
X373349D01*
X378347Y113500D02*
X379347Y112500D01*
X381346D01*
X382346Y113500D01*
Y117498D01*
X381346Y118498D01*
X379347D01*
X378347Y117498D01*
Y116499D01*
X379347Y115499D01*
X382346D01*
X384345Y113500D02*
X385345Y112500D01*
X387344D01*
X388344Y113500D01*
Y117498D01*
X387344Y118498D01*
X385345D01*
X384345Y117498D01*
Y116499D01*
X385345Y115499D01*
X388344D01*
X390343Y112500D02*
Y116499D01*
X391343D01*
X392343Y115499D01*
Y112500D01*
Y115499D01*
X393342Y116499D01*
X394342Y115499D01*
Y112500D01*
X396341D02*
X398341D01*
X397341D01*
Y116499D01*
X396341D01*
X401340Y112500D02*
X403339D01*
X402340D01*
Y118498D01*
X401340D01*
X406338Y112500D02*
X408337Y114499D01*
Y116499D01*
X406338Y118498D01*
X311369Y102498D02*
X312369Y103498D01*
X314368D01*
X315368Y102498D01*
Y101499D01*
X314368Y100499D01*
X313368D01*
X314368D01*
X315368Y99499D01*
Y98500D01*
X314368Y97500D01*
X312369D01*
X311369Y98500D01*
X317367Y97500D02*
Y98500D01*
X318367D01*
Y97500D01*
X317367D01*
X326364D02*
X322365D01*
X326364Y101499D01*
Y102498D01*
X325364Y103498D01*
X323365D01*
X322365Y102498D01*
X332362Y103498D02*
X328363D01*
Y100499D01*
X330363Y101499D01*
X331363D01*
X332362Y100499D01*
Y98500D01*
X331363Y97500D01*
X329363D01*
X328363Y98500D01*
X334362Y102498D02*
X335361Y103498D01*
X337361D01*
X338360Y102498D01*
Y98500D01*
X337361Y97500D01*
X335361D01*
X334362Y98500D01*
Y102498D01*
X340359Y97500D02*
Y101499D01*
X341359D01*
X342359Y100499D01*
Y97500D01*
Y100499D01*
X343359Y101499D01*
X344358Y100499D01*
Y97500D01*
X346358D02*
Y101499D01*
X347357D01*
X348357Y100499D01*
Y97500D01*
Y100499D01*
X349357Y101499D01*
X350356Y100499D01*
Y97500D01*
X360353D02*
X358354Y99499D01*
Y101499D01*
X360353Y103498D01*
X363352Y97500D02*
X365352D01*
X364352D01*
Y103498D01*
X363352Y102498D01*
X372349Y97500D02*
X368351D01*
X372349Y101499D01*
Y102498D01*
X371350Y103498D01*
X369350D01*
X368351Y102498D01*
X374348Y103498D02*
X378347D01*
Y102498D01*
X374348Y98500D01*
Y97500D01*
X380347D02*
Y98500D01*
X381346D01*
Y97500D01*
X380347D01*
X385345Y98500D02*
X386345Y97500D01*
X388344D01*
X389344Y98500D01*
Y102498D01*
X388344Y103498D01*
X386345D01*
X385345Y102498D01*
Y101499D01*
X386345Y100499D01*
X389344D01*
X395342Y103498D02*
X391343D01*
Y100499D01*
X393342Y101499D01*
X394342D01*
X395342Y100499D01*
Y98500D01*
X394342Y97500D01*
X392343D01*
X391343Y98500D01*
X397341Y97500D02*
Y101499D01*
X398341D01*
X399341Y100499D01*
Y97500D01*
Y100499D01*
X400340Y101499D01*
X401340Y100499D01*
Y97500D01*
X403339D02*
X405338D01*
X404339D01*
Y101499D01*
X403339D01*
X408338Y97500D02*
X410337D01*
X409337D01*
Y103498D01*
X408338D01*
X413336Y97500D02*
X415335Y99499D01*
Y101499D01*
X413336Y103498D01*
X311369Y87498D02*
X312369Y88498D01*
X314368D01*
X315368Y87498D01*
Y83500D01*
X314368Y82500D01*
X312369D01*
X311369Y83500D01*
Y87498D01*
X317367Y82500D02*
Y83500D01*
X318367D01*
Y82500D01*
X317367D01*
X326364Y88498D02*
X322365D01*
Y85499D01*
X324365Y86499D01*
X325364D01*
X326364Y85499D01*
Y83500D01*
X325364Y82500D01*
X323365D01*
X322365Y83500D01*
X328363Y87498D02*
X329363Y88498D01*
X331363D01*
X332362Y87498D01*
Y83500D01*
X331363Y82500D01*
X329363D01*
X328363Y83500D01*
Y87498D01*
X334362D02*
X335361Y88498D01*
X337361D01*
X338360Y87498D01*
Y83500D01*
X337361Y82500D01*
X335361D01*
X334362Y83500D01*
Y87498D01*
X340359Y82500D02*
Y86499D01*
X341359D01*
X342359Y85499D01*
Y82500D01*
Y85499D01*
X343359Y86499D01*
X344358Y85499D01*
Y82500D01*
X346358D02*
Y86499D01*
X347357D01*
X348357Y85499D01*
Y82500D01*
Y85499D01*
X349357Y86499D01*
X350356Y85499D01*
Y82500D01*
X360353D02*
X358354Y84499D01*
Y86499D01*
X360353Y88498D01*
X363352Y82500D02*
X365352D01*
X364352D01*
Y88498D01*
X363352Y87498D01*
X368351Y83500D02*
X369350Y82500D01*
X371350D01*
X372349Y83500D01*
Y87498D01*
X371350Y88498D01*
X369350D01*
X368351Y87498D01*
Y86499D01*
X369350Y85499D01*
X372349D01*
X374348Y82500D02*
Y83500D01*
X375348D01*
Y82500D01*
X374348D01*
X383346Y88498D02*
X381346Y87498D01*
X379347Y85499D01*
Y83500D01*
X380347Y82500D01*
X382346D01*
X383346Y83500D01*
Y84499D01*
X382346Y85499D01*
X379347D01*
X385345Y83500D02*
X386345Y82500D01*
X388344D01*
X389344Y83500D01*
Y87498D01*
X388344Y88498D01*
X386345D01*
X385345Y87498D01*
Y86499D01*
X386345Y85499D01*
X389344D01*
X391343Y82500D02*
Y86499D01*
X392343D01*
X393342Y85499D01*
Y82500D01*
Y85499D01*
X394342Y86499D01*
X395342Y85499D01*
Y82500D01*
X397341D02*
X399341D01*
X398341D01*
Y86499D01*
X397341D01*
X402340Y82500D02*
X404339D01*
X403339D01*
Y88498D01*
X402340D01*
X407338Y82500D02*
X409337Y84499D01*
Y86499D01*
X407338Y88498D01*
X311369Y72498D02*
X312369Y73498D01*
X314368D01*
X315368Y72498D01*
Y68500D01*
X314368Y67500D01*
X312369D01*
X311369Y68500D01*
Y72498D01*
X317367Y67500D02*
Y68500D01*
X318367D01*
Y67500D01*
X317367D01*
X322365Y68500D02*
X323365Y67500D01*
X325364D01*
X326364Y68500D01*
Y72498D01*
X325364Y73498D01*
X323365D01*
X322365Y72498D01*
Y71499D01*
X323365Y70499D01*
X326364D01*
X328363Y72498D02*
X329363Y73498D01*
X331363D01*
X332362Y72498D01*
Y68500D01*
X331363Y67500D01*
X329363D01*
X328363Y68500D01*
Y72498D01*
X334362D02*
X335361Y73498D01*
X337361D01*
X338360Y72498D01*
Y68500D01*
X337361Y67500D01*
X335361D01*
X334362Y68500D01*
Y72498D01*
X340359Y67500D02*
Y71499D01*
X341359D01*
X342359Y70499D01*
Y67500D01*
Y70499D01*
X343359Y71499D01*
X344358Y70499D01*
Y67500D01*
X346358D02*
Y71499D01*
X347357D01*
X348357Y70499D01*
Y67500D01*
Y70499D01*
X349357Y71499D01*
X350356Y70499D01*
Y67500D01*
X360353D02*
X358354Y69499D01*
Y71499D01*
X360353Y73498D01*
X363352Y72498D02*
X364352Y73498D01*
X366351D01*
X367351Y72498D01*
Y71499D01*
X366351Y70499D01*
X365352D01*
X366351D01*
X367351Y69499D01*
Y68500D01*
X366351Y67500D01*
X364352D01*
X363352Y68500D01*
X373349Y73498D02*
X369350D01*
Y70499D01*
X371350Y71499D01*
X372349D01*
X373349Y70499D01*
Y68500D01*
X372349Y67500D01*
X370350D01*
X369350Y68500D01*
X375348Y67500D02*
Y68500D01*
X376348D01*
Y67500D01*
X375348D01*
X383346D02*
Y73498D01*
X380347Y70499D01*
X384345D01*
X386345Y72498D02*
X387344Y73498D01*
X389344D01*
X390343Y72498D01*
Y71499D01*
X389344Y70499D01*
X388344D01*
X389344D01*
X390343Y69499D01*
Y68500D01*
X389344Y67500D01*
X387344D01*
X386345Y68500D01*
X392343Y67500D02*
Y71499D01*
X393342D01*
X394342Y70499D01*
Y67500D01*
Y70499D01*
X395342Y71499D01*
X396341Y70499D01*
Y67500D01*
X398341D02*
X400340D01*
X399341D01*
Y71499D01*
X398341D01*
X403339Y67500D02*
X405338D01*
X404339D01*
Y73498D01*
X403339D01*
X408338Y67500D02*
X410337Y69499D01*
Y71499D01*
X408338Y73498D01*
X311369Y52500D02*
X313368D01*
X312369D01*
Y58498D01*
X311369Y57498D01*
X316367Y52500D02*
Y53500D01*
X317367D01*
Y52500D01*
X316367D01*
X321366Y57498D02*
X322365Y58498D01*
X324365D01*
X325364Y57498D01*
Y53500D01*
X324365Y52500D01*
X322365D01*
X321366Y53500D01*
Y57498D01*
X327364D02*
X328363Y58498D01*
X330363D01*
X331363Y57498D01*
Y53500D01*
X330363Y52500D01*
X328363D01*
X327364Y53500D01*
Y57498D01*
X333362D02*
X334362Y58498D01*
X336361D01*
X337361Y57498D01*
Y53500D01*
X336361Y52500D01*
X334362D01*
X333362Y53500D01*
Y57498D01*
X339360Y52500D02*
Y56499D01*
X340359D01*
X341359Y55499D01*
Y52500D01*
Y55499D01*
X342359Y56499D01*
X343359Y55499D01*
Y52500D01*
X345358D02*
Y56499D01*
X346358D01*
X347357Y55499D01*
Y52500D01*
Y55499D01*
X348357Y56499D01*
X349357Y55499D01*
Y52500D01*
X359353D02*
X357354Y54499D01*
Y56499D01*
X359353Y58498D01*
X362352Y57498D02*
X363352Y58498D01*
X365352D01*
X366351Y57498D01*
Y56499D01*
X365352Y55499D01*
X364352D01*
X365352D01*
X366351Y54499D01*
Y53500D01*
X365352Y52500D01*
X363352D01*
X362352Y53500D01*
X368351D02*
X369350Y52500D01*
X371350D01*
X372349Y53500D01*
Y57498D01*
X371350Y58498D01*
X369350D01*
X368351Y57498D01*
Y56499D01*
X369350Y55499D01*
X372349D01*
X374348Y52500D02*
Y53500D01*
X375348D01*
Y52500D01*
X374348D01*
X379347Y57498D02*
X380347Y58498D01*
X382346D01*
X383346Y57498D01*
Y56499D01*
X382346Y55499D01*
X381346D01*
X382346D01*
X383346Y54499D01*
Y53500D01*
X382346Y52500D01*
X380347D01*
X379347Y53500D01*
X385345Y58498D02*
X389344D01*
Y57498D01*
X385345Y53500D01*
Y52500D01*
X391343D02*
Y56499D01*
X392343D01*
X393342Y55499D01*
Y52500D01*
Y55499D01*
X394342Y56499D01*
X395342Y55499D01*
Y52500D01*
X397341D02*
X399341D01*
X398341D01*
Y56499D01*
X397341D01*
X402340Y52500D02*
X404339D01*
X403339D01*
Y58498D01*
X402340D01*
X407338Y52500D02*
X409337Y54499D01*
Y56499D01*
X407338Y58498D01*
X311369Y42498D02*
X312369Y43498D01*
X314368D01*
X315368Y42498D01*
Y38500D01*
X314368Y37500D01*
X312369D01*
X311369Y38500D01*
Y42498D01*
X317367Y37500D02*
Y38500D01*
X318367D01*
Y37500D01*
X317367D01*
X322365Y43498D02*
X326364D01*
Y42498D01*
X322365Y38500D01*
Y37500D01*
X332362D02*
X328363D01*
X332362Y41499D01*
Y42498D01*
X331363Y43498D01*
X329363D01*
X328363Y42498D01*
X334362D02*
X335361Y43498D01*
X337361D01*
X338360Y42498D01*
Y38500D01*
X337361Y37500D01*
X335361D01*
X334362Y38500D01*
Y42498D01*
X340359Y37500D02*
Y41499D01*
X341359D01*
X342359Y40499D01*
Y37500D01*
Y40499D01*
X343359Y41499D01*
X344358Y40499D01*
Y37500D01*
X346358D02*
Y41499D01*
X347357D01*
X348357Y40499D01*
Y37500D01*
Y40499D01*
X349357Y41499D01*
X350356Y40499D01*
Y37500D01*
X360353D02*
X358354Y39499D01*
Y41499D01*
X360353Y43498D01*
X367351Y37500D02*
X363352D01*
X367351Y41499D01*
Y42498D01*
X366351Y43498D01*
X364352D01*
X363352Y42498D01*
X369350D02*
X370350Y43498D01*
X372349D01*
X373349Y42498D01*
Y41499D01*
X372349Y40499D01*
X373349Y39499D01*
Y38500D01*
X372349Y37500D01*
X370350D01*
X369350Y38500D01*
Y39499D01*
X370350Y40499D01*
X369350Y41499D01*
Y42498D01*
X370350Y40499D02*
X372349D01*
X375348Y37500D02*
Y38500D01*
X376348D01*
Y37500D01*
X375348D01*
X380347Y42498D02*
X381346Y43498D01*
X383346D01*
X384345Y42498D01*
Y41499D01*
X383346Y40499D01*
X382346D01*
X383346D01*
X384345Y39499D01*
Y38500D01*
X383346Y37500D01*
X381346D01*
X380347Y38500D01*
X390343Y43498D02*
X386345D01*
Y40499D01*
X388344Y41499D01*
X389344D01*
X390343Y40499D01*
Y38500D01*
X389344Y37500D01*
X387344D01*
X386345Y38500D01*
X392343Y37500D02*
Y41499D01*
X393342D01*
X394342Y40499D01*
Y37500D01*
Y40499D01*
X395342Y41499D01*
X396341Y40499D01*
Y37500D01*
X398341D02*
X400340D01*
X399341D01*
Y41499D01*
X398341D01*
X403339Y37500D02*
X405338D01*
X404339D01*
Y43498D01*
X403339D01*
X408338Y37500D02*
X410337Y39499D01*
Y41499D01*
X408338Y43498D01*
X241588Y27498D02*
X242587Y28498D01*
X244587D01*
X245586Y27498D01*
Y26499D01*
X244587Y25499D01*
X243587D01*
X244587D01*
X245586Y24499D01*
Y23500D01*
X244587Y22500D01*
X242587D01*
X241588Y23500D01*
X247586D02*
X248585Y22500D01*
X250585D01*
X251584Y23500D01*
Y27498D01*
X250585Y28498D01*
X248585D01*
X247586Y27498D01*
Y26499D01*
X248585Y25499D01*
X251584D01*
X259582Y28498D02*
X263580D01*
X261581D01*
Y22500D01*
X266580D02*
X268579D01*
X269579Y23500D01*
Y25499D01*
X268579Y26499D01*
X266580D01*
X265580Y25499D01*
Y23500D01*
X266580Y22500D01*
X272578Y27498D02*
Y26499D01*
X271578D01*
X273577D01*
X272578D01*
Y23500D01*
X273577Y22500D01*
X277576Y26499D02*
X279575D01*
X280575Y25499D01*
Y22500D01*
X277576D01*
X276576Y23500D01*
X277576Y24499D01*
X280575D01*
X282574Y22500D02*
X284574D01*
X283574D01*
Y28498D01*
X282574D01*
X245586Y112500D02*
X241588D01*
X245586Y116499D01*
Y117498D01*
X244587Y118498D01*
X242587D01*
X241588Y117498D01*
X245586Y97500D02*
X241588D01*
X245586Y101499D01*
Y102498D01*
X244587Y103498D01*
X242587D01*
X241588Y102498D01*
X244587Y82500D02*
Y88498D01*
X241588Y85499D01*
X245586D01*
Y73498D02*
X243587Y72498D01*
X241588Y70499D01*
Y68500D01*
X242587Y67500D01*
X244587D01*
X245586Y68500D01*
Y69499D01*
X244587Y70499D01*
X241588D01*
Y58498D02*
X245586D01*
Y57498D01*
X241588Y53500D01*
Y52500D01*
Y37500D02*
X243587D01*
X242587D01*
Y43498D01*
X241588Y42498D01*
X246586D02*
X247586Y43498D01*
X249585D01*
X250585Y42498D01*
Y41499D01*
X249585Y40499D01*
X250585Y39499D01*
Y38500D01*
X249585Y37500D01*
X247586D01*
X246586Y38500D01*
Y39499D01*
X247586Y40499D01*
X246586Y41499D01*
Y42498D01*
X247586Y40499D02*
X249585D01*
G54D27*
X49500Y165500D02*
D03*
G54D28*
X30500Y70000D02*
D03*
G54D29*
X83000Y208972D02*
D03*
G54D30*
X17000Y202000D02*
D03*
X33000D02*
D03*
X129500Y204000D02*
D03*
X148500Y203000D02*
D03*
X93000Y89500D02*
D03*
G54D31*
X90890Y38618D02*
D03*
X136390D02*
D03*
G54D32*
X33402Y14291D02*
D03*
G54D33*
X106000Y131000D02*
D03*
G54D34*
X95000Y128000D02*
D03*
X116500Y127500D02*
D03*
X13500Y112500D02*
D03*
X78500Y97000D02*
D03*
X16000Y100000D02*
D03*
X78500Y111500D02*
D03*
G54D35*
X131000Y136000D02*
D03*
G54D36*
X128500Y80000D02*
D03*
X6500Y113000D02*
D03*
X149500Y154500D02*
D03*
G54D37*
X42000Y150500D02*
D03*
X56000Y151000D02*
D03*
X49000Y69500D02*
D03*
X63000Y138000D02*
D03*
Y144000D02*
D03*
G54D38*
X101701Y213500D02*
X102176Y212658D01*
X103142Y212628D01*
X103667Y213440D01*
X103244Y214310D01*
X102281Y214398D01*
X101708Y213619D01*
X82016Y213500D02*
X82491Y212658D01*
X83457Y212628D01*
X83982Y213440D01*
X83559Y214310D01*
X82596Y214398D01*
X82023Y213619D01*
X62331Y213500D02*
X62806Y212658D01*
X63772Y212628D01*
X64297Y213440D01*
X63874Y214310D01*
X62911Y214398D01*
X62338Y213619D01*
X84984Y53185D02*
X84509Y54027D01*
X83543Y54057D01*
X83018Y53245D01*
X83441Y52375D01*
X84404Y52287D01*
X84977Y53066D01*
X130484Y53185D02*
X130009Y54027D01*
X129043Y54057D01*
X128518Y53245D01*
X128941Y52375D01*
X129904Y52287D01*
X130477Y53066D01*
X46000Y33976D02*
X46842Y34451D01*
X46872Y35418D01*
X46060Y35943D01*
X45190Y35520D01*
X45102Y34557D01*
X45881Y33984D01*
X40980Y44016D02*
X41823Y44491D01*
X41852Y45457D01*
X41040Y45982D01*
X40170Y45559D01*
X40083Y44596D01*
X40861Y44023D01*
X35961Y33976D02*
X36803Y34451D01*
X36832Y35418D01*
X36020Y35943D01*
X35151Y35520D01*
X35063Y34557D01*
X35842Y33984D01*
X30941Y44016D02*
X31783Y44491D01*
X31813Y45457D01*
X31001Y45982D01*
X30131Y45559D01*
X30043Y44596D01*
X30822Y44023D01*
X25921Y33976D02*
X26763Y34451D01*
X26793Y35418D01*
X25981Y35943D01*
X25111Y35520D01*
X25024Y34557D01*
X25802Y33984D01*
X20902Y44016D02*
X21744Y44491D01*
X21773Y45457D01*
X20961Y45982D01*
X20092Y45559D01*
X20004Y44596D01*
X20782Y44023D01*
G54D39*
X97780Y33500D02*
D03*
X143280D02*
D03*
G54D40*
X0Y0D02*
X161417D01*
X0Y230315D02*
X161417D01*
X0Y0D02*
Y230315D01*
X161417Y0D02*
Y230315D01*
G54D69*
X193813Y55000D02*
X193622Y55957D01*
X193080Y56768D01*
X192269Y57310D01*
X191313Y57500D01*
X190356Y57310D01*
X189545Y56768D01*
X189003Y55957D01*
X188812Y55000D01*
X189003Y54043D01*
X189545Y53232D01*
X190356Y52690D01*
X191313Y52500D01*
X192269Y52690D01*
X193080Y53232D01*
X193622Y54043D01*
X193813Y55000D01*
X144946Y33500D02*
X144628Y34480D01*
X143795Y35085D01*
X142764D01*
X141931Y34480D01*
X141613Y33500D01*
X141931Y32520D01*
X142764Y31915D01*
X143795D01*
X144628Y32520D01*
X144946Y33500D01*
X131167Y53185D02*
X130848Y54165D01*
X130015Y54770D01*
X128985D01*
X128152Y54165D01*
X127833Y53185D01*
X128152Y52205D01*
X128985Y51600D01*
X130015D01*
X130848Y52205D01*
X131167Y53185D01*
X99446Y33500D02*
X99128Y34480D01*
X98295Y35085D01*
X97264D01*
X96431Y34480D01*
X96113Y33500D01*
X96431Y32520D01*
X97264Y31915D01*
X98295D01*
X99128Y32520D01*
X99446Y33500D01*
X85667Y53185D02*
X85348Y54165D01*
X84515Y54770D01*
X83485D01*
X82652Y54165D01*
X82333Y53185D01*
X82652Y52205D01*
X83485Y51600D01*
X84515D01*
X85348Y52205D01*
X85667Y53185D01*
X84667Y213500D02*
X84348Y214480D01*
X83515Y215085D01*
X82485D01*
X81652Y214480D01*
X81333Y213500D01*
X81652Y212520D01*
X82485Y211915D01*
X83515D01*
X84348Y212520D01*
X84667Y213500D01*
X64982D02*
X64663Y214480D01*
X63830Y215085D01*
X62800D01*
X61967Y214480D01*
X61648Y213500D01*
X61967Y212520D01*
X62800Y211915D01*
X63830D01*
X64663Y212520D01*
X64982Y213500D01*
X104352D02*
X104033Y214480D01*
X103200Y215085D01*
X102170D01*
X101337Y214480D01*
X101018Y213500D01*
X101337Y212520D01*
X102170Y211915D01*
X103200D01*
X104033Y212520D01*
X104352Y213500D01*
X188812Y112500D02*
X191313Y113750D01*
X193813Y112500D01*
X192562Y115000D02*
X193813Y112500D01*
X192562Y115000D02*
X193813Y117500D01*
X191313Y116250D02*
X193813Y117500D01*
X188812D02*
X191313Y116250D01*
X188812Y117500D02*
X190062Y115000D01*
X188812Y112500D02*
X190062Y115000D01*
X191313Y97500D02*
X193813Y102500D01*
X188812D02*
X193813D01*
X188812D02*
X191313Y97500D01*
X190062Y83750D02*
X191313Y82500D01*
X188812Y83750D02*
X190062D01*
X188812D02*
X190062Y85000D01*
X188812Y86250D02*
X190062Y85000D01*
X188812Y86250D02*
X190062D01*
X191313Y87500D01*
X192562Y86250D01*
X193813D01*
X192562Y85000D02*
X193813Y86250D01*
X192562Y85000D02*
X193813Y83750D01*
X192562D02*
X193813D01*
X191313Y82500D02*
X192562Y83750D01*
X188812Y67500D02*
X193813D01*
Y72500D01*
X188812D02*
X193813D01*
X188812Y67500D02*
Y72500D01*
Y38750D02*
X190062D01*
X188812D02*
Y41250D01*
X190062D01*
Y42500D01*
X192562D01*
Y41250D02*
Y42500D01*
Y41250D02*
X193813D01*
Y38750D02*
Y41250D01*
X192562Y38750D02*
X193813D01*
X192562Y37500D02*
Y38750D01*
X190062Y37500D02*
X192562D01*
X190062D02*
Y38750D01*
X122333Y136667D02*
X123167D01*
X122333D02*
Y138333D01*
X123167D01*
Y139167D01*
X124833D01*
Y138333D02*
Y139167D01*
Y138333D02*
X125667D01*
Y136667D02*
Y138333D01*
X124833Y136667D02*
X125667D01*
X124833Y135833D02*
Y136667D01*
X123167Y135833D02*
X124833D01*
X123167D02*
Y136667D01*
X7833Y100167D02*
X8667D01*
X7833D02*
Y101833D01*
X8667D01*
Y102667D01*
X10333D01*
Y101833D02*
Y102667D01*
Y101833D02*
X11167D01*
Y100167D02*
Y101833D01*
X10333Y100167D02*
X11167D01*
X10333Y99333D02*
Y100167D01*
X8667Y99333D02*
X10333D01*
X8667D02*
Y100167D01*
X2333Y85667D02*
X3167D01*
X2333D02*
Y87333D01*
X3167D01*
Y88167D01*
X4833D01*
Y87333D02*
Y88167D01*
Y87333D02*
X5667D01*
Y85667D02*
Y87333D01*
X4833Y85667D02*
X5667D01*
X4833Y84833D02*
Y85667D01*
X3167Y84833D02*
X4833D01*
X3167D02*
Y85667D01*
X134833Y116667D02*
X135667D01*
X134833D02*
Y118333D01*
X135667D01*
Y119167D01*
X137333D01*
Y118333D02*
Y119167D01*
Y118333D02*
X138167D01*
Y116667D02*
Y118333D01*
X137333Y116667D02*
X138167D01*
X137333Y115833D02*
Y116667D01*
X135667Y115833D02*
X137333D01*
X135667D02*
Y116667D01*
X107487Y123320D02*
X108320D01*
X107487D02*
Y124987D01*
X108320D01*
Y125820D01*
X109987D01*
Y124987D02*
Y125820D01*
Y124987D02*
X110820D01*
Y123320D02*
Y124987D01*
X109987Y123320D02*
X110820D01*
X109987Y122487D02*
Y123320D01*
X108320Y122487D02*
X109987D01*
X108320D02*
Y123320D01*
X100680Y123820D02*
X101513D01*
X100680D02*
Y125487D01*
X101513D01*
Y126320D01*
X103180D01*
Y125487D02*
Y126320D01*
Y125487D02*
X104013D01*
Y123820D02*
Y125487D01*
X103180Y123820D02*
X104013D01*
X103180Y122987D02*
Y123820D01*
X101513Y122987D02*
X103180D01*
X101513D02*
Y123820D01*
X147833Y136167D02*
X148667D01*
X147833D02*
Y137833D01*
X148667D01*
Y138667D01*
X150333D01*
Y137833D02*
Y138667D01*
Y137833D02*
X151167D01*
Y136167D02*
Y137833D01*
X150333Y136167D02*
X151167D01*
X150333Y135333D02*
Y136167D01*
X148667Y135333D02*
X150333D01*
X148667D02*
Y136167D01*
X83013Y107320D02*
X83846Y106487D01*
X82180Y107320D02*
X83013D01*
X82180D02*
X83013Y108153D01*
X82180Y108987D02*
X83013Y108153D01*
X82180Y108987D02*
X83013D01*
X83846Y109820D01*
X84680Y108987D01*
X85513D01*
X84680Y108153D02*
X85513Y108987D01*
X84680Y108153D02*
X85513Y107320D01*
X84680D02*
X85513D01*
X83846Y106487D02*
X84680Y107320D01*
X76833Y122667D02*
X77667D01*
X76833D02*
Y124333D01*
X77667D01*
Y125167D01*
X79333D01*
Y124333D02*
Y125167D01*
Y124333D02*
X80167D01*
Y122667D02*
Y124333D01*
X79333Y122667D02*
X80167D01*
X79333Y121833D02*
Y122667D01*
X77667Y121833D02*
X79333D01*
X77667D02*
Y122667D01*
X86333Y178667D02*
X87167D01*
X86333D02*
Y180333D01*
X87167D01*
Y181167D01*
X88833D01*
Y180333D02*
Y181167D01*
Y180333D02*
X89667D01*
Y178667D02*
Y180333D01*
X88833Y178667D02*
X89667D01*
X88833Y177833D02*
Y178667D01*
X87167Y177833D02*
X88833D01*
X87167D02*
Y178667D01*
X91667Y65667D02*
X92500Y64833D01*
X90833Y65667D02*
X91667D01*
X90833D02*
X91667Y66500D01*
X90833Y67333D02*
X91667Y66500D01*
X90833Y67333D02*
X91667D01*
X92500Y68167D01*
X93333Y67333D01*
X94167D01*
X93333Y66500D02*
X94167Y67333D01*
X93333Y66500D02*
X94167Y65667D01*
X93333D02*
X94167D01*
X92500Y64833D02*
X93333Y65667D01*
X44820Y63013D02*
X45654Y62180D01*
X43987Y63013D02*
X44820D01*
X43987D02*
X44820Y63846D01*
X43987Y64680D02*
X44820Y63846D01*
X43987Y64680D02*
X44820D01*
X45654Y65513D01*
X46487Y64680D01*
X47320D01*
X46487Y63846D02*
X47320Y64680D01*
X46487Y63846D02*
X47320Y63013D01*
X46487D02*
X47320D01*
X45654Y62180D02*
X46487Y63013D01*
X51513Y62320D02*
X52346Y61487D01*
X50680Y62320D02*
X51513D01*
X50680D02*
X51513Y63153D01*
X50680Y63987D02*
X51513Y63153D01*
X50680Y63987D02*
X51513D01*
X52346Y64820D01*
X53180Y63987D01*
X54013D01*
X53180Y63153D02*
X54013Y63987D01*
X53180Y63153D02*
X54013Y62320D01*
X53180D02*
X54013D01*
X52346Y61487D02*
X53180Y62320D01*
X81333Y212667D02*
X82167D01*
X81333D02*
Y214333D01*
X82167D01*
Y215167D01*
X83833D01*
Y214333D02*
Y215167D01*
Y214333D02*
X84667D01*
Y212667D02*
Y214333D01*
X83833Y212667D02*
X84667D01*
X83833Y211833D02*
Y212667D01*
X82167Y211833D02*
X83833D01*
X82167D02*
Y212667D01*
X61648D02*
X62482D01*
X61648D02*
Y214333D01*
X62482D01*
Y215167D01*
X64148D01*
Y214333D02*
Y215167D01*
Y214333D02*
X64982D01*
Y212667D02*
Y214333D01*
X64148Y212667D02*
X64982D01*
X64148Y211833D02*
Y212667D01*
X62482Y211833D02*
X64148D01*
X62482D02*
Y212667D01*
X52333Y142333D02*
X54000Y143167D01*
X55667Y142333D01*
X54833Y144000D02*
X55667Y142333D01*
X54833Y144000D02*
X55667Y145667D01*
X54000Y144833D02*
X55667Y145667D01*
X52333D02*
X54000Y144833D01*
X52333Y145667D02*
X53167Y144000D01*
X52333Y142333D02*
X53167Y144000D01*
X53333Y136333D02*
X55000Y137167D01*
X56667Y136333D01*
X55833Y138000D02*
X56667Y136333D01*
X55833Y138000D02*
X56667Y139667D01*
X55000Y138833D02*
X56667Y139667D01*
X53333D02*
X55000Y138833D01*
X53333Y139667D02*
X54167Y138000D01*
X53333Y136333D02*
X54167Y138000D01*
X31333Y223167D02*
X32167D01*
X31333D02*
Y224833D01*
X32167D01*
Y225667D01*
X33833D01*
Y224833D02*
Y225667D01*
Y224833D02*
X34667D01*
Y223167D02*
Y224833D01*
X33833Y223167D02*
X34667D01*
X33833Y222333D02*
Y223167D01*
X32167Y222333D02*
X33833D01*
X32167D02*
Y223167D01*
X15333Y222667D02*
X16167D01*
X15333D02*
Y224333D01*
X16167D01*
Y225167D01*
X17833D01*
Y224333D02*
Y225167D01*
Y224333D02*
X18667D01*
Y222667D02*
Y224333D01*
X17833Y222667D02*
X18667D01*
X17833Y221833D02*
Y222667D01*
X16167Y221833D02*
X17833D01*
X16167D02*
Y222667D01*
X127833Y226167D02*
X128667D01*
X127833D02*
Y227833D01*
X128667D01*
Y228667D01*
X130333D01*
Y227833D02*
Y228667D01*
Y227833D02*
X131167D01*
Y226167D02*
Y227833D01*
X130333Y226167D02*
X131167D01*
X130333Y225333D02*
Y226167D01*
X128667Y225333D02*
X130333D01*
X128667D02*
Y226167D01*
X146833D02*
X147667D01*
X146833D02*
Y227833D01*
X147667D01*
Y228667D01*
X149333D01*
Y227833D02*
Y228667D01*
Y227833D02*
X150167D01*
Y226167D02*
Y227833D01*
X149333Y226167D02*
X150167D01*
X149333Y225333D02*
Y226167D01*
X147667Y225333D02*
X149333D01*
X147667D02*
Y226167D01*
X72833Y143667D02*
X73667D01*
X72833D02*
Y145333D01*
X73667D01*
Y146167D01*
X75333D01*
Y145333D02*
Y146167D01*
Y145333D02*
X76167D01*
Y143667D02*
Y145333D01*
X75333Y143667D02*
X76167D01*
X75333Y142833D02*
Y143667D01*
X73667Y142833D02*
X75333D01*
X73667D02*
Y143667D01*
X7333Y119667D02*
X8167D01*
X7333D02*
Y121333D01*
X8167D01*
Y122167D01*
X9833D01*
Y121333D02*
Y122167D01*
Y121333D02*
X10667D01*
Y119667D02*
Y121333D01*
X9833Y119667D02*
X10667D01*
X9833Y118833D02*
Y119667D01*
X8167Y118833D02*
X9833D01*
X8167D02*
Y119667D01*
X15333Y92167D02*
X16167D01*
X15333D02*
Y93833D01*
X16167D01*
Y94667D01*
X17833D01*
Y93833D02*
Y94667D01*
Y93833D02*
X18667D01*
Y92167D02*
Y93833D01*
X17833Y92167D02*
X18667D01*
X17833Y91333D02*
Y92167D01*
X16167Y91333D02*
X17833D01*
X16167D02*
Y92167D01*
X13421Y8294D02*
X15088Y11627D01*
X11755D02*
X15088D01*
X11755D02*
X13421Y8294D01*
X53382D02*
X55049Y11627D01*
X51715D02*
X55049D01*
X51715D02*
X53382Y8294D01*
X19235Y43333D02*
X22568D01*
Y46667D01*
X19235D02*
X22568D01*
X19235Y43333D02*
Y46667D01*
X24255Y33294D02*
X27588D01*
Y36627D01*
X24255D02*
X27588D01*
X24255Y33294D02*
Y36627D01*
X29274Y43333D02*
X32608D01*
Y46667D01*
X29274D02*
X32608D01*
X29274Y43333D02*
Y46667D01*
X34294Y33294D02*
X37627D01*
Y36627D01*
X34294D02*
X37627D01*
X34294Y33294D02*
Y36627D01*
X39314Y43333D02*
X42647D01*
Y46667D01*
X39314D02*
X42647D01*
X39314Y43333D02*
Y46667D01*
X44333Y33294D02*
X47667D01*
Y36627D01*
X44333D02*
X47667D01*
X44333Y33294D02*
Y36627D01*
G54D70*
X182000Y123000D02*
X569897D01*
X182000Y33000D02*
X569897D01*
X182000Y18000D02*
X569897D01*
Y138000D01*
X182000D02*
X569897D01*
X182000Y18000D02*
Y138000D01*
X492017Y18000D02*
Y138000D01*
X441429Y18000D02*
Y138000D01*
X306869Y18000D02*
Y138000D01*
X237088Y18000D02*
Y138000D01*
G54D71*
X496517Y134698D02*
Y127500D01*
Y131099D01*
X501315D01*
Y134698D01*
Y127500D01*
X504914D02*
X507313D01*
X508513Y128700D01*
Y131099D01*
X507313Y132299D01*
X504914D01*
X503715Y131099D01*
Y128700D01*
X504914Y127500D01*
X510912D02*
X513311D01*
X512112D01*
Y134698D01*
X510912D01*
X520509Y127500D02*
X518110D01*
X516910Y128700D01*
Y131099D01*
X518110Y132299D01*
X520509D01*
X521709Y131099D01*
Y129899D01*
X516910D01*
X531306Y134698D02*
X536104D01*
X533705D01*
Y127500D01*
X538503Y132299D02*
Y128700D01*
X539703Y127500D01*
X543302D01*
Y126300D01*
X542102Y125101D01*
X540903D01*
X543302Y127500D02*
Y132299D01*
X545701Y125101D02*
Y132299D01*
X549300D01*
X550499Y131099D01*
Y128700D01*
X549300Y127500D01*
X545701D01*
X556497D02*
X554098D01*
X552899Y128700D01*
Y131099D01*
X554098Y132299D01*
X556497D01*
X557697Y131099D01*
Y129899D01*
X552899D01*
X445929Y127500D02*
Y134698D01*
X449528D01*
X450728Y133498D01*
Y131099D01*
X449528Y129899D01*
X445929D01*
X453127Y127500D02*
X455526D01*
X454327D01*
Y134698D01*
X453127D01*
X460325Y132299D02*
X462724D01*
X463924Y131099D01*
Y127500D01*
X460325D01*
X459125Y128700D01*
X460325Y129899D01*
X463924D01*
X467522Y133498D02*
Y132299D01*
X466323D01*
X468722D01*
X467522D01*
Y128700D01*
X468722Y127500D01*
X475920D02*
X473520D01*
X472321Y128700D01*
Y131099D01*
X473520Y132299D01*
X475920D01*
X477119Y131099D01*
Y129899D01*
X472321D01*
X484317Y134698D02*
Y127500D01*
X480718D01*
X479519Y128700D01*
Y131099D01*
X480718Y132299D01*
X484317D01*
X316167Y134698D02*
X311369D01*
Y131099D01*
X313768D01*
X311369D01*
Y127500D01*
X318567D02*
X320966D01*
X319766D01*
Y132299D01*
X318567D01*
X324565Y127500D02*
Y132299D01*
X328164D01*
X329363Y131099D01*
Y127500D01*
X331762D02*
X334161D01*
X332962D01*
Y132299D01*
X331762D01*
X337760Y127500D02*
X341359D01*
X342559Y128700D01*
X341359Y129899D01*
X338960D01*
X337760Y131099D01*
X338960Y132299D01*
X342559D01*
X344958Y134698D02*
Y127500D01*
Y131099D01*
X346158Y132299D01*
X348557D01*
X349757Y131099D01*
Y127500D01*
X355755D02*
X353355D01*
X352156Y128700D01*
Y131099D01*
X353355Y132299D01*
X355755D01*
X356954Y131099D01*
Y129899D01*
X352156D01*
X364152Y134698D02*
Y127500D01*
X360553D01*
X359353Y128700D01*
Y131099D01*
X360553Y132299D01*
X364152D01*
X373749Y134698D02*
Y127500D01*
Y131099D01*
X378547D01*
Y134698D01*
Y127500D01*
X382146D02*
X384545D01*
X385745Y128700D01*
Y131099D01*
X384545Y132299D01*
X382146D01*
X380946Y131099D01*
Y128700D01*
X382146Y127500D01*
X388144D02*
X390543D01*
X389344D01*
Y134698D01*
X388144D01*
X397741Y127500D02*
X395342D01*
X394142Y128700D01*
Y131099D01*
X395342Y132299D01*
X397741D01*
X398941Y131099D01*
Y129899D01*
X394142D01*
X413336Y133498D02*
X412136Y134698D01*
X409737D01*
X408537Y133498D01*
Y132299D01*
X409737Y131099D01*
X412136D01*
X413336Y129899D01*
Y128700D01*
X412136Y127500D01*
X409737D01*
X408537Y128700D01*
X415735Y127500D02*
X418134D01*
X416935D01*
Y132299D01*
X415735D01*
X421733D02*
X426532D01*
X421733Y127500D01*
X426532D01*
X432530D02*
X430130D01*
X428931Y128700D01*
Y131099D01*
X430130Y132299D01*
X432530D01*
X433729Y131099D01*
Y129899D01*
X428931D01*
X241588Y134698D02*
Y127500D01*
Y131099D01*
X246386D01*
Y134698D01*
Y127500D01*
X248785D02*
X251185D01*
X249985D01*
Y132299D01*
X248785D01*
X255983Y133498D02*
Y132299D01*
X254783D01*
X257183D01*
X255983D01*
Y128700D01*
X257183Y127500D01*
X272778Y133498D02*
X271578Y134698D01*
X269179D01*
X267979Y133498D01*
Y128700D01*
X269179Y127500D01*
X271578D01*
X272778Y128700D01*
X276376Y127500D02*
X278776D01*
X279975Y128700D01*
Y131099D01*
X278776Y132299D01*
X276376D01*
X275177Y131099D01*
Y128700D01*
X276376Y127500D01*
X282374Y132299D02*
Y128700D01*
X283574Y127500D01*
X287173D01*
Y132299D01*
X289572Y127500D02*
Y132299D01*
X293171D01*
X294371Y131099D01*
Y127500D01*
X297969Y133498D02*
Y132299D01*
X296770D01*
X299169D01*
X297969D01*
Y128700D01*
X299169Y127500D01*
X195799Y133498D02*
X194599Y134698D01*
X192200D01*
X191000Y133498D01*
Y132299D01*
X192200Y131099D01*
X194599D01*
X195799Y129899D01*
Y128700D01*
X194599Y127500D01*
X192200D01*
X191000Y128700D01*
X198198Y132299D02*
Y128700D01*
X199397Y127500D01*
X202996D01*
Y126300D01*
X201797Y125101D01*
X200597D01*
X202996Y127500D02*
Y132299D01*
X205395Y127500D02*
Y132299D01*
X206595D01*
X207795Y131099D01*
Y127500D01*
Y131099D01*
X208994Y132299D01*
X210194Y131099D01*
Y127500D01*
X212593Y134698D02*
Y127500D01*
X216192D01*
X217391Y128700D01*
Y129899D01*
Y131099D01*
X216192Y132299D01*
X212593D01*
X220990Y127500D02*
X223390D01*
X224589Y128700D01*
Y131099D01*
X223390Y132299D01*
X220990D01*
X219791Y131099D01*
Y128700D01*
X220990Y127500D01*
X226988D02*
X229388D01*
X228188D01*
Y134698D01*
X226988D01*
G54D72*
X69112Y-28599D02*
Y-22601D01*
X66113Y-25600D01*
X70112D01*
X72111Y-28599D02*
X74110D01*
X73111D01*
Y-22601D01*
X72111Y-23601D01*
X77109Y-28599D02*
Y-27599D01*
X78109D01*
Y-28599D01*
X77109D01*
X82108Y-23601D02*
X83107Y-22601D01*
X85107D01*
X86106Y-23601D01*
Y-27599D01*
X85107Y-28599D01*
X83107D01*
X82108Y-27599D01*
Y-23601D01*
X88106D02*
X89105Y-22601D01*
X91105D01*
X92104Y-23601D01*
Y-27599D01*
X91105Y-28599D01*
X89105D01*
X88106Y-27599D01*
Y-23601D01*
X-27399Y104060D02*
Y100062D01*
X-24400D01*
X-25400Y102061D01*
Y103061D01*
X-24400Y104060D01*
X-22401D01*
X-21401Y103061D01*
Y101061D01*
X-22401Y100062D01*
X-26399Y106060D02*
X-27399Y107060D01*
Y109059D01*
X-26399Y110059D01*
X-25400D01*
X-24400Y109059D01*
X-23400Y110059D01*
X-22401D01*
X-21401Y109059D01*
Y107060D01*
X-22401Y106060D01*
X-23400D01*
X-24400Y107060D01*
X-25400Y106060D01*
X-26399D01*
X-24400Y107060D02*
Y109059D01*
X-21401Y112058D02*
X-22401D01*
Y113058D01*
X-21401D01*
Y112058D01*
X-27399Y121055D02*
Y117056D01*
X-24400D01*
X-25400Y119056D01*
Y120055D01*
X-24400Y121055D01*
X-22401D01*
X-21401Y120055D01*
Y118056D01*
X-22401Y117056D01*
X-26399Y123054D02*
X-27399Y124054D01*
Y126053D01*
X-26399Y127053D01*
X-22401D01*
X-21401Y126053D01*
Y124054D01*
X-22401Y123054D01*
X-26399D01*
M02*
