M48
;Layer_Color=9474304
;FILE_FORMAT=2:5
INCH,LZ
;TYPE=PLATED
T1F00S00C0.02800
T2F00S00C0.03150
T3F00S00C0.03543
T4F00S00C0.04331
T5F00S00C0.15748
;TYPE=NON_PLATED
%
T01
X0187Y0013
X01855Y00435
X01875Y00885
X01785
X0211Y00935
X02275Y0058
X0202Y0145
X016775Y0148
X01625Y0153
X0166Y01365
X0151154Y0135653
X01295Y00925
X011525Y010075
X00725Y00915
X0078Y0125
X0089Y01385
X0021Y0127
X0006543Y0132457
X0013Y0062
X01Y0162
Y01695
X0109Y01745
X01175Y0169
X0089Y01835
X008Y0184
X0089Y02335
X0125Y02265
X01305Y02425
X01405Y022
X01585Y0259
X0075457Y0280457
X00385Y02405
X0022Y02475
X00075Y02895
X01625Y02815
X0161846Y0226847
X01705Y02185
X0175Y0214
X01855Y0202
X0197153Y0174653
X01805Y01585
X02595Y0162
X02535Y01685
X0228Y0225
X02045Y02675
X02925Y02515
X01815Y0321
X0182Y03505
X0124Y0327
T02
X0048752Y00435
Y00535
Y00635
Y00735
X0080248
Y00635
Y00535
Y00435
X006Y0174752
X005
X004
X003
Y0206248
X004
X005
X006
X0058752Y0307
X0090248
Y0317
Y0327
Y0337
X0058752
Y0327
Y0317
T03
X0294Y0145
Y0155
X0266929Y01865
Y01965
Y02065
Y02165
Y02265
Y02365
Y02465
X024685Y02515
Y02415
Y02315
Y02215
Y02115
Y02015
Y01915
Y01815
T04
X02455Y001661
Y003039
X02005Y00735
Y00935
X0294Y00955
Y01155
X01525Y00645
Y00545
Y00445
Y00345
Y00245
Y00145
X01165Y004861
Y006239
X005039Y0139
X003661
X01515Y03055
X0215Y02825
Y02625
X0242Y032961
Y034339
X01515Y03455
Y03555
Y03355
Y03255
Y03155
X00225Y031711
Y033089
T05
X0185039Y011811
X011811
Y0259842
X0185039
M30
