M48
;Layer_Color=9474304
;FILE_FORMAT=2:5
INCH,LZ
T6F00S00C0.20000
%
G90
G05
T06
G00X0316948Y-00098
M15
G01X0318856Y-000921
G01X0320609Y-0008252
G01X0322137Y-0006965
G01X0323378Y-00054
G01X0324283Y-0003619
G01X0324816Y-0001694
G01X0324961Y0
G01X0324961Y0370079
G01X0324761Y0372066
G01X0324171Y0373974
G01X0323213Y0375727
G01X0321925Y0377255
G01X032036Y0378496
G01X031858Y0379401
G01X0316655Y0379934
G01X0314961Y0380079
G01X0Y0380079
G01X-0001988Y0379879
G01X-0003896Y0379289
G01X-0005648Y0378331
G01X-0007176Y0377043
G01X-0008417Y0375478
G01X-0009322Y0373698
G01X-0009855Y0371773
G01X-001Y0370079
G01X-001Y0
G01X-00098Y-0001988
G01X-000921Y-0003896
G01X-0008252Y-0005648
G01X-0006965Y-0007176
G01X-00054Y-0008417
G01X-0003619Y-0009322
G01X-0001694Y-0009855
G01X0Y-001
G01X0314961Y-001
G01X0316948Y-00098
M16
M17
M30
