%FSLAX25Y25*%
%MOIN*%
G70*
G01*
G75*
%ADD10R,0.21654X0.07874*%
%ADD11R,0.22047X0.22047*%
%ADD12R,0.07874X0.04724*%
%ADD13R,0.00866X0.05906*%
%ADD14R,0.05906X0.00866*%
%ADD15R,0.03937X0.03937*%
%ADD16R,0.03937X0.03937*%
%ADD17R,0.03740X0.02756*%
%ADD18R,0.05118X0.03937*%
%ADD19R,0.06614X0.07874*%
%ADD20R,0.02362X0.05709*%
%ADD21R,0.05709X0.02362*%
%ADD22C,0.03150*%
%ADD23C,0.01063*%
%ADD24C,0.01000*%
%ADD25C,0.00945*%
%ADD26C,0.03937*%
%ADD27R,0.46063X0.19685*%
%ADD28R,0.07087X0.03937*%
%ADD29R,0.66929X0.37402*%
%ADD30R,0.03937X0.07087*%
%ADD31R,0.39370X0.47244*%
%ADD32R,0.51968X0.72835*%
%ADD33R,0.06496X0.02756*%
%ADD34R,0.03543X0.06693*%
%ADD35R,0.08661X0.05709*%
%ADD36R,0.05709X0.08661*%
%ADD37R,0.06693X0.03543*%
%ADD38C,0.04921*%
%ADD39R,0.07874X0.07874*%
%ADD40C,0.00787*%
%ADD41C,0.07874*%
%ADD42C,0.05906*%
%ADD43C,0.13780*%
%ADD44C,0.05000*%
%ADD45C,0.03937*%
%ADD46C,0.01969*%
%ADD47C,0.00394*%
G54D24*
X515983Y170520D02*
Y175343D01*
X470313D01*
Y170520D02*
Y175343D01*
Y155657D02*
Y160480D01*
X515983Y155657D02*
X470313D01*
X515983D02*
Y160480D01*
X416931Y145114D02*
Y171886D01*
X419884Y145114D02*
X416931D01*
X419884Y171886D02*
X416931D01*
X476963Y87315D02*
Y90760D01*
X480408Y87315D02*
X476963D01*
Y123240D02*
Y126685D01*
X480408D02*
X476963D01*
X516333Y123240D02*
Y126685D01*
X512888D01*
Y81705D02*
Y87315D01*
X516333D02*
X512888D01*
X516333D02*
Y90760D01*
X512837Y71870D02*
X511459D01*
X512837Y68130D02*
X511459D01*
X475396Y232988D02*
X443900D01*
X449215D02*
X444300Y228264D01*
X425593D01*
X474313D02*
X469589Y232988D01*
X493703Y228264D02*
X474313D01*
X425593Y190764D02*
Y228264D01*
X493703Y190764D02*
Y228264D01*
X476577Y186630D02*
X440750D01*
X527518Y201311D02*
Y202689D01*
X523778Y201311D02*
Y202689D01*
X511518Y201311D02*
Y202689D01*
X507778Y201311D02*
Y202689D01*
X415018Y203311D02*
Y204689D01*
X411278Y203311D02*
Y204689D01*
X396018Y202311D02*
Y203689D01*
X392278Y202311D02*
Y203689D01*
X447778Y88811D02*
Y90189D01*
X451518Y88811D02*
Y90189D01*
X471443Y14996D02*
X432073D01*
Y62240D01*
X471443D02*
X432073D01*
X471443Y14996D02*
Y62240D01*
X425943Y14996D02*
X386573D01*
Y62240D01*
X425943D02*
X386573D01*
X425943Y14996D02*
Y62240D01*
X483262Y14980D02*
Y50709D01*
Y-22126D02*
Y4646D01*
X535231Y-22126D02*
X483262D01*
X535231D02*
Y4646D01*
Y14980D02*
Y50709D01*
X483262D01*
X452136Y81488D02*
X448081D01*
X441357Y65181D02*
Y87819D01*
Y65181D02*
X439880D01*
X441357Y87819D02*
X439880D01*
Y81028D02*
Y87819D01*
X441357Y81028D02*
X439880D01*
X440619D02*
Y87819D01*
X430678Y81028D02*
Y87819D01*
X431416Y81028D02*
X429939D01*
X431416D02*
Y87819D01*
X429939D01*
X431416Y65181D02*
X429939D01*
Y87819D01*
X527636Y223488D02*
X523581D01*
X511636D02*
X507581D01*
X415136Y226488D02*
X411081D01*
X396136D02*
X392081D01*
X398857Y65181D02*
Y87819D01*
Y65181D02*
X397380D01*
X398857Y87819D02*
X397380D01*
Y81028D02*
Y87819D01*
X398857Y81028D02*
X397380D01*
X398119D02*
Y87819D01*
X388178Y81028D02*
Y87819D01*
X388916Y81028D02*
X387439D01*
X388916D02*
Y87819D01*
X387439D01*
X388916Y65181D02*
X387439D01*
Y87819D01*
X474148Y65500D02*
Y71498D01*
X471149D01*
X470149Y70498D01*
Y68499D01*
X471149Y67499D01*
X474148D01*
X464151Y65500D02*
X468150D01*
X464151Y69499D01*
Y70498D01*
X465151Y71498D01*
X467150D01*
X468150Y70498D01*
X412399Y93948D02*
X413399Y94948D01*
X415398D01*
X416398Y93948D01*
Y89950D01*
X415398Y88950D01*
X413399D01*
X412399Y89950D01*
X410400Y88950D02*
X408401D01*
X409400D01*
Y94948D01*
X410400Y93948D01*
X401403Y88950D02*
X405402D01*
X401403Y92949D01*
Y93948D01*
X402403Y94948D01*
X404402D01*
X405402Y93948D01*
X429646Y109999D02*
X430646Y108999D01*
Y107000D01*
X429646Y106000D01*
X425648D01*
X424648Y107000D01*
Y108999D01*
X425648Y109999D01*
X424648Y111998D02*
Y113997D01*
Y112998D01*
X430646D01*
X429646Y111998D01*
Y116996D02*
X430646Y117996D01*
Y119995D01*
X429646Y120995D01*
X428647D01*
X427647Y119995D01*
Y118996D01*
Y119995D01*
X426647Y120995D01*
X425648D01*
X424648Y119995D01*
Y117996D01*
X425648Y116996D01*
X415149Y130498D02*
X416149Y131498D01*
X418148D01*
X419148Y130498D01*
Y126500D01*
X418148Y125500D01*
X416149D01*
X415149Y126500D01*
X413150Y125500D02*
X411151D01*
X412150D01*
Y131498D01*
X413150Y130498D01*
X405153Y125500D02*
Y131498D01*
X408152Y128499D01*
X404153D01*
X448146Y109999D02*
X449146Y108999D01*
Y107000D01*
X448146Y106000D01*
X444148D01*
X443148Y107000D01*
Y108999D01*
X444148Y109999D01*
X443148Y111998D02*
Y113997D01*
Y112998D01*
X449146D01*
X448146Y111998D01*
X449146Y120995D02*
Y116996D01*
X446147D01*
X447147Y118996D01*
Y119995D01*
X446147Y120995D01*
X444148D01*
X443148Y119995D01*
Y117996D01*
X444148Y116996D01*
X460646Y73000D02*
X454648D01*
Y75999D01*
X455648Y76999D01*
X459647D01*
X460646Y75999D01*
Y73000D01*
X459647Y78998D02*
X460646Y79998D01*
Y81997D01*
X459647Y82997D01*
X458647D01*
X457647Y81997D01*
Y80997D01*
Y81997D01*
X456647Y82997D01*
X455648D01*
X454648Y81997D01*
Y79998D01*
X455648Y78998D01*
X438149Y141498D02*
X442148D01*
Y138499D01*
X440149D01*
X442148D01*
Y135500D01*
X436150Y141498D02*
Y135500D01*
X433151D01*
X432151Y136500D01*
Y137499D01*
X433151Y138499D01*
X436150D01*
X433151D01*
X432151Y139499D01*
Y140498D01*
X433151Y141498D01*
X436150D01*
X430152Y135500D02*
X428153D01*
X429152D01*
Y141498D01*
X430152Y140498D01*
X532149Y58998D02*
X534149D01*
X533149D01*
Y54000D01*
X534149Y53000D01*
X535148D01*
X536148Y54000D01*
X530150Y53000D02*
X528151D01*
X529150D01*
Y58998D01*
X530150Y57998D01*
X425398Y65750D02*
Y71748D01*
X422399D01*
X421399Y70748D01*
Y68749D01*
X422399Y67749D01*
X425398D01*
X419400Y65750D02*
X417401D01*
X418400D01*
Y71748D01*
X419400Y70748D01*
X442148Y177000D02*
Y182998D01*
X439149D01*
X438149Y181998D01*
Y179999D01*
X439149Y178999D01*
X442148D01*
X440149D02*
X438149Y177000D01*
X432151D02*
X436150D01*
X432151Y180999D01*
Y181998D01*
X433151Y182998D01*
X435150D01*
X436150Y181998D01*
X517148Y74000D02*
Y79998D01*
X514149D01*
X513149Y78998D01*
Y76999D01*
X514149Y75999D01*
X517148D01*
X515149D02*
X513149Y74000D01*
X511150Y78998D02*
X510150Y79998D01*
X508151D01*
X507151Y78998D01*
Y77999D01*
X508151Y76999D01*
X509151D01*
X508151D01*
X507151Y75999D01*
Y75000D01*
X508151Y74000D01*
X510150D01*
X511150Y75000D01*
X524148Y135998D02*
Y131000D01*
X523148Y130000D01*
X521149D01*
X520149Y131000D01*
Y135998D01*
X518150Y130000D02*
X516151D01*
X517150D01*
Y135998D01*
X518150Y134998D01*
X403150Y163500D02*
X408148D01*
X409148Y162500D01*
Y160501D01*
X408148Y159501D01*
X403150D01*
X409148Y153503D02*
Y157502D01*
X405149Y153503D01*
X404150D01*
X403150Y154503D01*
Y156502D01*
X404150Y157502D01*
X513148Y185498D02*
Y184498D01*
X511149Y182499D01*
X509149Y184498D01*
Y185498D01*
X511149Y182499D02*
Y179500D01*
X507150D02*
X505151D01*
X506150D01*
Y185498D01*
X507150Y184498D01*
X494649Y77998D02*
X495649Y78998D01*
X497648D01*
X498648Y77998D01*
Y74000D01*
X497648Y73000D01*
X495649D01*
X494649Y74000D01*
X488651Y78998D02*
X490651Y77998D01*
X492650Y75999D01*
Y74000D01*
X491650Y73000D01*
X489651D01*
X488651Y74000D01*
Y74999D01*
X489651Y75999D01*
X492650D01*
X383650Y155001D02*
X382650Y156001D01*
Y158000D01*
X383650Y159000D01*
X387648D01*
X388648Y158000D01*
Y156001D01*
X387648Y155001D01*
X388648Y153002D02*
Y151003D01*
Y152002D01*
X382650D01*
X383650Y153002D01*
X398348Y97698D02*
Y91700D01*
X395349D01*
X394349Y92700D01*
Y96698D01*
X395349Y97698D01*
X398348D01*
X392350Y91700D02*
X390351D01*
X391350D01*
Y97698D01*
X392350Y96698D01*
X440848Y97698D02*
Y91700D01*
X437849D01*
X436849Y92700D01*
Y96698D01*
X437849Y97698D01*
X440848D01*
X430851Y91700D02*
X434850D01*
X430851Y95699D01*
Y96698D01*
X431851Y97698D01*
X433850D01*
X434850Y96698D01*
G54D27*
X493148Y165500D02*
D03*
G54D28*
X512148Y70000D02*
D03*
G54D29*
X459648Y208972D02*
D03*
G54D30*
X525648Y202000D02*
D03*
X509648D02*
D03*
X413148Y204000D02*
D03*
X394148Y203000D02*
D03*
X449648Y89500D02*
D03*
G54D31*
X451758Y38618D02*
D03*
X406258D02*
D03*
G54D32*
X509246Y14291D02*
D03*
G54D33*
X436648Y131000D02*
D03*
G54D34*
X447648Y128000D02*
D03*
X426148Y127500D02*
D03*
X529148Y112500D02*
D03*
X464148Y97000D02*
D03*
X526648Y100000D02*
D03*
X464148Y111500D02*
D03*
G54D35*
X411648Y136000D02*
D03*
G54D36*
X414148Y80000D02*
D03*
X536148Y113000D02*
D03*
X393148Y154500D02*
D03*
G54D37*
X500648Y150500D02*
D03*
X486648Y151000D02*
D03*
X493648Y69500D02*
D03*
X479648Y138000D02*
D03*
Y144000D02*
D03*
G54D38*
X440940Y213619D02*
X440367Y214398D01*
X439404Y214310D01*
X438981Y213440D01*
X439506Y212628D01*
X440472Y212658D01*
X440947Y213500D01*
X460625Y213619D02*
X460052Y214398D01*
X459089Y214310D01*
X458666Y213440D01*
X459191Y212628D01*
X460157Y212658D01*
X460632Y213500D01*
X480310Y213619D02*
X479737Y214398D01*
X478774Y214310D01*
X478351Y213440D01*
X478876Y212628D01*
X479842Y212658D01*
X480317Y213500D01*
X457671Y53066D02*
X458245Y52287D01*
X459207Y52375D01*
X459630Y53245D01*
X459105Y54057D01*
X458139Y54027D01*
X457664Y53185D01*
X412171Y53066D02*
X412745Y52287D01*
X413707Y52375D01*
X414130Y53245D01*
X413605Y54057D01*
X412639Y54027D01*
X412164Y53185D01*
X496767Y33984D02*
X497546Y34557D01*
X497458Y35520D01*
X496588Y35943D01*
X495777Y35418D01*
X495806Y34451D01*
X496648Y33976D01*
X501787Y44023D02*
X502565Y44596D01*
X502478Y45559D01*
X501608Y45982D01*
X500796Y45457D01*
X500826Y44491D01*
X501668Y44016D01*
X506807Y33984D02*
X507585Y34557D01*
X507497Y35520D01*
X506628Y35943D01*
X505816Y35418D01*
X505845Y34451D01*
X506687Y33976D01*
X511826Y44023D02*
X512605Y44596D01*
X512517Y45559D01*
X511648Y45982D01*
X510836Y45457D01*
X510865Y44491D01*
X511707Y44016D01*
X516846Y33984D02*
X517625Y34557D01*
X517537Y35520D01*
X516667Y35943D01*
X515855Y35418D01*
X515885Y34451D01*
X516727Y33976D01*
X521866Y44023D02*
X522644Y44596D01*
X522556Y45559D01*
X521687Y45982D01*
X520875Y45457D01*
X520904Y44491D01*
X521746Y44016D01*
G54D39*
X444869Y33500D02*
D03*
X399369D02*
D03*
G54D40*
X542648Y0D02*
X381231D01*
X542648Y230315D02*
X381231D01*
X542648Y0D02*
Y230315D01*
X381231Y0D02*
Y230315D01*
G54D46*
X406302Y145114D02*
D03*
G54D47*
X459008Y114188D02*
X458680Y114516D01*
Y115172D01*
X459008Y115500D01*
X460320D01*
X460648Y115172D01*
Y114516D01*
X460320Y114188D01*
X459008Y113532D02*
X458680Y113204D01*
Y112548D01*
X459008Y112220D01*
X459336D01*
X459664Y112548D01*
Y112876D01*
Y112548D01*
X459992Y112220D01*
X460320D01*
X460648Y112548D01*
Y113204D01*
X460320Y113532D01*
X478336Y153140D02*
X478664Y153468D01*
X479320D01*
X479648Y153140D01*
Y151828D01*
X479320Y151500D01*
X478664D01*
X478336Y151828D01*
X477680Y153140D02*
X477352Y153468D01*
X476696D01*
X476368Y153140D01*
Y152812D01*
X476696Y152484D01*
X476368Y152156D01*
Y151828D01*
X476696Y151500D01*
X477352D01*
X477680Y151828D01*
Y152156D01*
X477352Y152484D01*
X477680Y152812D01*
Y153140D01*
X477352Y152484D02*
X476696D01*
X508836Y151140D02*
X509164Y151468D01*
X509820D01*
X510148Y151140D01*
Y149828D01*
X509820Y149500D01*
X509164D01*
X508836Y149828D01*
X508180D02*
X507852Y149500D01*
X507196D01*
X506868Y149828D01*
Y151140D01*
X507196Y151468D01*
X507852D01*
X508180Y151140D01*
Y150812D01*
X507852Y150484D01*
X506868D01*
X539288Y122812D02*
X539616Y122484D01*
Y121828D01*
X539288Y121500D01*
X537976D01*
X537648Y121828D01*
Y122484D01*
X537976Y122812D01*
X537648Y123468D02*
Y124124D01*
Y123796D01*
X539616D01*
X539288Y123468D01*
Y125108D02*
X539616Y125436D01*
Y126092D01*
X539288Y126420D01*
X537976D01*
X537648Y126092D01*
Y125436D01*
X537976Y125108D01*
X539288D01*
X525788Y112312D02*
X526116Y111984D01*
Y111328D01*
X525788Y111000D01*
X524476D01*
X524148Y111328D01*
Y111984D01*
X524476Y112312D01*
X524148Y112968D02*
Y113624D01*
Y113296D01*
X526116D01*
X525788Y112968D01*
X524148Y114608D02*
Y115264D01*
Y114936D01*
X526116D01*
X525788Y114608D01*
X454648Y87000D02*
X456616D01*
Y87984D01*
X456288Y88312D01*
X455632D01*
X455304Y87984D01*
Y87000D01*
Y87656D02*
X454648Y88312D01*
Y88968D02*
Y89624D01*
Y89296D01*
X456616D01*
X456288Y88968D01*
X387180Y227500D02*
X389148D01*
Y226516D01*
X388820Y226188D01*
X387508D01*
X387180Y226516D01*
Y227500D01*
X389148Y225532D02*
Y224876D01*
Y225204D01*
X387180D01*
X387508Y225532D01*
X389476Y223892D02*
Y222580D01*
X387180Y221924D02*
X389148D01*
Y220613D01*
X387180Y218645D02*
Y219956D01*
X389148D01*
Y218645D01*
X388164Y219956D02*
Y219301D01*
X387180Y217989D02*
X389148D01*
Y217005D01*
X388820Y216677D01*
X387508D01*
X387180Y217005D01*
Y217989D01*
X387508Y216021D02*
X387180Y215693D01*
Y215037D01*
X387508Y214709D01*
X388820D01*
X389148Y215037D01*
Y215693D01*
X388820Y216021D01*
X387508D01*
X405180Y227500D02*
X407148D01*
Y226516D01*
X406820Y226188D01*
X405508D01*
X405180Y226516D01*
Y227500D01*
X407148Y225532D02*
Y224876D01*
Y225204D01*
X405180D01*
X405508Y225532D01*
X407476Y223892D02*
Y222580D01*
X405180Y221924D02*
X407148D01*
Y220613D01*
X405180Y218645D02*
Y219956D01*
X407148D01*
Y218645D01*
X406164Y219956D02*
Y219301D01*
X405180Y217989D02*
X407148D01*
Y217005D01*
X406820Y216677D01*
X405508D01*
X405180Y217005D01*
Y217989D01*
X407148Y216021D02*
Y215365D01*
Y215693D01*
X405180D01*
X405508Y216021D01*
X502180Y225500D02*
X504148D01*
Y224516D01*
X503820Y224188D01*
X502508D01*
X502180Y224516D01*
Y225500D01*
X504148Y223532D02*
Y222876D01*
Y223204D01*
X502180D01*
X502508Y223532D01*
X504476Y221892D02*
Y220580D01*
X502180Y219924D02*
X504148D01*
Y218613D01*
X502180Y216645D02*
Y217956D01*
X504148D01*
Y216645D01*
X503164Y217956D02*
Y217301D01*
X502180Y215989D02*
X504148D01*
Y215005D01*
X503820Y214677D01*
X502508D01*
X502180Y215005D01*
Y215989D01*
X504148Y212709D02*
Y214021D01*
X502836Y212709D01*
X502508D01*
X502180Y213037D01*
Y213693D01*
X502508Y214021D01*
X518680Y225500D02*
X520648D01*
Y224516D01*
X520320Y224188D01*
X519008D01*
X518680Y224516D01*
Y225500D01*
X520648Y223532D02*
Y222876D01*
Y223204D01*
X518680D01*
X519008Y223532D01*
X520976Y221892D02*
Y220580D01*
X518680Y219924D02*
X520648D01*
Y218613D01*
X518680Y216645D02*
Y217956D01*
X520648D01*
Y216645D01*
X519664Y217956D02*
Y217301D01*
X518680Y215989D02*
X520648D01*
Y215005D01*
X520320Y214677D01*
X519008D01*
X518680Y215005D01*
Y215989D01*
X519008Y214021D02*
X518680Y213693D01*
Y213037D01*
X519008Y212709D01*
X519336D01*
X519664Y213037D01*
Y213365D01*
Y213037D01*
X519992Y212709D01*
X520320D01*
X520648Y213037D01*
Y213693D01*
X520320Y214021D01*
X399148Y197500D02*
X401116D01*
Y198484D01*
X400788Y198812D01*
X400132D01*
X399804Y198484D01*
Y197500D01*
Y198156D02*
X399148Y198812D01*
Y199468D02*
Y200124D01*
Y199796D01*
X401116D01*
X400788Y199468D01*
X398820Y201108D02*
Y202420D01*
X401116Y203076D02*
X399148D01*
Y204387D01*
X401116Y206355D02*
Y205044D01*
X399148D01*
Y206355D01*
X400132Y205044D02*
Y205699D01*
X401116Y207011D02*
X399148D01*
Y207995D01*
X399476Y208323D01*
X400788D01*
X401116Y207995D01*
Y207011D01*
X400788Y208979D02*
X401116Y209307D01*
Y209963D01*
X400788Y210291D01*
X399476D01*
X399148Y209963D01*
Y209307D01*
X399476Y208979D01*
X400788D01*
X420148Y199000D02*
X422116D01*
Y199984D01*
X421788Y200312D01*
X421132D01*
X420804Y199984D01*
Y199000D01*
Y199656D02*
X420148Y200312D01*
Y200968D02*
Y201624D01*
Y201296D01*
X422116D01*
X421788Y200968D01*
X419820Y202608D02*
Y203920D01*
X422116Y204576D02*
X420148D01*
Y205888D01*
X422116Y207855D02*
Y206543D01*
X420148D01*
Y207855D01*
X421132Y206543D02*
Y207199D01*
X422116Y208511D02*
X420148D01*
Y209495D01*
X420476Y209823D01*
X421788D01*
X422116Y209495D01*
Y208511D01*
X420148Y210479D02*
Y211135D01*
Y210807D01*
X422116D01*
X421788Y210479D01*
X515648Y198500D02*
X517616D01*
Y199484D01*
X517288Y199812D01*
X516632D01*
X516304Y199484D01*
Y198500D01*
Y199156D02*
X515648Y199812D01*
Y200468D02*
Y201124D01*
Y200796D01*
X517616D01*
X517288Y200468D01*
X515320Y202108D02*
Y203420D01*
X517616Y204076D02*
X515648D01*
Y205387D01*
X517616Y207355D02*
Y206044D01*
X515648D01*
Y207355D01*
X516632Y206044D02*
Y206699D01*
X517616Y208011D02*
X515648D01*
Y208995D01*
X515976Y209323D01*
X517288D01*
X517616Y208995D01*
Y208011D01*
X515648Y211291D02*
Y209979D01*
X516960Y211291D01*
X517288D01*
X517616Y210963D01*
Y210307D01*
X517288Y209979D01*
X531648Y199500D02*
X533616D01*
Y200484D01*
X533288Y200812D01*
X532632D01*
X532304Y200484D01*
Y199500D01*
Y200156D02*
X531648Y200812D01*
Y201468D02*
Y202124D01*
Y201796D01*
X533616D01*
X533288Y201468D01*
X531320Y203108D02*
Y204420D01*
X533616Y205076D02*
X531648D01*
Y206387D01*
X533616Y208355D02*
Y207044D01*
X531648D01*
Y208355D01*
X532632Y207044D02*
Y207699D01*
X533616Y209011D02*
X531648D01*
Y209995D01*
X531976Y210323D01*
X533288D01*
X533616Y209995D01*
Y209011D01*
X533288Y210979D02*
X533616Y211307D01*
Y211963D01*
X533288Y212291D01*
X532960D01*
X532632Y211963D01*
Y211635D01*
Y211963D01*
X532304Y212291D01*
X531976D01*
X531648Y211963D01*
Y211307D01*
X531976Y210979D01*
X494990Y144640D02*
X495318Y144968D01*
X495974D01*
X496302Y144640D01*
Y143328D01*
X495974Y143000D01*
X495318D01*
X494990Y143328D01*
X493022Y143000D02*
X494334D01*
X493022Y144312D01*
Y144640D01*
X493350Y144968D01*
X494006D01*
X494334Y144640D01*
X492836Y138640D02*
X493164Y138968D01*
X493820D01*
X494148Y138640D01*
Y137328D01*
X493820Y137000D01*
X493164D01*
X492836Y137328D01*
X491196Y137000D02*
Y138968D01*
X492180Y137984D01*
X490868D01*
X523788Y99812D02*
X524116Y99484D01*
Y98828D01*
X523788Y98500D01*
X522476D01*
X522148Y98828D01*
Y99484D01*
X522476Y99812D01*
X524116Y101780D02*
Y100468D01*
X523132D01*
X523460Y101124D01*
Y101452D01*
X523132Y101780D01*
X522476D01*
X522148Y101452D01*
Y100796D01*
X522476Y100468D01*
X463508Y89688D02*
X463180Y90016D01*
Y90672D01*
X463508Y91000D01*
X464820D01*
X465148Y90672D01*
Y90016D01*
X464820Y89688D01*
X463180Y89032D02*
Y87720D01*
X463508D01*
X464820Y89032D01*
X465148D01*
M02*
