M48
;Layer_Color=9474304
;FILE_FORMAT=2:5
INCH,LZ
;TYPE=PLATED
T1F00S00C0.01968
T2F00S00C0.02799
T3F00S00C0.02835
T4F00S00C0.03543
T5F00S00C0.03937
T6F00S00C0.12795
;TYPE=NON_PLATED
%
T01
X0045654Y0063846
X0052346Y0063153
X00925Y00665
X0083846Y0108153
T02
X0055Y0138
X0054Y0144
T03
X00785Y01235
X00745Y01445
X0102347Y0124653
X0109153Y0124153
X0124Y01375
X01495Y0137
X01365Y01175
X0088Y01795
X0009Y01205
X00095Y0101
X0017Y0093
X0004Y00865
X0017Y02235
X0033Y0224
X0063315Y02135
X0083
X01295Y0227
X01485
T04
X0025921Y0034961
X0035961
X0046
X004098Y0045
X0030941
X0020902
T05
X009778Y00335
X0084Y0053185
X01295
X014328Y00335
X0102685Y02135
X0083
X0063315
T06
X0013421Y0009961
X0053382
M30
