M48
;Layer_Color=9474304
;FILE_FORMAT=2:5
INCH,LZ
T7F00S00C0.20000
%
G90
G05
T07
G00X0163405Y-00098
M15
G01X0165313Y-000921
G01X0167066Y-0008252
G01X0168593Y-0006965
G01X0169834Y-00054
G01X017074Y-0003619
G01X0171273Y-0001694
G01X0171417Y0
G01X0171417Y0230315
G01X0171218Y0232302
G01X0170627Y0234211
G01X0169669Y0235963
G01X0168382Y0237491
G01X0166817Y0238732
G01X0165036Y0239637
G01X0163111Y024017
G01X0161417Y0240315
G01X0Y0240315
G01X-0001988Y0240115
G01X-0003896Y0239525
G01X-0005648Y0238567
G01X-0007176Y023728
G01X-0008417Y0235714
G01X-0009322Y0233934
G01X-0009855Y0232009
G01X-001Y0230315
G01X-001Y0
G01X-00098Y-0001988
G01X-000921Y-0003896
G01X-0008252Y-0005648
G01X-0006965Y-0007176
G01X-00054Y-0008417
G01X-0003619Y-0009322
G01X-0001694Y-0009855
G01X0Y-001
G01X0161417Y-001
G01X0163405Y-00098
M16
M17
M30
